{
.appVersion = "983";
classes = (
{
automatic = 1;

glyphs = (
{
color = 7;
glyphname = A;
layers = (
{
anchors = (
{
name = bottom;
position = "{545, 30}";
},
{
name = ogonek;
position = "{981, 0}";
},
{
name = top;
position = "{554, 1284}";
},
{
name = top_case;
position = "{554, 1284}";
}
);
layerId = "1D628CB9-BBF5-410A-9D74-9E6094BFE839";
paths = (
{
closed = 1;
nodes = (
"197 0 LINE",
"313 367 LINE",
"254 320 LINE",
"847 320 LINE",
"789 367 LINE",
"901 0 LINE",
"1029 0 LINE",
"647 1284 LINE",
"460 1284 LINE",
"60 0 LINE"
);
},
{
closed = 1;
nodes = (
"554 1174 LINE",
"786 377 LINE",
"818 421 LINE",
"282 421 LINE",
"314 377 LINE"
);
}
);
width = 1089;
},
{
anchors = (
{
name = bottom;
position = "{601, -50}";
},
{
name = ogonek;
position = "{1069, 5}";
},
{
name = top;
position = "{600, 1336}";
},
{
name = top_case;
position = "{609, 1336}";
}
);
guideLines = (
{
angle = 252.1913;
position = "{1986, 1465}";
},
{
angle = -72.1913;
position = "{1650, 1502}";
},
{
angle = 270;
position = "{601, 700}";
},
{
angle = 107.1404;
position = "{686, 642}";
},
{
angle = 72.6968;
position = "{514, 642}";
}
);
layerId = "D42B5605-DB46-4B3B-8EA0-4CE7066523CE";
paths = (
{
closed = 1;
nodes = (
"314 0 LINE",
"415 325 LINE",
"271 209 LINE",
"924 209 LINE",
"781 334 LINE",
"884 0 LINE",
"1191 0 LINE",
"795 1284 LINE",
"407 1284 LINE",
"7 0 LINE"
);
},
{
closed = 1;
nodes = (
"628 1007 LINE",
"573 1007 LINE",
"771 367 LINE",
"875 479 LINE",
"319 479 LINE",
"428 367 LINE"
);
}
);
width = 1198;
}
);
unicode = 0041;
},
{
color = 6;
glyphname = AE;
layers = (
{
anchors = (
{
name = bottom;
position = "{693, 0}";
},
{
name = top_case;
position = "{959, 1284}";
}
);
layerId = "1D628CB9-BBF5-410A-9D74-9E6094BFE839";
paths = (
{
closed = 1;
nodes = (
"118 0 LINE",
"282 328 LINE",
"693 328 LINE",
"693 0 LINE",
"1302 0 LINE",
"1286 100 LINE",
"821 100 LINE",
"821 626 LINE",
"1242 626 LINE",
"1242 722 LINE",
"821 722 LINE",
"821 1184 LINE",
"1276 1184 LINE",
"1298 1284 LINE",
"620 1284 LINE",
"-22 0 LINE"
);
},
{
closed = 1;
nodes = (
"693 1194 LINE",
"693 420 LINE",
"320 420 LINE"
);
}
);
width = 1389;
},
{
guideLines = (
{
angle = 66.8122;
position = "{292, 642}";
},
{
angle = 66.8122;
position = "{594, 653}";
}
);
layerId = "D42B5605-DB46-4B3B-8EA0-4CE7066523CE";
paths = (
{
closed = 1;
nodes = (
"1600 0 LINE",
"1577 295 LINE",
"944 295 LINE",
"1089 56 LINE",
"1089 638 LINE",
"944 521 LINE",
"1540 521 LINE",
"1540 796 LINE",
"944 796 LINE",
"1089 684 LINE",
"1089 1228 LINE",
"944 989 LINE",
"1561 989 LINE",
"1596 1284 LINE",
"761 1284 LINE",
"761 0 LINE"
);
},
{
closed = 1;
nodes = (
"314 0 LINE",
"454 325 LINE",
"281 209 LINE",
"955 209 LINE",
"955 1284 LINE",
"557 1284 LINE",
"7 0 LINE"
);
},
{
closed = 1;
nodes = (
"761 1043 LINE",
"761 479 LINE",
"329 479 LINE",
"472 367 LINE"
);
}
);
width = 1675;
}
);
unicode = 00C6;
},
{
color = 7;
glyphname = B;
layers = (
{
anchors = (
{
name = bottom;
position = "{487, 0}";
},
{
name = top_case;
position = "{487, 1284}";
}
);
layerId = "1D628CB9-BBF5-410A-9D74-9E6094BFE839";
paths = (
{
closed = 1;
nodes = (
"470 0 LINE SMOOTH",
"783 0 OFFCURVE",
"952 65 OFFCURVE",
"952 377 CURVE SMOOTH",
"952 556 OFFCURVE",
"855 650 OFFCURVE",
"712 683 CURVE",
"855 718 OFFCURVE",
"906 810 OFFCURVE",
"906 971 CURVE SMOOTH",
"906 1217 OFFCURVE",
"767 1284 OFFCURVE",
"473 1284 CURVE SMOOTH",
"152 1284 LINE",
"152 0 LINE"
);
},
{
closed = 1;
nodes = (
"280 665 LINE",
"225 626 LINE",
"514 626 LINE SMOOTH",
"715 626 OFFCURVE",
"824 555 OFFCURVE",
"824 375 CURVE SMOOTH",
"824 139 OFFCURVE",
"697 101 OFFCURVE",
"477 101 CURVE SMOOTH",
"225 101 LINE",
"280 46 LINE"
);
},
{
closed = 1;
nodes = (
"280 1238 LINE",
"225 1183 LINE",
"497 1183 LINE SMOOTH",
"701 1183 OFFCURVE",
"778 1127 OFFCURVE",
"778 971 CURVE SMOOTH",
"778 781 OFFCURVE",
"703 727 OFFCURVE",
"513 727 CURVE SMOOTH",
"225 727 LINE",
"280 687 LINE"
);
}
);
width = 1047;
},
{
anchors = (
{
name = bottom;
position = "{527, 0}";
},
{
name = top_case;
position = "{517, 1334}";
}
);
layerId = "D42B5605-DB46-4B3B-8EA0-4CE7066523CE";
paths = (
{
closed = 1;
nodes = (
"530 0 LINE SMOOTH",
"864 0 OFFCURVE",
"1052 91 OFFCURVE",
"1052 357 CURVE SMOOTH",
"1052 536 OFFCURVE",
"955 621 OFFCURVE",
"812 668 CURVE",
"955 720 OFFCURVE",
"1005 807 OFFCURVE",
"1005 955 CURVE SMOOTH",
"1005 1201 OFFCURVE",
"830 1284 OFFCURVE",
"501 1284 CURVE SMOOTH",
"92 1284 LINE",
"92 0 LINE"
);
},
{
closed = 1;
nodes = (
"420 648 LINE",
"275 532 LINE",
"577 532 LINE SMOOTH",
"669 532 OFFCURVE",
"724 494 OFFCURVE",
"724 391 CURVE SMOOTH",
"724 289 OFFCURVE",
"650 260 OFFCURVE",
"537 260 CURVE SMOOTH",
"275 260 LINE",
"420 46 LINE"
);
},
{
closed = 1;
nodes = (
"420 1238 LINE",
"275 1024 LINE",
"527 1024 LINE SMOOTH",
"616 1024 OFFCURVE",
"677 995 OFFCURVE",
"677 908 CURVE SMOOTH",
"677 821 OFFCURVE",
"626 792 OFFCURVE",
"557 792 CURVE SMOOTH",
"275 792 LINE",
"420 694 LINE"
);
}
);
width = 1107;
}
);
unicode = 0042;
},
{
color = 7;
glyphname = C;
layers = (
{
anchors = (
{
name = bottom;
position = "{511, 0}";
},
{
name = cedilla;
position = "{582, 0}";
},
{
name = top;
position = "{590, 1284}";
},
{
name = top_case;
position = "{596, 1284}";
}
);
guideLines = (
{
angle = 270;
position = "{579, 639}";
},
{
angle = 270;
position = "{900, 639}";
}
);
layerId = "1D628CB9-BBF5-410A-9D74-9E6094BFE839";
paths = (
{
closed = 1;
nodes = (
"706 -10 OFFCURVE",
"810 8 OFFCURVE",
"927 64 CURVE",
"887 161 LINE",
"784 112 OFFCURVE",
"697 96 OFFCURVE",
"610 96 CURVE SMOOTH",
"395 96 OFFCURVE",
"250 242 OFFCURVE",
"250 638 CURVE SMOOTH",
"250 1092 OFFCURVE",
"375 1195 OFFCURVE",
"601 1195 CURVE SMOOTH",
"683 1195 OFFCURVE",
"760 1175 OFFCURVE",
"814 1146 CURVE",
"791 1202 LINE",
"791 949 LINE",
"900 959 LINE",
"900 1226 LINE",
"790 1280 OFFCURVE",
"689 1301 OFFCURVE",
"590 1301 CURVE SMOOTH",
"274 1301 OFFCURVE",
"122 1114 OFFCURVE",
"122 641 CURVE SMOOTH",
"122 179 OFFCURVE",
"323 -10 OFFCURVE",
"602 -10 CURVE SMOOTH"
);
}
);
width = 1022;
},
{
anchors = (
{
name = bottom;
position = "{615, 0}";
},
{
name = cedilla;
position = "{596, 0}";
},
{
name = top;
position = "{694, 1334}";
},
{
name = top_case;
position = "{610, 1334}";
}
);
guideLines = (
{
angle = 270;
position = "{609, 639}";
},
{
angle = 270;
position = "{1054, 639}";
}
);
layerId = "D42B5605-DB46-4B3B-8EA0-4CE7066523CE";
paths = (
{
closed = 1;
nodes = (
"807 -40 OFFCURVE",
"929 -4 OFFCURVE",
"1094 73 CURVE",
"993 324 LINE",
"837 258 OFFCURVE",
"756 245 OFFCURVE",
"664 245 CURVE SMOOTH",
"490 245 OFFCURVE",
"384 337 OFFCURVE",
"384 638 CURVE SMOOTH",
"384 982 OFFCURVE",
"462 1046 OFFCURVE",
"605 1046 CURVE SMOOTH",
"739 1046 OFFCURVE",
"801 1006 OFFCURVE",
"868 966 CURVE",
"754 1232 LINE",
"754 814 LINE",
"1054 844 LINE",
"1054 1226 LINE",
"874 1310 OFFCURVE",
"746 1331 OFFCURVE",
"574 1331 CURVE SMOOTH",
"258 1331 OFFCURVE",
"56 1174 OFFCURVE",
"56 641 CURVE SMOOTH",
"56 119 OFFCURVE",
"298 -40 OFFCURVE",
"626 -40 CURVE SMOOTH"
);
}
);
width = 1165;
}
);
unicode = 0043;
},
{
color = 7;
glyphname = D;
layers = (
{
anchors = (
{
name = bottom;
position = "{544, 0}";
},
{
name = center;
position = "{554, 642}";
},
{
name = top_case;
position = "{524, 1284}";
}
);
layerId = "1D628CB9-BBF5-410A-9D74-9E6094BFE839";
paths = (
{
closed = 1;
nodes = (
"437 0 LINE SMOOTH",
"909 0 OFFCURVE",
"985 229 OFFCURVE",
"985 636 CURVE SMOOTH",
"985 1101 OFFCURVE",
"880 1284 OFFCURVE",
"426 1284 CURVE SMOOTH",
"153 1284 LINE",
"153 0 LINE"
);
},
{
closed = 1;
nodes = (
"281 1228 LINE",
"236 1183 LINE",
"426 1183 LINE SMOOTH",
"801 1183 OFFCURVE",
"857 1030 OFFCURVE",
"857 636 CURVE SMOOTH",
"857 266 OFFCURVE",
"821 101 OFFCURVE",
"437 101 CURVE SMOOTH",
"236 101 LINE",
"281 56 LINE"
);
}
);
width = 1107;
},
{
anchors = (
{
name = bottom;
position = "{543, -50}";
},
{
name = center;
position = "{573, 642}";
},
{
name = top_case;
position = "{523, 1334}";
}
);
layerId = "D42B5605-DB46-4B3B-8EA0-4CE7066523CE";
paths = (
{
closed = 1;
nodes = (
"476 0 LINE SMOOTH",
"939 0 OFFCURVE",
"1084 191 OFFCURVE",
"1084 646 CURVE SMOOTH",
"1084 1101 OFFCURVE",
"939 1284 OFFCURVE",
"465 1284 CURVE SMOOTH",
"92 1284 LINE",
"92 0 LINE"
);
},
{
closed = 1;
nodes = (
"420 1228 LINE",
"175 999 LINE",
"465 999 LINE SMOOTH",
"706 999 OFFCURVE",
"756 933 OFFCURVE",
"756 646 CURVE SMOOTH",
"756 359 OFFCURVE",
"707 285 OFFCURVE",
"476 285 CURVE SMOOTH",
"175 285 LINE",
"420 56 LINE"
);
}
);
width = 1140;
}
);
unicode = 0044;
},
{
glyphname = Eth;
layers = (
{
layerId = "1D628CB9-BBF5-410A-9D74-9E6094BFE839";
paths = (
{
closed = 1;
nodes = (
"437 0 LINE SMOOTH",
"909 0 OFFCURVE",
"985 229 OFFCURVE",
"985 636 CURVE SMOOTH",
"985 1101 OFFCURVE",
"880 1284 OFFCURVE",
"426 1284 CURVE SMOOTH",
"153 1284 LINE",
"153 712 LINE",
"4 712 LINE",
"4 609 LINE",
"153 609 LINE",
"153 0 LINE"
);
},
{
closed = 1;
nodes = (
"281 609 LINE",
"484 609 LINE",
"484 712 LINE",
"281 712 LINE",
"281 1184 LINE",
"426 1184 LINE SMOOTH",
"801 1184 OFFCURVE",
"857 1030 OFFCURVE",
"857 636 CURVE SMOOTH",
"857 269 OFFCURVE",
"821 104 OFFCURVE",
"437 104 CURVE SMOOTH",
"281 104 LINE"
);
}
);
width = 1107;
},
{
layerId = "D42B5605-DB46-4B3B-8EA0-4CE7066523CE";
paths = (
{
closed = 1;
nodes = (
"557 0 LINE SMOOTH",
"1020 0 OFFCURVE",
"1165 191 OFFCURVE",
"1165 646 CURVE SMOOTH",
"1165 1101 OFFCURVE",
"1020 1284 OFFCURVE",
"546 1284 CURVE SMOOTH",
"173 1284 LINE",
"173 742 LINE",
"42 742 LINE",
"42 577 LINE",
"173 577 LINE",
"173 0 LINE"
);
},
{
closed = 1;
nodes = (
"501 577 LINE",
"698 577 LINE",
"698 742 LINE",
"501 742 LINE",
"501 1228 LINE",
"256 999 LINE",
"546 999 LINE SMOOTH",
"787 999 OFFCURVE",
"837 933 OFFCURVE",
"837 646 CURVE SMOOTH",
"837 359 OFFCURVE",
"788 285 OFFCURVE",
"557 285 CURVE SMOOTH",
"256 285 LINE",
"501 56 LINE"
);
}
);
width = 1221;
}
);
unicode = 00D0;
},
{
glyphname = Dcroat;
layers = (
{
layerId = "1D628CB9-BBF5-410A-9D74-9E6094BFE839";
paths = (
{
closed = 1;
nodes = (
"437 0 LINE SMOOTH",
"909 0 OFFCURVE",
"985 229 OFFCURVE",
"985 636 CURVE SMOOTH",
"985 1101 OFFCURVE",
"880 1284 OFFCURVE",
"426 1284 CURVE SMOOTH",
"153 1284 LINE",
"153 712 LINE",
"4 712 LINE",
"4 609 LINE",
"153 609 LINE",
"153 0 LINE"
);
},
{
closed = 1;
nodes = (
"281 609 LINE",
"484 609 LINE",
"484 712 LINE",
"281 712 LINE",
"281 1184 LINE",
"426 1184 LINE SMOOTH",
"801 1184 OFFCURVE",
"857 1030 OFFCURVE",
"857 636 CURVE SMOOTH",
"857 269 OFFCURVE",
"821 104 OFFCURVE",
"437 104 CURVE SMOOTH",
"281 104 LINE"
);
}
);
width = 1107;
},
{
layerId = "D42B5605-DB46-4B3B-8EA0-4CE7066523CE";
paths = (
{
closed = 1;
nodes = (
"557 0 LINE SMOOTH",
"1020 0 OFFCURVE",
"1165 191 OFFCURVE",
"1165 646 CURVE SMOOTH",
"1165 1101 OFFCURVE",
"1020 1284 OFFCURVE",
"546 1284 CURVE SMOOTH",
"173 1284 LINE",
"173 742 LINE",
"42 742 LINE",
"42 577 LINE",
"173 577 LINE",
"173 0 LINE"
);
},
{
closed = 1;
nodes = (
"501 577 LINE",
"698 577 LINE",
"698 742 LINE",
"501 742 LINE",
"501 1228 LINE",
"256 999 LINE",
"546 999 LINE SMOOTH",
"787 999 OFFCURVE",
"837 933 OFFCURVE",
"837 646 CURVE SMOOTH",
"837 359 OFFCURVE",
"788 285 OFFCURVE",
"557 285 CURVE SMOOTH",
"256 285 LINE",
"501 56 LINE"
);
}
);
width = 1221;
}
);
unicode = 0110;
},
{
color = 7;
glyphname = E;
layers = (
{
anchors = (
{
name = bottom;
position = "{498, 0}";
},
{
name = cedilla;
position = "{480, 0}";
},
{
name = ogonek;
position = "{792, 0}";
},
{
name = top;
position = "{507, 1284}";
},
{
name = top_case;
position = "{506, 1284}";
}
);
layerId = "1D628CB9-BBF5-410A-9D74-9E6094BFE839";
paths = (
{
closed = 1;
nodes = (
"842 0 LINE",
"826 101 LINE",
"236 101 LINE",
"281 56 LINE",
"281 671 LINE",
"236 622 LINE",
"782 622 LINE",
"782 723 LINE",
"236 723 LINE",
"281 677 LINE",
"281 1228 LINE",
"236 1183 LINE",
"816 1183 LINE",
"838 1284 LINE",
"153 1284 LINE",
"153 0 LINE"
);
}
);
width = 929;
},
{
anchors = (
{
name = bottom;
position = "{515, -50}";
},
{
name = cedilla;
position = "{495, 0}";
},
{
name = ogonek;
position = "{798, 5}";
},
{
name = top_case;
position = "{505, 1336}";
}
);
guideLines = (
{
angle = 263.2847;
position = "{922, 1319}";
},
{
angle = 270;
position = "{505, 0}";
},
{
position = "{1341, -148}";
}
);
layerId = "D42B5605-DB46-4B3B-8EA0-4CE7066523CE";
paths = (
{
closed = 1;
nodes = (
"920 0 LINE",
"897 295 LINE",
"264 295 LINE",
"409 56 LINE",
"409 638 LINE",
"264 521 LINE",
"860 521 LINE",
"860 796 LINE",
"264 796 LINE",
"409 684 LINE",
"409 1228 LINE",
"264 989 LINE",
"881 989 LINE",
"916 1284 LINE",
"81 1284 LINE",
"81 0 LINE"
);
}
);
width = 995;
}
);
unicode = 0045;
},
{
color = 7;
glyphname = F;
layers = (
{
anchors = (
{
name = bottom;
position = "{423, 0}";
},
{
name = top_case;
position = "{503, 1284}";
}
);
guideLines = (
{
angle = 77.7751;
position = "{822, 1172}";
}
);
layerId = "1D628CB9-BBF5-410A-9D74-9E6094BFE839";
paths = (
{
closed = 1;
nodes = (
"281 0 LINE",
"281 648 LINE",
"236 603 LINE",
"737 603 LINE",
"737 699 LINE",
"236 699 LINE",
"281 654 LINE",
"281 1228 LINE",
"236 1183 LINE",
"801 1183 LINE",
"823 1284 LINE",
"153 1284 LINE",
"153 0 LINE"
);
}
);
width = 860;
},
{
anchors = (
{
name = bottom;
position = "{628, 0}";
},
{
name = top_case;
position = "{529, 1334}";
}
);
guideLines = (
{
angle = 263.2847;
position = "{932, 1319}";
}
);
layerId = "D42B5605-DB46-4B3B-8EA0-4CE7066523CE";
paths = (
{
closed = 1;
nodes = (
"409 0 LINE",
"409 612 LINE",
"264 478 LINE",
"842 478 LINE",
"842 753 LINE",
"264 753 LINE",
"409 618 LINE",
"409 1228 LINE",
"264 989 LINE",
"893 989 LINE",
"928 1284 LINE",
"81 1284 LINE",
"81 0 LINE"
);
},
{
closed = 0;
nodes = (
"342 1228 LINE"
);
}
);
width = 1003;
}
);
unicode = 0046;
},
{
color = 7;
glyphname = G;
layers = (
{
anchors = (
{
name = bottom;
position = "{583, 0}";
},
{
name = top_case;
position = "{597, 1284}";
}
);
guideLines = (
{
angle = 270;
position = "{579, 639}";
}
);
layerId = "1D628CB9-BBF5-410A-9D74-9E6094BFE839";
paths = (
{
closed = 1;
nodes = (
"782 -10 OFFCURVE",
"905 41 OFFCURVE",
"968 75 CURVE",
"968 665 LINE",
"616 665 LINE",
"616 569 LINE",
"897 569 LINE",
"852 614 LINE",
"852 100 LINE",
"874 157 LINE",
"806 116 OFFCURVE",
"692 96 OFFCURVE",
"594 96 CURVE SMOOTH",
"386 96 OFFCURVE",
"242 242 OFFCURVE",
"242 659 CURVE SMOOTH",
"242 1103 OFFCURVE",
"390 1195 OFFCURVE",
"614 1195 CURVE SMOOTH",
"695 1195 OFFCURVE",
"797 1176 OFFCURVE",
"844 1147 CURVE",
"824 1202 LINE",
"824 944 LINE",
"933 954 LINE",
"933 1226 LINE",
"823 1280 OFFCURVE",
"702 1301 OFFCURVE",
"603 1301 CURVE SMOOTH",
"287 1301 OFFCURVE",
"114 1123 OFFCURVE",
"114 650 CURVE SMOOTH",
"114 178 OFFCURVE",
"315 -10 OFFCURVE",
"588 -10 CURVE SMOOTH"
);
}
);
width = 1102;
},
{
anchors = (
{
name = bottom;
position = "{664, -50}";
},
{
name = top_case;
position = "{638, 1334}";
}
);
guideLines = (
{
angle = 270;
position = "{609, 1539}";
},
{
position = "{896, 665}";
}
);
layerId = "D42B5605-DB46-4B3B-8EA0-4CE7066523CE";
paths = (
{
closed = 1;
nodes = (
"818 -40 OFFCURVE",
"996 -4 OFFCURVE",
"1139 62 CURVE",
"1139 685 LINE",
"642 685 LINE",
"642 420 LINE",
"968 420 LINE",
"831 534 LINE",
"831 65 LINE",
"1012 338 LINE",
"856 272 OFFCURVE",
"757 245 OFFCURVE",
"664 245 CURVE SMOOTH",
"490 245 OFFCURVE",
"384 337 OFFCURVE",
"384 638 CURVE SMOOTH",
"384 982 OFFCURVE",
"462 1046 OFFCURVE",
"605 1046 CURVE SMOOTH",
"739 1046 OFFCURVE",
"811 1015 OFFCURVE",
"868 986 CURVE",
"804 1232 LINE",
"804 818 LINE",
"1104 848 LINE",
"1104 1226 LINE",
"924 1310 OFFCURVE",
"786 1331 OFFCURVE",
"614 1331 CURVE SMOOTH",
"258 1331 OFFCURVE",
"56 1174 OFFCURVE",
"56 641 CURVE SMOOTH",
"56 119 OFFCURVE",
"298 -40 OFFCURVE",
"626 -40 CURVE SMOOTH"
);
}
);
width = 1231;
}
);
unicode = 0047;
},
{
color = 7;
glyphname = H;
layers = (
{
anchors = (
{
name = bottom;
position = "{571, 0}";
},
{
name = center;
position = "{571, 642}";
},
{
name = top_case;
position = "{571, 1284}";
}
);
layerId = "1D628CB9-BBF5-410A-9D74-9E6094BFE839";
paths = (
{
closed = 1;
nodes = (
"281 0 LINE",
"281 647 LINE",
"236 602 LINE",
"906 602 LINE",
"861 647 LINE",
"861 0 LINE",
"989 0 LINE",
"989 1284 LINE",
"861 1284 LINE",
"861 658 LINE",
"906 703 LINE",
"236 703 LINE",
"281 658 LINE",
"281 1284 LINE",
"153 1284 LINE",
"153 0 LINE"
);
}
);
width = 1142;
},
{
anchors = (
{
name = bottom;
position = "{610, -50}";
},
{
name = center;
position = "{610, 642}";
},
{
name = top_case;
position = "{610, 1334}";
}
);
layerId = "D42B5605-DB46-4B3B-8EA0-4CE7066523CE";
paths = (
{
closed = 1;
nodes = (
"420 0 LINE",
"420 637 LINE",
"275 510 LINE",
"965 510 LINE",
"820 637 LINE",
"820 0 LINE",
"1148 0 LINE",
"1148 1284 LINE",
"820 1284 LINE",
"820 668 LINE",
"965 795 LINE",
"275 795 LINE",
"420 668 LINE",
"420 1284 LINE",
"92 1284 LINE",
"92 0 LINE"
);
}
);
width = 1240;
}
);
unicode = 0048;
userData = {
com.fontlab.hintData = {
hhints = (
{
position = 0;
width = 21;
},
{
position = 602;
width = 101;
},
{
position = 1264;
width = 20;
}
);
vhints = (
{
position = 149;
width = 128;
},
{
position = 857;
width = 128;
}
);
};
};
},
{
glyphname = Hbar;
layers = (
{
layerId = "1D628CB9-BBF5-410A-9D74-9E6094BFE839";
paths = (
{
closed = 1;
nodes = (
"281 0 LINE",
"281 647 LINE",
"236 602 LINE",
"906 602 LINE",
"861 647 LINE",
"861 0 LINE",
"989 0 LINE",
"989 941 LINE",
"944 896 LINE",
"1101 896 LINE",
"1101 984 LINE",
"944 984 LINE",
"989 939 LINE",
"989 1284 LINE",
"861 1284 LINE",
"861 939 LINE",
"906 984 LINE",
"236 984 LINE",
"281 939 LINE",
"281 1284 LINE",
"153 1284 LINE",
"153 939 LINE",
"198 984 LINE",
"45 984 LINE",
"45 896 LINE",
"198 896 LINE",
"153 941 LINE",
"153 0 LINE"
);
},
{
closed = 1;
nodes = (
"281 941 LINE",
"236 896 LINE",
"906 896 LINE",
"861 941 LINE",
"861 658 LINE",
"906 703 LINE",
"236 703 LINE",
"281 658 LINE"
);
}
);
width = 1142;
},
{
guideLines = (
{
position = "{707, 799}";
},
{
position = "{676, 514}";
}
);
layerId = "D42B5605-DB46-4B3B-8EA0-4CE7066523CE";
paths = (
{
closed = 1;
nodes = (
"510 0 LINE",
"510 637 LINE",
"365 510 LINE",
"1055 510 LINE",
"910 637 LINE",
"910 0 LINE",
"1238 0 LINE",
"1238 1284 LINE",
"910 1284 LINE",
"910 668 LINE",
"1055 795 LINE",
"365 795 LINE",
"510 668 LINE",
"510 1284 LINE",
"182 1284 LINE",
"182 0 LINE"
);
},
{
closed = 1;
nodes = (
"51 925 LINE",
"1363 925 LINE",
"1363 1090 LINE",
"51 1090 LINE"
);
}
);
width = 1414;
}
);
unicode = 0126;
},
{
color = 7;
glyphname = I;
layers = (
{
anchors = (
{
name = bottom;
position = "{369, 0}";
},
{
name = ogonek;
position = "{378, 0}";
},
{
name = top_case;
position = "{372, 1284}";
}
);
layerId = "1D628CB9-BBF5-410A-9D74-9E6094BFE839";
paths = (
{
closed = 1;
nodes = (
"624 0 LINE",
"624 106 LINE",
"391 106 LINE",
"436 61 LINE",
"436 1223 LINE",
"391 1178 LINE",
"620 1178 LINE",
"620 1284 LINE",
"114 1284 LINE",
"114 1178 LINE",
"353 1178 LINE",
"308 1223 LINE",
"308 61 LINE",
"353 106 LINE",
"114 106 LINE",
"114 0 LINE"
);
}
);
width = 738;
},
{
anchors = (
{
name = bottom;
position = "{428, -50}";
},
{
name = ogonek;
position = "{447, 6}";
},
{
name = top;
position = "{432, 1336}";
},
{
name = top_case;
position = "{431, 1336}";
}
);
guideLines = (
{
angle = 270;
position = "{431, 916}";
}
);
layerId = "D42B5605-DB46-4B3B-8EA0-4CE7066523CE";
paths = (
{
closed = 1;
nodes = (
"813 0 LINE",
"813 285 LINE",
"450 285 LINE",
"595 61 LINE",
"595 1223 LINE",
"450 999 LINE",
"809 999 LINE",
"809 1284 LINE",
"43 1284 LINE",
"43 999 LINE",
"412 999 LINE",
"267 1223 LINE",
"267 61 LINE",
"412 285 LINE",
"43 285 LINE",
"43 0 LINE"
);
}
);
width = 856;
}
);
unicode = 0049;
},
{
color = 7;
glyphname = J;
layers = (
{
anchors = (
{
name = bottom;
position = "{326, 0}";
},
{
name = top_case;
position = "{326, 1284}";
}
);
guideLines = (
{
angle = 270;
position = "{109, 727}";
}
);
layerId = "1D628CB9-BBF5-410A-9D74-9E6094BFE839";
paths = (
{
closed = 1;
nodes = (
"399 -232 OFFCURVE",
"498 -155 OFFCURVE",
"498 91 CURVE SMOOTH",
"498 1284 LINE",
"109 1284 LINE",
"109 1183 LINE",
"415 1183 LINE",
"370 1228 LINE",
"370 91 LINE SMOOTH",
"370 -62 OFFCURVE",
"331 -126 OFFCURVE",
"218 -126 CURVE SMOOTH",
"171 -126 OFFCURVE",
"114 -115 OFFCURVE",
"66 -98 CURVE",
"51 -200 LINE",
"106 -221 OFFCURVE",
"170 -232 OFFCURVE",
"227 -232 CURVE SMOOTH"
);
}
);
width = 651;
},
{
anchors = (
{
name = bottom;
position = "{227, 0}";
},
{
name = top_case;
position = "{405, 1334}";
}
);
guideLines = (
{
angle = 261.6663;
position = "{54, 49}";
},
{
angle = 270;
position = "{70, 727}";
},
{
position = "{783, 1408}";
}
);
layerId = "D42B5605-DB46-4B3B-8EA0-4CE7066523CE";
paths = (
{
closed = 1;
nodes = (
"450 -340 OFFCURVE",
"688 -248 OFFCURVE",
"688 121 CURVE SMOOTH",
"688 1284 LINE",
"70 1284 LINE",
"70 999 LINE",
"505 999 LINE",
"360 1228 LINE",
"360 117 LINE SMOOTH",
"360 -26 OFFCURVE",
"289 -55 OFFCURVE",
"226 -55 CURVE SMOOTH",
"183 -55 OFFCURVE",
"102 -46 OFFCURVE",
"29 -26 CURVE",
"-10 -295 LINE",
"84 -326 OFFCURVE",
"200 -340 OFFCURVE",
"270 -340 CURVE SMOOTH"
);
}
);
width = 780;
}
);
unicode = 004A;
},
{
color = 7;
glyphname = K;
layers = (
{
anchors = (
{
name = bottom;
position = "{520, 0}";
},
{
name = top;
position = "{520, 1284}";
}
);
guideLines = (
{
position = "{817, -25}";
},
{
position = "{775, 43}";
}
);
layerId = "1D628CB9-BBF5-410A-9D74-9E6094BFE839";
paths = (
{
closed = 1;
nodes = (
"281 0 LINE",
"281 525 LINE",
"249 449 LINE",
"489 683 LINE",
"443 676 LINE",
"568 453 OFFCURVE",
"722 200 OFFCURVE",
"874 -25 CURVE",
"974 43 LINE",
"812 282 OFFCURVE",
"680 497 OFFCURVE",
"539 748 CURVE",
"527 685 LINE",
"926 1214 LINE",
"829 1284 LINE",
"436 778 LINE",
"251 576 LINE",
"281 564 LINE",
"281 1284 LINE",
"153 1284 LINE",
"153 0 LINE"
);
}
);
width = 1040;
},
{
anchors = (
{
name = bottom;
position = "{596, -50}";
},
{
name = top;
position = "{609, 1286}";
}
);
guideLines = (
{
angle = 270;
position = "{1135, 802}";
},
{
position = "{796, -55}";
}
);
layerId = "D42B5605-DB46-4B3B-8EA0-4CE7066523CE";
paths = (
{
closed = 1;
nodes = (
"420 0 LINE",
"420 505 LINE",
"333 347 LINE",
"568 541 LINE",
"492 564 LINE",
"605 372 OFFCURVE",
"739 171 OFFCURVE",
"903 -55 CURVE",
"1163 141 LINE",
"948 423 OFFCURVE",
"881 521 OFFCURVE",
"728 776 CURVE",
"727 632 LINE",
"1105 1128 LINE",
"848 1318 LINE",
"521 858 LINE",
"304 653 LINE",
"420 634 LINE",
"420 1284 LINE",
"92 1284 LINE",
"92 0 LINE"
);
}
);
width = 1178;
}
);
unicode = 004B;
userData = {
com.fontlab.hintData = {
hhints = (
{
position = 0;
width = 21;
},
{
position = 1264;
width = 20;
}
);
vhints = (
{
position = 149;
width = 128;
}
);
};
};
},
{
color = 7;
glyphname = L;
layers = (
{
anchors = (
{
name = bottom;
position = "{472, 0}";
},
{
name = center;
position = "{610, 675}";
},
{
name = top_case;
position = "{397, 1284}";
},
{
name = topright;
position = "{561, 1284}";
}
);
guideLines = (
{
angle = -80.5924;
position = "{786, 162}";
}
);
layerId = "1D628CB9-BBF5-410A-9D74-9E6094BFE839";
paths = (
{
closed = 1;
nodes = (
"790 0 LINE",
"773 101 LINE",
"236 101 LINE",
"281 56 LINE",
"281 1284 LINE",
"153 1284 LINE",
"153 0 LINE"
);
}
);
width = 833;
},
{
anchors = (
{
name = bottom;
position = "{513, -50}";
},
{
name = center;
position = "{799, 695}";
},
{
name = top_case;
position = "{366, 1324}";
},
{
name = topright;
position = "{670, 1284}";
}
);
guideLines = (
{
angle = -83.2847;
position = "{786, 1319}";
},
{
angle = 270;
position = "{511, 619}";
}
);
layerId = "D42B5605-DB46-4B3B-8EA0-4CE7066523CE";
paths = (
{
closed = 1;
nodes = (
"941 0 LINE",
"906 285 LINE",
"275 285 LINE",
"420 56 LINE",
"420 1284 LINE",
"92 1284 LINE",
"92 0 LINE"
);
}
);
width = 956;
}
);
unicode = 004C;
},
{
glyphname = Lslash;
layers = (
{
layerId = "1D628CB9-BBF5-410A-9D74-9E6094BFE839";
paths = (
{
closed = 1;
nodes = (
"153 0 LINE",
"790 0 LINE",
"773 101 LINE",
"281 101 LINE",
"281 1284 LINE",
"153 1284 LINE"
);
},
{
closed = 1;
nodes = (
"686 890 LINE",
"634 970 LINE",
"-62 528 LINE",
"-9 448 LINE"
);
}
);
width = 833;
},
{
guideLines = (
{
angle = 123.6239;
position = "{65, 443}";
},
{
angle = 123.6239;
position = "{865, 1060}";
}
);
layerId = "D42B5605-DB46-4B3B-8EA0-4CE7066523CE";
paths = (
{
closed = 1;
nodes = (
"1093 0 LINE",
"1058 285 LINE",
"427 285 LINE",
"572 56 LINE",
"572 1284 LINE",
"244 1284 LINE",
"244 0 LINE"
);
},
{
closed = 1;
nodes = (
"941 911 LINE",
"852 1043 LINE",
"13 505 LINE",
"102 374 LINE"
);
}
);
width = 1108;
}
);
unicode = 0141;
},
{
color = 7;
glyphname = M;
layers = (
{
anchors = (
{
name = bottom;
position = "{685, 0}";
},
{
name = top_case;
position = "{681, 1284}";
}
);
guideLines = (
{
angle = 270;
position = "{685, 1133}";
}
);
layerId = "1D628CB9-BBF5-410A-9D74-9E6094BFE839";
paths = (
{
closed = 1;
nodes = (
"263 0 LINE",
"358 1131 LINE",
"336 1127 LINE",
"628 438 LINE",
"743 438 LINE",
"1035 1131 LINE",
"1014 1134 LINE",
"1108 0 LINE",
"1229 0 LINE",
"1125 1284 LINE",
"984 1284 LINE",
"668 540 LINE",
"703 541 LINE",
"388 1284 LINE",
"246 1284 LINE",
"141 0 LINE"
);
}
);
width = 1370;
},
{
anchors = (
{
name = bottom;
position = "{772, 0}";
},
{
name = top_case;
position = "{768, 1334}";
}
);
guideLines = (
{
angle = 265.6286;
position = "{163, 443}";
},
{
angle = -85.6286;
position = "{1390, 443}";
},
{
angle = 270;
position = "{779, 876}";
}
);
layerId = "D42B5605-DB46-4B3B-8EA0-4CE7066523CE";
paths = (
{
closed = 1;
nodes = (
"410 0 LINE",
"489 1144 LINE",
"329 1141 LINE",
"652 308 LINE",
"907 308 LINE",
"1230 1143 LINE",
"1071 1146 LINE",
"1150 0 LINE",
"1478 0 LINE",
"1359 1284 LINE",
"997 1284 LINE",
"712 566 LINE",
"847 566 LINE",
"561 1284 LINE",
"200 1284 LINE",
"82 0 LINE"
);
}
);
width = 1560;
}
);
unicode = 004D;
},
{
color = 7;
glyphname = N;
layers = (
{
anchors = (
{
name = bottom;
position = "{605, 0}";
},
{
name = top_case;
position = "{600, 1284}";
}
);
layerId = "1D628CB9-BBF5-410A-9D74-9E6094BFE839";
paths = (
{
closed = 1;
nodes = (
"281 0 LINE",
"281 1126 LINE",
"259 1120 LINE",
"896 0 LINE",
"1036 0 LINE",
"1036 1284 LINE",
"908 1284 LINE",
"908 174 LINE",
"931 180 LINE",
"293 1284 LINE",
"153 1284 LINE",
"153 0 LINE"
);
}
);
width = 1189;
},
{
anchors = (
{
name = bottom;
position = "{659, -50}";
},
{
name = top_case;
position = "{657, 1334}";
}
);
guideLines = (
{
angle = 120.0349;
position = "{202, 1681}";
},
{
angle = 270;
position = "{649, 199}";
}
);
layerId = "D42B5605-DB46-4B3B-8EA0-4CE7066523CE";
paths = (
{
closed = 1;
nodes = (
"415 0 LINE",
"415 1026 LINE",
"260 1020 LINE",
"865 0 LINE",
"1195 0 LINE",
"1195 1284 LINE",
"872 1284 LINE",
"872 274 LINE",
"1028 280 LINE",
"422 1284 LINE",
"92 1284 LINE",
"92 0 LINE"
);
}
);
width = 1287;
}
);
unicode = 004E;
},
{
glyphname = Eng;
layers = (
{
guideLines = (
{
angle = 270;
position = "{932, 565}";
}
);
layerId = "1D628CB9-BBF5-410A-9D74-9E6094BFE839";
paths = (
{
closed = 1;
nodes = (
"281 0 LINE",
"281 1126 LINE",
"259 1120 LINE",
"910 -25 LINE",
"1036 0 LINE",
"1036 1284 LINE",
"908 1284 LINE",
"908 174 LINE",
"931 180 LINE",
"293 1284 LINE",
"153 1284 LINE",
"153 0 LINE"
);
},
{
closed = 1;
nodes = (
"908 -45 LINE SMOOTH",
"908 -225 OFFCURVE",
"778 -236 OFFCURVE",
"593 -236 CURVE",
"595 -343 LINE",
"839 -343 OFFCURVE",
"1036 -304 OFFCURVE",
"1036 7 CURVE",
"908 10 LINE"
);
}
);
width = 1201;
},
{
anchors = (
{
name = bottom;
position = "{679, -50}";
},
{
name = top_case;
position = "{647, 1334}";
}
);
layerId = "D42B5605-DB46-4B3B-8EA0-4CE7066523CE";
paths = (
{
closed = 1;
nodes = (
"872 538 LINE",
"422 1284 LINE",
"92 1284 LINE",
"92 0 LINE",
"415 0 LINE",
"415 759 LINE",
"865 0 LINE",
"861 -127 OFFCURVE",
"787 -176 OFFCURVE",
"636 -176 CURVE",
"635 -466 LINE",
"1056 -462 OFFCURVE",
"1195 -254 OFFCURVE",
"1195 0 CURVE SMOOTH",
"1195 1284 LINE",
"872 1284 LINE"
);
}
);
width = 1287;
}
);
unicode = 014A;
},
{
color = 7;
glyphname = O;
layers = (
{
anchors = (
{
name = bottom;
position = "{568, -20}";
},
{
name = ogonek;
position = "{729, 30}";
},
{
name = top;
position = "{568, 1284}";
},
{
name = top_case;
position = "{568, 1284}";
},
{
name = topright;
position = "{894, 954}";
}
);
layerId = "1D628CB9-BBF5-410A-9D74-9E6094BFE839";
paths = (
{
closed = 1;
nodes = (
"929 -10 OFFCURVE",
"1016 232 OFFCURVE",
"1016 648 CURVE SMOOTH",
"1016 1065 OFFCURVE",
"917 1301 OFFCURVE",
"568 1301 CURVE SMOOTH",
"219 1301 OFFCURVE",
"120 1065 OFFCURVE",
"120 648 CURVE SMOOTH",
"120 232 OFFCURVE",
"207 -10 OFFCURVE",
"568 -10 CURVE SMOOTH"
);
},
{
closed = 1;
nodes = (
"318 96 OFFCURVE",
"248 264 OFFCURVE",
"248 645 CURVE SMOOTH",
"248 1030 OFFCURVE",
"321 1195 OFFCURVE",
"568 1195 CURVE SMOOTH",
"815 1195 OFFCURVE",
"888 1030 OFFCURVE",
"888 645 CURVE SMOOTH",
"888 264 OFFCURVE",
"818 96 OFFCURVE",
"568 96 CURVE SMOOTH"
);
}
);
width = 1136;
},
{
anchors = (
{
name = bottom;
position = "{589, -50}";
},
{
name = ogonek;
position = "{713, 14}";
},
{
name = top;
position = "{590, 1336}";
},
{
name = top_case;
position = "{589, 1336}";
},
{
name = topright;
position = "{985, 974}";
}
);
layerId = "D42B5605-DB46-4B3B-8EA0-4CE7066523CE";
paths = (
{
closed = 1;
nodes = (
"940 -40 OFFCURVE",
"1122 132 OFFCURVE",
"1122 648 CURVE SMOOTH",
"1122 1165 OFFCURVE",
"928 1331 OFFCURVE",
"589 1331 CURVE SMOOTH",
"250 1331 OFFCURVE",
"56 1165 OFFCURVE",
"56 648 CURVE SMOOTH",
"56 132 OFFCURVE",
"238 -40 OFFCURVE",
"589 -40 CURVE SMOOTH"
);
},
{
closed = 1;
nodes = (
"439 245 OFFCURVE",
"384 334 OFFCURVE",
"384 645 CURVE SMOOTH",
"384 961 OFFCURVE",
"442 1046 OFFCURVE",
"589 1046 CURVE SMOOTH",
"736 1046 OFFCURVE",
"794 961 OFFCURVE",
"794 645 CURVE SMOOTH",
"794 334 OFFCURVE",
"739 245 OFFCURVE",
"589 245 CURVE SMOOTH"
);
}
);
width = 1178;
}
);
unicode = 004F;
userData = {
com.fontlab.hintData = {
hhints = (
{
position = -10;
width = 106;
},
{
position = 1195;
width = 106;
}
);
vhints = (
{
position = 116;
width = 128;
},
{
position = 884;
width = 128;
}
);
};
};
},
{
glyphname = Ohorn;
layers = (
{
anchors = (
{
name = _topright;
position = "{894, 974}";
},
{
name = bottom;
position = "{568, 0}";
},
{
name = ogonek;
position = "{729, 30}";
},
{
name = top;
position = "{568, 1284}";
},
{
name = top_case;
position = "{568, 1284}";
},
{
name = topright;
position = "{894, 974}";
}
);
components = (
{
name = horncomb;
transform = "{1, 0, 0, 1, 859, -11}";
},
{
name = O;
}
);
layerId = "1D628CB9-BBF5-410A-9D74-9E6094BFE839";
width = 1136;
},
{
anchors = (
{
name = _topright;
position = "{890, 974}";
},
{
name = bottom;
position = "{564, 0}";
},
{
name = ogonek;
position = "{725, 30}";
},
{
name = top;
position = "{564, 1284}";
},
{
name = top_case;
position = "{564, 1284}";
},
{
name = topright;
position = "{890, 974}";
}
);
associatedMasterId = "1D628CB9-BBF5-410A-9D74-9E6094BFE839";
layerId = "14DD0084-6660-4B70-A99D-CC78A7D99BE3";
name = "Regular Jul 25 16, 11:36";
paths = (
{
closed = 1;
nodes = (
"925 -10 OFFCURVE",
"1012 232 OFFCURVE",
"1012 648 CURVE SMOOTH",
"1012 1065 OFFCURVE",
"913 1301 OFFCURVE",
"564 1301 CURVE SMOOTH",
"215 1301 OFFCURVE",
"116 1065 OFFCURVE",
"116 648 CURVE SMOOTH",
"116 232 OFFCURVE",
"203 -10 OFFCURVE",
"564 -10 CURVE SMOOTH"
);
},
{
closed = 1;
nodes = (
"314 96 OFFCURVE",
"244 264 OFFCURVE",
"244 645 CURVE SMOOTH",
"244 1030 OFFCURVE",
"317 1195 OFFCURVE",
"564 1195 CURVE SMOOTH",
"811 1195 OFFCURVE",
"884 1030 OFFCURVE",
"884 645 CURVE SMOOTH",
"884 264 OFFCURVE",
"814 96 OFFCURVE",
"564 96 CURVE SMOOTH"
);
},
{
closed = 1;
nodes = (
"900 1066 LINE SMOOTH",
"1022 1107 OFFCURVE",
"1128 1166 OFFCURVE",
"1128 1291 CURVE SMOOTH",
"1128 1331 OFFCURVE",
"1121 1363 OFFCURVE",
"1111 1389 CURVE",
"979 1389 LINE",
"992 1361 OFFCURVE",
"1000 1330 OFFCURVE",
"1000 1299 CURVE SMOOTH",
"1000 1223 OFFCURVE",
"961 1180 OFFCURVE",
"890 1149 CURVE SMOOTH",
"855 1134 LINE",
"855 1051 LINE"
);
}
);
width = 1128;
},
{
components = (
{
name = O;
},
{
name = horncomb;
transform = "{1, 0, 0, 1, 875, -11}";
}
);
layerId = "D42B5605-DB46-4B3B-8EA0-4CE7066523CE";
width = 1178;
}
);
unicode = 01A0;
userData = {
com.schriftgestaltung.Glyphs.ColorIndex = 7;
};
},
{
color = 6;
glyphname = OE;
layers = (
{
anchors = (
{
name = bottom;
position = "{952, 0}";
},
{
name = top_case;
position = "{957, 1284}";
}
);
layerId = "1D628CB9-BBF5-410A-9D74-9E6094BFE839";
paths = (
{
closed = 1;
nodes = (
"1577 0 LINE",
"1561 104 LINE",
"1016 104 LINE",
"1016 626 LINE",
"1517 626 LINE",
"1517 722 LINE",
"1016 722 LINE",
"1016 1184 LINE",
"1551 1184 LINE",
"1573 1284 LINE",
"568 1284 LINE SMOOTH",
"219 1284 OFFCURVE",
"120 1065 OFFCURVE",
"120 648 CURVE SMOOTH",
"120 232 OFFCURVE",
"207 0 OFFCURVE",
"568 0 CURVE SMOOTH"
);
},
{
closed = 1;
nodes = (
"318 104 OFFCURVE",
"248 264 OFFCURVE",
"248 645 CURVE SMOOTH",
"248 1030 OFFCURVE",
"321 1184 OFFCURVE",
"568 1184 CURVE SMOOTH",
"889 1185 LINE",
"888 105 LINE",
"568 104 LINE SMOOTH"
);
}
);
width = 1664;
},
{
layerId = "D42B5605-DB46-4B3B-8EA0-4CE7066523CE";
paths = (
{
closed = 1;
nodes = (
"1710 0 LINE",
"1687 295 LINE",
"1054 295 LINE",
"1199 56 LINE",
"1199 638 LINE",
"1054 521 LINE",
"1650 521 LINE",
"1650 796 LINE",
"1054 796 LINE",
"1199 684 LINE",
"1199 1228 LINE",
"1054 989 LINE",
"1671 989 LINE",
"1706 1284 LINE",
"871 1284 LINE",
"871 0 LINE"
);
},
{
closed = 1;
nodes = (
"991 0 LINE",
"991 146 OFFCURVE",
"991 363 OFFCURVE",
"991 648 CURVE SMOOTH",
"991 923 OFFCURVE",
"991 1084 OFFCURVE",
"991 1284 CURVE",
"589 1284 LINE SMOOTH",
"250 1284 OFFCURVE",
"56 1118 OFFCURVE",
"56 648 CURVE SMOOTH",
"56 172 OFFCURVE",
"238 0 OFFCURVE",
"589 0 CURVE SMOOTH"
);
},
{
closed = 1;
nodes = (
"439 285 OFFCURVE",
"384 374 OFFCURVE",
"384 645 CURVE SMOOTH",
"384 914 OFFCURVE",
"442 999 OFFCURVE",
"589 999 CURVE SMOOTH",
"891 999 LINE",
"891 914 OFFCURVE",
"891 790 OFFCURVE",
"891 645 CURVE SMOOTH",
"891 517 OFFCURVE",
"891 358 OFFCURVE",
"891 285 CURVE",
"589 285 LINE SMOOTH"
);
}
);
width = 1785;
}
);
unicode = 0152;
},
{
color = 7;
glyphname = P;
layers = (
{
anchors = (
{
name = bottom;
position = "{494, 0}";
},
{
name = top_case;
position = "{494, 1284}";
}
);
layerId = "1D628CB9-BBF5-410A-9D74-9E6094BFE839";
paths = (
{
closed = 1;
nodes = (
"280 0 LINE",
"280 536 LINE",
"457 536 LINE SMOOTH",
"722 536 OFFCURVE",
"920 597 OFFCURVE",
"920 905 CURVE SMOOTH",
"920 1200 OFFCURVE",
"760 1284 OFFCURVE",
"501 1284 CURVE SMOOTH",
"152 1284 LINE",
"152 0 LINE"
);
},
{
closed = 1;
nodes = (
"280 1228 LINE",
"235 1183 LINE",
"509 1183 LINE SMOOTH",
"697 1183 OFFCURVE",
"792 1127 OFFCURVE",
"792 903 CURVE SMOOTH",
"792 665 OFFCURVE",
"646 637 OFFCURVE",
"434 637 CURVE SMOOTH",
"235 637 LINE",
"280 592 LINE"
);
}
);
width = 987;
},
{
anchors = (
{
name = bottom;
position = "{716, 0}";
},
{
name = top_case;
position = "{536, 1334}";
}
);
layerId = "D42B5605-DB46-4B3B-8EA0-4CE7066523CE";
paths = (
{
closed = 1;
nodes = (
"420 0 LINE",
"420 426 LINE",
"537 426 LINE SMOOTH",
"850 426 OFFCURVE",
"1042 507 OFFCURVE",
"1042 855 CURVE SMOOTH",
"1042 1170 OFFCURVE",
"878 1284 OFFCURVE",
"618 1284 CURVE SMOOTH",
"92 1284 LINE",
"92 0 LINE"
);
},
{
closed = 1;
nodes = (
"420 1223 LINE",
"375 999 LINE",
"566 999 LINE SMOOTH",
"648 999 OFFCURVE",
"714 969 OFFCURVE",
"714 861 CURVE SMOOTH",
"714 726 OFFCURVE",
"645 711 OFFCURVE",
"509 711 CURVE SMOOTH",
"375 711 LINE",
"420 487 LINE"
);
}
);
width = 1098;
}
);
unicode = 0050;
},
{
color = 6;
glyphname = Thorn;
layers = (
{
layerId = "1D628CB9-BBF5-410A-9D74-9E6094BFE839";
paths = (
{
closed = 1;
nodes = (
"281 0 LINE",
"281 372 LINE",
"236 327 LINE",
"443 327 LINE SMOOTH",
"748 327 OFFCURVE",
"921 389 OFFCURVE",
"921 697 CURVE SMOOTH",
"921 992 OFFCURVE",
"730 1052 OFFCURVE",
"471 1052 CURVE SMOOTH",
"237 1052 LINE",
"282 1007 LINE",
"282 1284 LINE",
"153 1284 LINE",
"153 0 LINE"
);
},
{
closed = 1;
nodes = (
"281 997 LINE",
"236 952 LINE",
"479 952 LINE SMOOTH",
"667 952 OFFCURVE",
"793 919 OFFCURVE",
"793 695 CURVE SMOOTH",
"793 447 OFFCURVE",
"690 431 OFFCURVE",
"440 431 CURVE SMOOTH",
"236 431 LINE",
"281 386 LINE"
);
}
);
width = 989;
},
{
guideLines = (
{
position = "{679, 697}";
}
);
layerId = "D42B5605-DB46-4B3B-8EA0-4CE7066523CE";
paths = (
{
closed = 1;
nodes = (
"420 0 LINE",
"420 402 LINE",
"375 277 LINE",
"572 277 LINE SMOOTH",
"861 277 OFFCURVE",
"1060 365 OFFCURVE",
"1060 697 CURVE SMOOTH",
"1060 1019 OFFCURVE",
"852 1102 OFFCURVE",
"583 1102 CURVE SMOOTH",
"376 1102 LINE",
"421 967 LINE",
"421 1284 LINE",
"93 1284 LINE",
"92 0 LINE"
);
},
{
closed = 1;
nodes = (
"420 957 LINE",
"375 817 LINE",
"608 817 LINE SMOOTH",
"696 817 OFFCURVE",
"732 761 OFFCURVE",
"732 697 CURVE SMOOTH",
"732 623 OFFCURVE",
"699 562 OFFCURVE",
"579 562 CURVE SMOOTH",
"375 562 LINE",
"420 416 LINE"
);
}
);
width = 1116;
}
);
unicode = 00DE;
},
{
color = 7;
glyphname = Q;
layers = (
{
anchors = (
{
name = bottom;
position = "{570, 0}";
},
{
name = top;
position = "{570, 1284}";
}
);
layerId = "1D628CB9-BBF5-410A-9D74-9E6094BFE839";
paths = (
{
closed = 1;
nodes = (
"929 -5 OFFCURVE",
"1016 237 OFFCURVE",
"1016 653 CURVE SMOOTH",
"1016 1070 OFFCURVE",
"917 1306 OFFCURVE",
"568 1306 CURVE SMOOTH",
"219 1306 OFFCURVE",
"120 1070 OFFCURVE",
"120 653 CURVE SMOOTH",
"120 237 OFFCURVE",
"207 -5 OFFCURVE",
"568 -5 CURVE SMOOTH"
);
},
{
closed = 1;
nodes = (
"1010 -94 LINE",
"888 55 OFFCURVE",
"780 206 OFFCURVE",
"684 361 CURVE",
"600 295 LINE",
"696 141 OFFCURVE",
"804 -11 OFFCURVE",
"926 -159 CURVE"
);
},
{
closed = 1;
nodes = (
"318 101 OFFCURVE",
"248 269 OFFCURVE",
"248 650 CURVE SMOOTH",
"248 1035 OFFCURVE",
"321 1200 OFFCURVE",
"568 1200 CURVE SMOOTH",
"815 1200 OFFCURVE",
"888 1035 OFFCURVE",
"888 650 CURVE SMOOTH",
"888 269 OFFCURVE",
"818 101 OFFCURVE",
"568 101 CURVE SMOOTH"
);
}
);
width = 1140;
},
{
anchors = (
{
name = bottom;
position = "{575, 0}";
},
{
name = top;
position = "{575, 1284}";
}
);
layerId = "D42B5605-DB46-4B3B-8EA0-4CE7066523CE";
paths = (
{
closed = 1;
nodes = (
"930 -40 OFFCURVE",
"1122 142 OFFCURVE",
"1122 648 CURVE SMOOTH",
"1122 1165 OFFCURVE",
"928 1331 OFFCURVE",
"589 1331 CURVE SMOOTH",
"250 1331 OFFCURVE",
"56 1165 OFFCURVE",
"56 648 CURVE SMOOTH",
"56 132 OFFCURVE",
"238 -40 OFFCURVE",
"589 -40 CURVE SMOOTH"
);
},
{
closed = 1;
nodes = (
"439 242 OFFCURVE",
"384 334 OFFCURVE",
"384 645 CURVE SMOOTH",
"384 961 OFFCURVE",
"442 1046 OFFCURVE",
"589 1046 CURVE SMOOTH",
"736 1046 OFFCURVE",
"794 961 OFFCURVE",
"794 635 CURVE SMOOTH",
"794 304 OFFCURVE",
"759 242 OFFCURVE",
"589 242 CURVE SMOOTH"
);
},
{
closed = 1;
nodes = (
"952 123 OFFCURVE",
"786 371 OFFCURVE",
"665 564 CURVE",
"463 427 LINE",
"567 263 OFFCURVE",
"770 -37 OFFCURVE",
"920 -211 CURVE",
"1111 -52 LINE"
);
}
);
width = 1178;
}
);
unicode = 0051;
},
{
color = 7;
glyphname = R;
layers = (
{
anchors = (
{
name = bottom;
position = "{501, 0}";
},
{
name = top_case;
position = "{501, 1284}";
}
);
guideLines = (
{
position = "{817, -25}";
},
{
position = "{775, 43}";
}
);
layerId = "1D628CB9-BBF5-410A-9D74-9E6094BFE839";
paths = (
{
closed = 1;
nodes = (
"978 43 LINE",
"862 235 OFFCURVE",
"756 425 OFFCURVE",
"660 617 CURVE",
"639 584 LINE",
"827 617 OFFCURVE",
"921 709 OFFCURVE",
"921 922 CURVE SMOOTH",
"921 1238 OFFCURVE",
"747 1284 OFFCURVE",
"406 1284 CURVE SMOOTH",
"153 1284 LINE",
"153 0 LINE",
"281 0 LINE",
"281 612 LINE",
"236 567 LINE",
"474 567 LINE SMOOTH",
"496 567 OFFCURVE",
"560 570 OFFCURVE",
"611 578 CURVE",
"545 597 LINE",
"624 408 OFFCURVE",
"782 128 OFFCURVE",
"875 -25 CURVE"
);
},
{
closed = 1;
nodes = (
"281 1223 LINE",
"236 1178 LINE",
"400 1178 LINE SMOOTH",
"660 1178 OFFCURVE",
"793 1166 OFFCURVE",
"793 920 CURVE SMOOTH",
"793 751 OFFCURVE",
"726 673 OFFCURVE",
"465 673 CURVE SMOOTH",
"236 673 LINE",
"281 628 LINE"
);
}
);
width = 1061;
},
{
anchors = (
{
name = bottom;
position = "{576, -50}";
},
{
name = top_case;
position = "{546, 1334}";
}
);
layerId = "D42B5605-DB46-4B3B-8EA0-4CE7066523CE";
paths = (
{
closed = 1;
nodes = (
"1004 270 OFFCURVE",
"900 447 OFFCURVE",
"857 546 CURVE",
"814 499 LINE",
"963 559 OFFCURVE",
"1042 661 OFFCURVE",
"1042 870 CURVE SMOOTH",
"1042 1170 OFFCURVE",
"878 1284 OFFCURVE",
"618 1284 CURVE SMOOTH",
"92 1284 LINE",
"92 0 LINE",
"420 0 LINE",
"420 551 LINE",
"325 456 LINE",
"635 456 LINE",
"535 479 LINE",
"597 336 OFFCURVE",
"742 53 OFFCURVE",
"808 -59 CURVE",
"1096 114 LINE"
);
},
{
closed = 1;
nodes = (
"325 741 LINE",
"420 646 LINE",
"420 1094 LINE",
"325 999 LINE",
"566 999 LINE SMOOTH",
"648 999 OFFCURVE",
"714 969 OFFCURVE",
"714 876 CURVE SMOOTH",
"714 756 OFFCURVE",
"645 741 OFFCURVE",
"509 741 CURVE SMOOTH"
);
}
);
width = 1106;
}
);
unicode = 0052;
},
{
color = 7;
glyphname = S;
layers = (
{
anchors = (
{
name = bottom;
position = "{478, 0}";
},
{
name = cedilla;
position = "{453, 0}";
},
{
name = top_case;
position = "{500, 1284}";
}
);
layerId = "1D628CB9-BBF5-410A-9D74-9E6094BFE839";
paths = (
{
closed = 1;
nodes = (
"717 -10 OFFCURVE",
"877 117 OFFCURVE",
"877 353 CURVE SMOOTH",
"877 603 OFFCURVE",
"698 661 OFFCURVE",
"535 720 CURVE SMOOTH",
"421 761 LINE SMOOTH",
"279 812 OFFCURVE",
"237 867 OFFCURVE",
"237 972 CURVE SMOOTH",
"237 1143 OFFCURVE",
"338 1195 OFFCURVE",
"518 1195 CURVE SMOOTH",
"645 1195 OFFCURVE",
"763 1158 OFFCURVE",
"822 1136 CURVE",
"846 1239 LINE",
"737 1284 OFFCURVE",
"619 1301 OFFCURVE",
"501 1301 CURVE SMOOTH",
"286 1301 OFFCURVE",
"109 1213 OFFCURVE",
"109 969 CURVE SMOOTH",
"109 786 OFFCURVE",
"213 700 OFFCURVE",
"380 644 CURVE SMOOTH",
"503 603 LINE SMOOTH",
"664 549 OFFCURVE",
"749 495 OFFCURVE",
"749 355 CURVE SMOOTH",
"749 175 OFFCURVE",
"634 96 OFFCURVE",
"475 96 CURVE SMOOTH",
"314 96 OFFCURVE",
"213 140 OFFCURVE",
"137 173 CURVE",
"109 68 LINE",
"220 18 OFFCURVE",
"349 -10 OFFCURVE",
"475 -10 CURVE SMOOTH"
);
}
);
width = 955;
},
{
anchors = (
{
name = bottom;
position = "{525, -50}";
},
{
name = cedilla;
position = "{463, 0}";
},
{
name = top_case;
position = "{525, 1334}";
}
);
guideLines = (
{
angle = 251.7901;
position = "{2937, 1360}";
},
{
angle = 270;
position = "{510, 985}";
}
);
layerId = "D42B5605-DB46-4B3B-8EA0-4CE7066523CE";
paths = (
{
closed = 1;
nodes = (
"778 -40 OFFCURVE",
"950 63 OFFCURVE",
"950 369 CURVE SMOOTH",
"950 573 OFFCURVE",
"862 705 OFFCURVE",
"621 788 CURVE SMOOTH",
"507 827 LINE SMOOTH",
"422 856 OFFCURVE",
"387 887 OFFCURVE",
"387 939 CURVE SMOOTH",
"387 1013 OFFCURVE",
"415 1046 OFFCURVE",
"542 1046 CURVE SMOOTH",
"624 1046 OFFCURVE",
"732 1031 OFFCURVE",
"849 991 CURVE",
"916 1266 LINE",
"764 1326 OFFCURVE",
"584 1331 OFFCURVE",
"500 1331 CURVE SMOOTH",
"225 1331 OFFCURVE",
"59 1208 OFFCURVE",
"59 944 CURVE SMOOTH",
"59 765 OFFCURVE",
"110 627 OFFCURVE",
"355 549 CURVE SMOOTH",
"456 517 LINE SMOOTH",
"564 483 OFFCURVE",
"622 443 OFFCURVE",
"622 369 CURVE SMOOTH",
"622 294 OFFCURVE",
"592 245 OFFCURVE",
"485 245 CURVE SMOOTH",
"355 245 OFFCURVE",
"216 288 OFFCURVE",
"122 330 CURVE",
"49 58 LINE",
"172 4 OFFCURVE",
"314 -40 OFFCURVE",
"518 -40 CURVE SMOOTH"
);
}
);
width = 994;
}
);
unicode = 0053;
},
{
color = 6;
glyphname = Germandbls;
layers = (
{
layerId = "1D628CB9-BBF5-410A-9D74-9E6094BFE839";
paths = (
{
closed = 1;
nodes = (
"895 -10 OFFCURVE",
"1050 130 OFFCURVE",
"1050 347 CURVE SMOOTH",
"1050 592 OFFCURVE",
"849 735 OFFCURVE",
"549 735 CURVE",
"557 680 LINE",
"960 1080 LINE",
"960 1182 LINE",
"861 1253 OFFCURVE",
"727 1301 OFFCURVE",
"591 1301 CURVE SMOOTH",
"294 1301 OFFCURVE",
"153 1142 OFFCURVE",
"153 822 CURVE SMOOTH",
"153 0 LINE",
"281 0 LINE",
"281 811 LINE SMOOTH",
"281 1071 OFFCURVE",
"367 1195 OFFCURVE",
"587 1195 CURVE SMOOTH",
"702 1195 OFFCURVE",
"798 1161 OFFCURVE",
"881 1109 CURVE",
"881 1161 LINE",
"461 735 LINE",
"461 624 LINE",
"540 624 LINE SMOOTH",
"781 624 OFFCURVE",
"922 531 OFFCURVE",
"922 347 CURVE SMOOTH",
"922 189 OFFCURVE",
"828 95 OFFCURVE",
"671 95 CURVE SMOOTH",
"591 95 OFFCURVE",
"506 122 OFFCURVE",
"438 156 CURVE",
"400 66 LINE",
"485 18 OFFCURVE",
"584 -10 OFFCURVE",
"683 -10 CURVE SMOOTH"
);
}
);
width = 1114;
},
{
layerId = "D42B5605-DB46-4B3B-8EA0-4CE7066523CE";
paths = (
{
closed = 1;
nodes = (
"1165 -10 OFFCURVE",
"1309 130 OFFCURVE",
"1309 347 CURVE SMOOTH",
"1309 624 OFFCURVE",
"1101 725 OFFCURVE",
"658 725 CURVE",
"801 569 LINE",
"1219 880 LINE",
"1219 1152 LINE",
"1032 1243 OFFCURVE",
"858 1301 OFFCURVE",
"620 1301 CURVE SMOOTH",
"323 1301 OFFCURVE",
"92 1145 OFFCURVE",
"92 792 CURVE SMOOTH",
"92 0 LINE",
"420 0 LINE",
"420 761 LINE SMOOTH",
"420 927 OFFCURVE",
"476 1016 OFFCURVE",
"672 1016 CURVE SMOOTH",
"787 1016 OFFCURVE",
"857 982 OFFCURVE",
"940 930 CURVE",
"940 1061 LINE",
"590 735 LINE",
"590 494 LINE",
"694 484 LINE SMOOTH",
"869 467 OFFCURVE",
"981 451 OFFCURVE",
"981 367 CURVE SMOOTH",
"981 289 OFFCURVE",
"914 275 OFFCURVE",
"827 275 CURVE SMOOTH",
"722 275 OFFCURVE",
"615 302 OFFCURVE",
"547 336 CURVE",
"509 66 LINE",
"594 18 OFFCURVE",
"781 -10 OFFCURVE",
"880 -10 CURVE SMOOTH"
);
}
);
width = 1364;
}
);
unicode = 1E9E;
},
{
color = 6;
glyphname = Schwa;
layers = (
{
layerId = "1D628CB9-BBF5-410A-9D74-9E6094BFE839";
paths = (
{
closed = 1;
nodes = (
"419 1308 OFFCURVE",
"255 1264 OFFCURVE",
"140 1187 CURVE",
"190 1096 LINE",
"321 1172 OFFCURVE",
"424 1202 OFFCURVE",
"542 1202 CURVE SMOOTH",
"778 1202 OFFCURVE",
"880 1029 OFFCURVE",
"891 684 CURVE",
"130 684 LINE",
"124 629 OFFCURVE",
"120 557 OFFCURVE",
"120 507 CURVE SMOOTH",
"120 165 OFFCURVE",
"272 -10 OFFCURVE",
"562 -10 CURVE SMOOTH",
"862 -10 OFFCURVE",
"1020 181 OFFCURVE",
"1020 632 CURVE SMOOTH",
"1020 1086 OFFCURVE",
"873 1308 OFFCURVE",
"533 1308 CURVE SMOOTH"
);
},
{
closed = 1;
nodes = (
"323 96 OFFCURVE",
"234 234 OFFCURVE",
"244 583 CURVE",
"891 583 LINE",
"883 236 OFFCURVE",
"777 96 OFFCURVE",
"562 96 CURVE SMOOTH"
);
}
);
width = 1140;
},
{
associatedMasterId = "1D628CB9-BBF5-410A-9D74-9E6094BFE839";
layerId = "43E52C2D-3EEE-49AE-BEA2-65001AC44158";
name = "Regular Jul 6 16, 10:41";
paths = (
{
closed = 1;
nodes = (
"542 1200 CURVE SMOOTH",
"412 1200 OFFCURVE",
"298 1173 OFFCURVE",
"176 1096 CURVE",
"126 1197 LINE",
"251 1274 OFFCURVE",
"409 1308 OFFCURVE",
"533 1308 CURVE SMOOTH",
"869 1308 OFFCURVE",
"1087 1120 OFFCURVE",
"1087 649 CURVE SMOOTH",
"1087 195 OFFCURVE",
"870 -10 OFFCURVE",
"566 -10 CURVE SMOOTH",
"276 -10 OFFCURVE",
"102 198 OFFCURVE",
"102 507 CURVE SMOOTH",
"102 547 OFFCURVE",
"106 607 OFFCURVE",
"112 684 CURVE",
"920 684 LINE",
"915 1109 OFFCURVE",
"733 1200 OFFCURVE"
);
},
{
closed = 1;
nodes = (
"565 127 CURVE SMOOTH",
"791 127 OFFCURVE",
"900 296 OFFCURVE",
"920 566 CURVE",
"258 566 LINE",
"258 501 LINE SMOOTH",
"258 274 OFFCURVE",
"375 127 OFFCURVE"
);
}
);
width = 1203;
},
{
layerId = "D42B5605-DB46-4B3B-8EA0-4CE7066523CE";
paths = (
{
closed = 1;
nodes = (
"341 1331 OFFCURVE",
"206 1276 OFFCURVE",
"57 1195 CURVE",
"195 960 LINE",
"366 1034 OFFCURVE",
"450 1046 OFFCURVE",
"514 1046 CURVE SMOOTH",
"646 1046 OFFCURVE",
"791 959 OFFCURVE",
"764 690 CURVE",
"911 785 LINE",
"71 785 LINE",
"58 708 OFFCURVE",
"57 594 OFFCURVE",
"57 549 CURVE SMOOTH",
"57 153 OFFCURVE",
"219 -40 OFFCURVE",
"544 -40 CURVE SMOOTH",
"868 -40 OFFCURVE",
"1092 118 OFFCURVE",
"1092 644 CURVE SMOOTH",
"1092 1157 OFFCURVE",
"892 1331 OFFCURVE",
"559 1331 CURVE SMOOTH"
);
},
{
closed = 1;
nodes = (
"787 326 OFFCURVE",
"683 245 OFFCURVE",
"559 245 CURVE SMOOTH",
"442 245 OFFCURVE",
"365 345 OFFCURVE",
"385 569 CURVE",
"382 727 LINE",
"271 529 LINE",
"911 529 LINE",
"764 630 LINE"
);
}
);
width = 1148;
}
);
unicode = 018F;
userData = {
com.schriftgestaltung.Glyphs.leftMetricsKey = "=O";
com.schriftgestaltung.Glyphs.rightMetricsKey = "=O";
com.typemytype.robofont.layerData = {
"Regular Jul 6 16, 10:41" = {
anchors = (
);
components = (
);
contours = (
{
points = (
{
segmentType = curve;
smooth = 1;
x = 542;
y = 1200;
},
{
smooth = 0;
x = 412;
y = 1200;
},
{
smooth = 0;
x = 298;
y = 1173;
},
{
segmentType = curve;
smooth = 0;
x = 176;
y = 1096;
},
{
segmentType = line;
smooth = 0;
x = 126;
y = 1197;
},
{
smooth = 0;
x = 251;
y = 1274;
},
{
smooth = 0;
x = 409;
y = 1308;
},
{
segmentType = curve;
smooth = 1;
x = 533;
y = 1308;
},
{
smooth = 0;
x = 869;
y = 1308;
},
{
smooth = 0;
x = 1087;
y = 1120;
},
{
segmentType = curve;
smooth = 1;
x = 1087;
y = 649;
},
{
smooth = 0;
x = 1087;
y = 195;
},
{
smooth = 0;
x = 870;
y = -10;
},
{
segmentType = curve;
smooth = 1;
x = 566;
y = -10;
},
{
smooth = 0;
x = 276;
y = -10;
},
{
smooth = 0;
x = 102;
y = 198;
},
{
segmentType = curve;
smooth = 1;
x = 102;
y = 507;
},
{
smooth = 0;
x = 102;
y = 547;
},
{
smooth = 0;
x = 106;
y = 607;
},
{
segmentType = curve;
smooth = 0;
x = 112;
y = 684;
},
{
segmentType = line;
smooth = 0;
x = 920;
y = 684;
},
{
smooth = 0;
x = 915;
y = 1109;
},
{
smooth = 0;
x = 733;
y = 1200;
}
);
},
{
points = (
{
segmentType = curve;
smooth = 1;
x = 565;
y = 127;
},
{
smooth = 0;
x = 791;
y = 127;
},
{
smooth = 0;
x = 900;
y = 296;
},
{
segmentType = curve;
smooth = 0;
x = 920;
y = 566;
},
{
segmentType = line;
smooth = 0;
x = 258;
y = 566;
},
{
segmentType = line;
smooth = 1;
x = 258;
y = 501;
},
{
smooth = 0;
x = 258;
y = 274;
},
{
smooth = 0;
x = 375;
y = 127;
}
);
}
);
lib = {
};
name = Schwa;
unicodes = (
);
width = 1203;
};
};
};
},
{
color = 7;
glyphname = T;
layers = (
{
anchors = (
{
name = bottom;
position = "{447, 0}";
},
{
name = cedilla;
position = "{448, 0}";
},
{
name = top_case;
position = "{460, 1284}";
}
);
layerId = "1D628CB9-BBF5-410A-9D74-9E6094BFE839";
paths = (
{
closed = 1;
nodes = (
"511 0 LINE",
"511 1223 LINE",
"466 1178 LINE",
"860 1178 LINE",
"860 1284 LINE",
"39 1284 LINE",
"39 1178 LINE",
"428 1178 LINE",
"383 1223 LINE",
"383 0 LINE"
);
}
);
width = 899;
},
{
anchors = (
{
name = bottom;
position = "{543, -50}";
},
{
name = cedilla;
position = "{555, -16}";
},
{
name = top_case;
position = "{548, 1334}";
}
);
layerId = "D42B5605-DB46-4B3B-8EA0-4CE7066523CE";
paths = (
{
closed = 1;
nodes = (
"709 0 LINE",
"709 1223 LINE",
"564 999 LINE",
"1053 999 LINE",
"1053 1284 LINE",
"37 1284 LINE",
"37 999 LINE",
"526 999 LINE",
"381 1223 LINE",
"381 0 LINE"
);
}
);
width = 1090;
}
);
unicode = 0054;
},
{
glyphname = Tbar;
layers = (
{
layerId = "1D628CB9-BBF5-410A-9D74-9E6094BFE839";
paths = (
{
closed = 1;
nodes = (
"511 0 LINE",
"511 609 LINE",
"720 609 LINE",
"720 715 LINE",
"511 715 LINE",
"511 1178 LINE",
"860 1178 LINE",
"860 1284 LINE",
"39 1284 LINE",
"39 1178 LINE",
"383 1178 LINE",
"383 715 LINE",
"170 715 LINE",
"170 609 LINE",
"383 609 LINE",
"383 0 LINE"
);
}
);
width = 899;
},
{
components = (
{
name = T;
}
);
layerId = "D42B5605-DB46-4B3B-8EA0-4CE7066523CE";
paths = (
{
closed = 1;
nodes = (
"941 519 LINE",
"941 684 LINE",
"150 684 LINE",
"150 519 LINE"
);
}
);
width = 1090;
}
);
unicode = 0166;
},
{
color = 7;
glyphname = U;
layers = (
{
anchors = (
{
name = bottom;
position = "{544, 0}";
},
{
name = ogonek;
position = "{725, 30}";
},
{
name = top;
position = "{544, 1284}";
},
{
name = top_case;
position = "{544, 1284}";
},
{
name = topright;
position = "{960, 974}";
}
);
layerId = "1D628CB9-BBF5-410A-9D74-9E6094BFE839";
paths = (
{
closed = 1;
nodes = (
"930 -16 OFFCURVE",
"960 224 OFFCURVE",
"960 635 CURVE SMOOTH",
"960 1284 LINE",
"832 1284 LINE",
"832 540 LINE SMOOTH",
"832 263 OFFCURVE",
"817 90 OFFCURVE",
"544 90 CURVE SMOOTH",
"271 90 OFFCURVE",
"256 263 OFFCURVE",
"256 540 CURVE SMOOTH",
"256 1284 LINE",
"128 1284 LINE",
"128 635 LINE SMOOTH",
"128 224 OFFCURVE",
"158 -16 OFFCURVE",
"544 -16 CURVE SMOOTH"
);
}
);
width = 1088;
},
{
anchors = (
{
name = bottom;
position = "{611, -50}";
},
{
name = ogonek;
position = "{802, 42}";
},
{
name = top;
position = "{599, 1336}";
},
{
name = top_case;
position = "{609, 1336}";
},
{
name = topright;
position = "{1179, 894}";
}
);
guideLines = (
{
angle = 270;
position = "{609, 645}";
}
);
layerId = "D42B5605-DB46-4B3B-8EA0-4CE7066523CE";
paths = (
{
closed = 1;
nodes = (
"992 -40 OFFCURVE",
"1139 142 OFFCURVE",
"1139 558 CURVE SMOOTH",
"1139 1284 LINE",
"811 1284 LINE",
"811 555 LINE SMOOTH",
"811 334 OFFCURVE",
"781 245 OFFCURVE",
"611 245 CURVE SMOOTH",
"441 245 OFFCURVE",
"411 334 OFFCURVE",
"411 555 CURVE SMOOTH",
"411 1284 LINE",
"83 1284 LINE",
"83 558 LINE SMOOTH",
"83 142 OFFCURVE",
"230 -40 OFFCURVE",
"611 -40 CURVE SMOOTH"
);
}
);
width = 1222;
}
);
unicode = 0055;
},
{
glyphname = Uhorn;
layers = (
{
anchors = (
{
name = bottom;
position = "{544, 0}";
},
{
name = ogonek;
position = "{725, 30}";
},
{
name = top;
position = "{544, 1284}";
},
{
name = top_case;
position = "{544, 1284}";
}
);
components = (
{
name = horncomb;
transform = "{1, 0, 0, 1, 927, -12}";
},
{
name = U;
}
);
layerId = "1D628CB9-BBF5-410A-9D74-9E6094BFE839";
width = 1152;
},
{
anchors = (
{
name = _topright;
position = "{956, 974}";
},
{
name = bottom;
position = "{540, 0}";
},
{
name = ogonek;
position = "{721, 30}";
},
{
name = top_case;
position = "{540, 1284}";
},
{
name = topright;
position = "{956, 974}";
}
);
associatedMasterId = "1D628CB9-BBF5-410A-9D74-9E6094BFE839";
layerId = "F9DD0791-68B1-45D6-AA01-62C5055AAAB5";
name = "Regular Jul 25 16, 11:38";
paths = (
{
closed = 1;
nodes = (
"926 -16 OFFCURVE",
"956 224 OFFCURVE",
"956 635 CURVE SMOOTH",
"956 1284 LINE",
"828 1284 LINE",
"828 540 LINE SMOOTH",
"828 263 OFFCURVE",
"813 96 OFFCURVE",
"540 96 CURVE SMOOTH",
"267 96 OFFCURVE",
"252 263 OFFCURVE",
"252 540 CURVE SMOOTH",
"252 1284 LINE",
"124 1284 LINE",
"124 635 LINE SMOOTH",
"124 224 OFFCURVE",
"154 -16 OFFCURVE",
"540 -16 CURVE SMOOTH"
);
},
{
closed = 1;
nodes = (
"966 1066 LINE SMOOTH",
"1088 1107 OFFCURVE",
"1194 1166 OFFCURVE",
"1194 1291 CURVE SMOOTH",
"1194 1331 OFFCURVE",
"1187 1363 OFFCURVE",
"1177 1389 CURVE",
"1045 1389 LINE",
"1058 1361 OFFCURVE",
"1066 1330 OFFCURVE",
"1066 1299 CURVE SMOOTH",
"1066 1223 OFFCURVE",
"1027 1180 OFFCURVE",
"956 1149 CURVE SMOOTH",
"921 1134 LINE",
"921 1051 LINE"
);
}
);
width = 1080;
},
{
components = (
{
name = U;
},
{
alignment = 1;
name = horncomb;
transform = "{1, 0, 0, 1, 1069, -91}";
}
);
layerId = "D42B5605-DB46-4B3B-8EA0-4CE7066523CE";
width = 1222;
}
);
unicode = 01AF;
userData = {
com.schriftgestaltung.Glyphs.ColorIndex = 7;
};
},
{
color = 7;
glyphname = V;
layers = (
{
anchors = (
{
name = bottom;
position = "{508, 0}";
},
{
name = top;
position = "{508, 1284}";
}
);
layerId = "1D628CB9-BBF5-410A-9D74-9E6094BFE839";
paths = (
{
closed = 1;
nodes = (
"587 0 LINE",
"956 1285 LINE",
"824 1285 LINE",
"501 109 LINE",
"515 109 LINE",
"192 1285 LINE",
"60 1285 LINE",
"429 0 LINE"
);
}
);
width = 1016;
},
{
anchors = (
{
name = bottom;
position = "{611, 0}";
},
{
name = top;
position = "{611, 1284}";
}
);
layerId = "D42B5605-DB46-4B3B-8EA0-4CE7066523CE";
paths = (
{
closed = 1;
nodes = (
"803 0 LINE",
"1199 1284 LINE",
"857 1284 LINE",
"531 115 LINE",
"688 115 LINE",
"357 1285 LINE",
"15 1284 LINE",
"415 0 LINE"
);
}
);
width = 1214;
}
);
unicode = 0056;
},
{
color = 7;
glyphname = W;
layers = (
{
anchors = (
{
name = bottom;
position = "{673, 0}";
},
{
name = top_case;
position = "{673, 1284}";
}
);
layerId = "1D628CB9-BBF5-410A-9D74-9E6094BFE839";
paths = (
{
closed = 1;
nodes = (
"431 0 LINE",
"700 744 LINE",
"669 744 LINE",
"947 0 LINE",
"1089 0 LINE",
"1209 1284 LINE",
"1091 1284 LINE",
"981 138 LINE",
"1000 141 LINE",
"742 846 LINE",
"627 846 LINE",
"379 143 LINE",
"399 140 LINE",
"279 1284 LINE",
"161 1284 LINE",
"290 0 LINE"
);
}
);
width = 1345;
},
{
anchors = (
{
name = bottom;
position = "{764, 0}";
},
{
name = top_case;
position = "{794, 1336}";
}
);
layerId = "D42B5605-DB46-4B3B-8EA0-4CE7066523CE";
paths = (
{
closed = 1;
nodes = (
"210 0 LINE",
"571 0 LINE",
"867 718 LINE",
"712 718 LINE",
"1007 0 LINE",
"1369 0 LINE",
"1498 1284 LINE",
"1175 1284 LINE",
"1091 138 LINE",
"1210 141 LINE",
"917 946 LINE",
"662 946 LINE",
"369 143 LINE",
"489 140 LINE",
"405 1284 LINE",
"82 1284 LINE"
);
}
);
width = 1580;
}
);
unicode = 0057;
},
{
color = 7;
glyphname = X;
layers = (
{
anchors = (
{
name = bottom;
position = "{474, 0}";
},
{
name = top;
position = "{474, 1284}";
}
);
guideLines = (
{
angle = 270;
position = "{476, 837}";
}
);
layerId = "1D628CB9-BBF5-410A-9D74-9E6094BFE839";
paths = (
{
closed = 1;
nodes = (
"186 0 LINE",
"497 609 LINE",
"456 609 LINE",
"761 0 LINE",
"899 0 LINE",
"538 697 LINE",
"539 617 LINE",
"873 1284 LINE",
"735 1284 LINE",
"456 705 LINE",
"496 705 LINE",
"211 1284 LINE",
"73 1284 LINE",
"406 618 LINE",
"407 698 LINE",
"48 0 LINE"
);
}
);
width = 947;
},
{
anchors = (
{
name = bottom;
position = "{561, 0}";
},
{
name = top;
position = "{561, 1284}";
}
);
guideLines = (
{
angle = 243.332;
position = "{904, 951}";
},
{
angle = -62.1423;
position = "{217, 951}";
},
{
angle = -61.3377;
position = "{936, 349}";
},
{
angle = 242.1367;
position = "{200, 349}";
}
);
layerId = "D42B5605-DB46-4B3B-8EA0-4CE7066523CE";
paths = (
{
closed = 1;
nodes = (
"355 0 LINE",
"667 603 LINE",
"470 603 LINE",
"786 0 LINE",
"1126 0 LINE",
"745 691 LINE",
"736 611 LINE",
"1071 1284 LINE",
"731 1284 LINE",
"460 699 LINE",
"676 699 LINE",
"381 1284 LINE",
"41 1284 LINE",
"393 612 LINE",
"384 692 LINE",
"15 0 LINE"
);
}
);
width = 1141;
}
);
unicode = 0058;
},
{
color = 7;
glyphname = Y;
layers = (
{
anchors = (
{
name = bottom;
position = "{457, 0}";
},
{
name = top;
position = "{455, 1284}";
},
{
name = top_case;
position = "{455, 1284}";
},
{
name = topleft;
position = "{14, 1284}";
}
);
layerId = "1D628CB9-BBF5-410A-9D74-9E6094BFE839";
paths = (
{
closed = 1;
nodes = (
"521 0 LINE",
"521 588 LINE",
"895 1284 LINE",
"749 1284 LINE",
"437 664 LINE",
"477 664 LINE",
"161 1284 LINE",
"19 1284 LINE",
"393 586 LINE",
"393 0 LINE"
);
}
);
width = 914;
},
{
anchors = (
{
name = bottom;
position = "{554, -50}";
},
{
name = top;
position = "{552, 1356}";
},
{
name = top_case;
position = "{561, 1336}";
},
{
name = topleft;
position = "{10, 1284}";
}
);
guideLines = (
{
angle = 270;
position = "{553, 1096}";
}
);
layerId = "D42B5605-DB46-4B3B-8EA0-4CE7066523CE";
paths = (
{
closed = 1;
nodes = (
"717 0 LINE",
"717 511 LINE",
"1091 1284 LINE",
"765 1284 LINE",
"516 680 LINE",
"603 680 LINE",
"351 1284 LINE",
"15 1284 LINE",
"389 511 LINE",
"389 0 LINE"
);
}
);
width = 1106;
}
);
unicode = 0059;
},
{
color = 7;
glyphname = Z;
layers = (
{
anchors = (
{
name = bottom;
position = "{468, 0}";
},
{
name = top_case;
position = "{468, 1284}";
}
);
guideLines = (
{
angle = 270;
position = "{845, 598}";
},
{
angle = 270;
position = "{108, 633}";
}
);
layerId = "1D628CB9-BBF5-410A-9D74-9E6094BFE839";
paths = (
{
closed = 1;
nodes = (
"845 0 LINE",
"845 101 LINE",
"201 101 LINE",
"229 60 LINE",
"824 1176 LINE",
"808 1284 LINE",
"139 1284 LINE",
"139 1183 LINE",
"732 1183 LINE",
"704 1224 LINE",
"108 98 LINE",
"129 0 LINE"
);
}
);
width = 935;
},
{
anchors = (
{
name = bottom;
position = "{508, -50}";
},
{
name = top_case;
position = "{533, 1334}";
}
);
guideLines = (
{
angle = -83.9217;
position = "{922, 1475}";
},
{
angle = -83.9217;
position = "{-28, 912}";
},
{
angle = 270;
position = "{985, 598}";
},
{
angle = 270;
position = "{48, 487}";
},
{
angle = 180;
position = "{421, 999}";
}
);
layerId = "D42B5605-DB46-4B3B-8EA0-4CE7066523CE";
paths = (
{
closed = 1;
nodes = (
"985 0 LINE",
"985 285 LINE",
"251 285 LINE",
"364 179 LINE",
"968 1046 LINE",
"942 1284 LINE",
"79 1284 LINE",
"79 999 LINE",
"762 999 LINE",
"653 1110 LINE",
"45 228 LINE",
"69 0 LINE"
);
}
);
width = 1023;
}
);
unicode = 005A;
},
{
color = 7;
glyphname = K.001;
layers = (
{
anchors = (
{
name = bottom;
position = "{520, 0}";
},
{
name = top;
position = "{520, 1284}";
}
);
guideLines = (
{
angle = 270;
position = "{1005, 637}";
}
);
layerId = "1D628CB9-BBF5-410A-9D74-9E6094BFE839";
paths = (
{
closed = 1;
nodes = (
"281 0 LINE",
"281 480 LINE",
"457 652 LINE",
"864 0 LINE",
"1005 0 LINE",
"554 721 LINE",
"979 1284 LINE",
"829 1284 LINE",
"436 778 LINE",
"281 609 LINE",
"281 1284 LINE",
"153 1284 LINE",
"153 0 LINE"
);
}
);
width = 1040;
},
{
guideLines = (
{
angle = 270;
position = "{1199, 520}";
},
{
angle = 121.1332;
position = "{1356, -182}";
}
);
layerId = "D42B5605-DB46-4B3B-8EA0-4CE7066523CE";
paths = (
{
closed = 1;
nodes = (
"420 0 LINE",
"420 505 LINE",
"333 347 LINE",
"608 561 LINE",
"522 584 LINE",
"795 0 LINE",
"1199 0 LINE",
"768 796 LINE",
"757 662 LINE",
"1172 1284 LINE",
"800 1284 LINE",
"517 855 LINE",
"304 633 LINE",
"420 624 LINE",
"420 1284 LINE",
"92 1284 LINE",
"92 0 LINE"
);
}
);
width = 1214;
}
);
userData = {
com.fontlab.hintData = {
hhints = (
{
position = 0;
width = 21;
},
{
position = 1264;
width = 20;
}
);
vhints = (
{
position = 149;
width = 128;
}
);
};
};
},
{
color = 7;
glyphname = Q.001;
layers = (
{
anchors = (
{
name = bottom;
position = "{570, 0}";
},
{
name = top;
position = "{570, 1284}";
}
);
layerId = "1D628CB9-BBF5-410A-9D74-9E6094BFE839";
paths = (
{
closed = 1;
nodes = (
"929 -5 OFFCURVE",
"1016 237 OFFCURVE",
"1016 653 CURVE SMOOTH",
"1016 1070 OFFCURVE",
"917 1306 OFFCURVE",
"568 1306 CURVE SMOOTH",
"219 1306 OFFCURVE",
"120 1070 OFFCURVE",
"120 653 CURVE SMOOTH",
"120 237 OFFCURVE",
"207 -5 OFFCURVE",
"568 -5 CURVE SMOOTH"
);
},
{
closed = 1;
nodes = (
"980 -94 LINE",
"684 361 LINE",
"600 295 LINE",
"896 -159 LINE"
);
},
{
closed = 1;
nodes = (
"318 101 OFFCURVE",
"248 269 OFFCURVE",
"248 650 CURVE SMOOTH",
"248 1035 OFFCURVE",
"321 1200 OFFCURVE",
"568 1200 CURVE SMOOTH",
"815 1200 OFFCURVE",
"888 1035 OFFCURVE",
"888 650 CURVE SMOOTH",
"888 269 OFFCURVE",
"818 101 OFFCURVE",
"568 101 CURVE SMOOTH"
);
}
);
width = 1140;
},
{
layerId = "D42B5605-DB46-4B3B-8EA0-4CE7066523CE";
paths = (
{
closed = 1;
nodes = (
"940 -10 OFFCURVE",
"1122 162 OFFCURVE",
"1122 648 CURVE SMOOTH",
"1122 1135 OFFCURVE",
"928 1301 OFFCURVE",
"589 1301 CURVE SMOOTH",
"250 1301 OFFCURVE",
"56 1135 OFFCURVE",
"56 648 CURVE SMOOTH",
"56 162 OFFCURVE",
"238 -10 OFFCURVE",
"589 -10 CURVE SMOOTH"
);
},
{
closed = 1;
nodes = (
"439 275 OFFCURVE",
"384 364 OFFCURVE",
"384 645 CURVE SMOOTH",
"384 931 OFFCURVE",
"442 1016 OFFCURVE",
"589 1016 CURVE SMOOTH",
"736 1016 OFFCURVE",
"794 931 OFFCURVE",
"794 645 CURVE SMOOTH",
"794 364 OFFCURVE",
"739 275 OFFCURVE",
"589 275 CURVE SMOOTH"
);
},
{
closed = 1;
nodes = (
"698 538 LINE",
"500 393 LINE",
"881 -166 LINE",
"1072 -7 LINE"
);
}
);
width = 1178;
}
);
},
{
color = 7;
glyphname = R.001;
layers = (
{
anchors = (
{
name = bottom;
position = "{531, 0}";
},
{
name = top_case;
position = "{531, 1284}";
}
);
guideLines = (
{
position = "{817, -25}";
},
{
position = "{775, 43}";
},
{
angle = 270;
position = "{1016, 535}";
}
);
layerId = "1D628CB9-BBF5-410A-9D74-9E6094BFE839";
paths = (
{
closed = 1;
nodes = (
"1006 -25 LINE",
"673 591 LINE",
"838 629 OFFCURVE",
"921 722 OFFCURVE",
"921 922 CURVE SMOOTH",
"921 1238 OFFCURVE",
"747 1284 OFFCURVE",
"406 1284 CURVE SMOOTH",
"153 1284 LINE",
"153 0 LINE",
"281 0 LINE",
"281 567 LINE",
"391 567 LINE SMOOTH",
"448 567 OFFCURVE",
"506 569 OFFCURVE",
"554 573 CURVE",
"864 -25 LINE"
);
},
{
closed = 1;
nodes = (
"281 1184 LINE",
"400 1184 LINE SMOOTH",
"660 1184 OFFCURVE",
"793 1166 OFFCURVE",
"793 920 CURVE SMOOTH",
"793 697 OFFCURVE",
"693 662 OFFCURVE",
"368 662 CURVE SMOOTH",
"281 662 LINE"
);
}
);
width = 1061;
},
{
guideLines = (
{
angle = 121.1332;
position = "{1234, -182}";
},
{
angle = 270;
position = "{1174, 535}";
}
);
layerId = "D42B5605-DB46-4B3B-8EA0-4CE7066523CE";
paths = (
{
closed = 1;
nodes = (
"832 546 LINE",
"762 485 LINE",
"934 544 OFFCURVE",
"1042 641 OFFCURVE",
"1042 870 CURVE SMOOTH",
"1042 1170 OFFCURVE",
"878 1284 OFFCURVE",
"618 1284 CURVE SMOOTH",
"92 1284 LINE",
"92 0 LINE",
"420 0 LINE",
"420 551 LINE",
"325 456 LINE",
"615 456 LINE",
"515 479 LINE",
"732 0 LINE",
"1119 0 LINE"
);
},
{
closed = 1;
nodes = (
"325 741 LINE",
"420 646 LINE",
"420 1094 LINE",
"325 999 LINE",
"566 999 LINE SMOOTH",
"648 999 OFFCURVE",
"714 969 OFFCURVE",
"714 876 CURVE SMOOTH",
"714 756 OFFCURVE",
"645 741 OFFCURVE",
"509 741 CURVE SMOOTH"
);
}
);
width = 1129;
}
);
},
{
color = 7;
glyphname = a;
layers = (
{
anchors = (
{
name = bottom;
position = "{481, 0}";
},
{
name = ogonek;
position = "{764, 0}";
},
{
name = top;
position = "{478, 985}";
}
);
guideLines = (
{
position = "{260, 137}";
},
{
position = "{240, 50}";
}
);
layerId = "1D628CB9-BBF5-410A-9D74-9E6094BFE839";
paths = (
{
closed = 1;
nodes = (
"547 -10 OFFCURVE",
"672 45 OFFCURVE",
"711 77 CURVE",
"687 113 LINE",
"718 0 LINE",
"814 0 LINE",
"814 627 LINE SMOOTH",
"814 909 OFFCURVE",
"699 1000 OFFCURVE",
"485 1000 CURVE SMOOTH",
"388 1000 OFFCURVE",
"274 976 OFFCURVE",
"170 942 CURVE",
"195 843 LINE",
"293 875 OFFCURVE",
"397 895 OFFCURVE",
"479 895 CURVE SMOOTH",
"605 895 OFFCURVE",
"686 838 OFFCURVE",
"686 609 CURVE SMOOTH",
"686 508 LINE",
"738 540 LINE",
"638 572 OFFCURVE",
"540 578 OFFCURVE",
"483 577 CURVE SMOOTH",
"212 577 OFFCURVE",
"113 403 OFFCURVE",
"113 269 CURVE SMOOTH",
"113 83 OFFCURVE",
"245 -10 OFFCURVE",
"429 -10 CURVE SMOOTH"
);
},
{
closed = 1;
nodes = (
"317 92 OFFCURVE",
"241 145 OFFCURVE",
"241 278 CURVE SMOOTH",
"241 412 OFFCURVE",
"348 483 OFFCURVE",
"525 483 CURVE SMOOTH",
"578 483 OFFCURVE",
"643 476 OFFCURVE",
"722 444 CURVE",
"686 502 LINE",
"686 112 LINE",
"704 170 LINE",
"654 128 OFFCURVE",
"548 92 OFFCURVE",
"449 92 CURVE SMOOTH"
);
}
);
width = 961;
},
{
anchors = (
{
name = bottom;
position = "{508, -50}";
},
{
name = ogonek;
position = "{828, 5}";
},
{
name = top;
position = "{525, 1055}";
}
);
layerId = "D42B5605-DB46-4B3B-8EA0-4CE7066523CE";
paths = (
{
closed = 1;
nodes = (
"517 -18 OFFCURVE",
"620 38 OFFCURVE",
"701 109 CURVE",
"629 130 LINE",
"675 0 LINE",
"951 0 LINE",
"951 607 LINE SMOOTH",
"951 919 OFFCURVE",
"741 1030 OFFCURVE",
"542 1030 CURVE SMOOTH",
"445 1030 OFFCURVE",
"314 1026 OFFCURVE",
"110 968 CURVE",
"176 722 LINE",
"318 757 OFFCURVE",
"413 763 OFFCURVE",
"476 763 CURVE SMOOTH",
"598 763 OFFCURVE",
"633 717 OFFCURVE",
"633 611 CURVE SMOOTH",
"633 483 LINE",
"685 583 LINE",
"616 609 OFFCURVE",
"557 624 OFFCURVE",
"450 624 CURVE SMOOTH",
"164 624 OFFCURVE",
"45 449 OFFCURVE",
"45 298 CURVE SMOOTH",
"45 89 OFFCURVE",
"194 -18 OFFCURVE",
"405 -18 CURVE SMOOTH"
);
},
{
closed = 1;
nodes = (
"405 212 OFFCURVE",
"365 244 OFFCURVE",
"365 302 CURVE SMOOTH",
"365 346 OFFCURVE",
"399 399 OFFCURVE",
"491 399 CURVE SMOOTH",
"566 399 OFFCURVE",
"608 387 OFFCURVE",
"689 350 CURVE",
"633 477 LINE",
"633 162 LINE",
"681 299 LINE",
"632 255 OFFCURVE",
"554 212 OFFCURVE",
"469 212 CURVE SMOOTH"
);
}
);
width = 1034;
}
);
unicode = 0061;
},
{
color = 6;
glyphname = ae;
layers = (
{
anchors = (
{
name = bottom;
position = "{775, 0}";
},
{
name = ogonek;
position = "{764, 0}";
},
{
name = top;
position = "{775, 985}";
}
);
layerId = "1D628CB9-BBF5-410A-9D74-9E6094BFE839";
paths = (
{
closed = 1;
nodes = (
"607 -10 OFFCURVE",
"736 76 OFFCURVE",
"812 168 CURVE",
"755 234 LINE",
"697 159 OFFCURVE",
"575 92 OFFCURVE",
"449 92 CURVE SMOOTH",
"309 92 OFFCURVE",
"241 153 OFFCURVE",
"241 268 CURVE SMOOTH",
"241 411 OFFCURVE",
"394 469 OFFCURVE",
"591 469 CURVE SMOOTH",
"1435 469 LINE",
"1440 528 OFFCURVE",
"1443 574 OFFCURVE",
"1443 604 CURVE SMOOTH",
"1443 841 OFFCURVE",
"1310 1000 OFFCURVE",
"1088 1000 CURVE SMOOTH",
"920 1000 OFFCURVE",
"787 919 OFFCURVE",
"726 743 CURVE",
"796 771 LINE",
"751 939 OFFCURVE",
"628 1000 OFFCURVE",
"478 1000 CURVE SMOOTH",
"381 1000 OFFCURVE",
"274 976 OFFCURVE",
"170 942 CURVE",
"195 843 LINE",
"293 868 OFFCURVE",
"390 895 OFFCURVE",
"472 895 CURVE SMOOTH",
"598 895 OFFCURVE",
"689 831 OFFCURVE",
"689 599 CURVE SMOOTH",
"689 496 LINE SMOOTH",
"689 134 OFFCURVE",
"856 -10 OFFCURVE",
"1113 -10 CURVE SMOOTH",
"1208 -10 OFFCURVE",
"1329 16 OFFCURVE",
"1425 75 CURVE",
"1386 176 LINE",
"1293 117 OFFCURVE",
"1206 96 OFFCURVE",
"1106 96 CURVE SMOOTH",
"951 96 OFFCURVE",
"816 172 OFFCURVE",
"816 519 CURVE SMOOTH",
"816 750 OFFCURVE",
"906 895 OFFCURVE",
"1089 895 CURVE SMOOTH",
"1234 895 OFFCURVE",
"1324 783 OFFCURVE",
"1324 609 CURVE SMOOTH",
"1324 561 LINE",
"591 562 LINE SMOOTH",
"277 562 OFFCURVE",
"113 459 OFFCURVE",
"113 259 CURVE SMOOTH",
"113 83 OFFCURVE",
"245 -10 OFFCURVE",
"429 -10 CURVE SMOOTH"
);
}
);
width = 1549;
},
{
anchors = (
{
name = bottom;
position = "{771, 0}";
},
{
name = top;
position = "{771, 985}";
}
);
associatedMasterId = "1D628CB9-BBF5-410A-9D74-9E6094BFE839";
layerId = "5E165179-021E-4BCF-A508-2B1321AC368B";
name = "Regular Jul 6 16, 13:18";
paths = (
{
closed = 1;
nodes = (
"166 942 LINE",
"270 976 OFFCURVE",
"377 1000 OFFCURVE",
"474 1000 CURVE SMOOTH",
"599 1000 OFFCURVE",
"726 944 OFFCURVE",
"762 789 CURVE",
"829 941 OFFCURVE",
"950 1000 OFFCURVE",
"1087 1000 CURVE SMOOTH",
"1290 1000 OFFCURVE",
"1429 844 OFFCURVE",
"1429 707 CURVE SMOOTH",
"1429 581 OFFCURVE",
"1341 469 OFFCURVE",
"1128 469 CURVE SMOOTH",
"813 469 LINE",
"817 162 OFFCURVE",
"956 96 OFFCURVE",
"1102 96 CURVE SMOOTH",
"1202 96 OFFCURVE",
"1289 117 OFFCURVE",
"1382 176 CURVE",
"1421 75 LINE",
"1325 16 OFFCURVE",
"1204 -10 OFFCURVE",
"1109 -10 CURVE SMOOTH",
"960 -10 OFFCURVE",
"842 38 OFFCURVE",
"768 149 CURVE",
"710 64 OFFCURVE",
"625 -10 OFFCURVE",
"425 -10 CURVE SMOOTH",
"241 -10 OFFCURVE",
"109 85 OFFCURVE",
"109 284 CURVE SMOOTH",
"109 429 OFFCURVE",
"223 567 OFFCURVE",
"597 567 CURVE SMOOTH",
"685 567 LINE",
"685 599 LINE SMOOTH",
"684 831 OFFCURVE",
"594 895 OFFCURVE",
"468 895 CURVE SMOOTH",
"386 895 OFFCURVE",
"289 868 OFFCURVE",
"191 843 CURVE"
);
},
{
closed = 1;
nodes = (
"229 278 CURVE SMOOTH",
"229 153 OFFCURVE",
"305 92 OFFCURVE",
"445 92 CURVE SMOOTH",
"551 92 OFFCURVE",
"627 113 OFFCURVE",
"732 216 CURVE",
"703 284 OFFCURVE",
"687 369 OFFCURVE",
"685 472 CURVE",
"685 473 LINE",
"629 473 LINE SMOOTH",
"462 473 OFFCURVE",
"229 455 OFFCURVE"
);
},
{
closed = 1;
nodes = (
"813 559 CURVE",
"1126 559 LINE SMOOTH",
"1261 559 OFFCURVE",
"1321 630 OFFCURVE",
"1321 707 CURVE SMOOTH",
"1321 798 OFFCURVE",
"1238 896 OFFCURVE",
"1099 896 CURVE SMOOTH",
"917 896 OFFCURVE",
"829 767 OFFCURVE"
);
}
);
width = 1541;
},
{
layerId = "D42B5605-DB46-4B3B-8EA0-4CE7066523CE";
paths = (
{
closed = 1;
nodes = (
"607 -39 OFFCURVE",
"709 -8 OFFCURVE",
"860 114 CURVE",
"769 309 LINE",
"711 244 OFFCURVE",
"624 191 OFFCURVE",
"539 191 CURVE SMOOTH",
"468 191 OFFCURVE",
"430 229 OFFCURVE",
"430 282 CURVE SMOOTH",
"430 334 OFFCURVE",
"459 386 OFFCURVE",
"602 386 CURVE SMOOTH",
"1596 386 LINE",
"1605 446 OFFCURVE",
"1606 535 OFFCURVE",
"1606 570 CURVE SMOOTH",
"1606 879 OFFCURVE",
"1422 1030 OFFCURVE",
"1170 1030 CURVE SMOOTH",
"928 1030 OFFCURVE",
"807 909 OFFCURVE",
"736 743 CURVE",
"952 746 LINE",
"907 914 OFFCURVE",
"801 1030 OFFCURVE",
"602 1030 CURVE SMOOTH",
"505 1030 OFFCURVE",
"374 1026 OFFCURVE",
"170 968 CURVE",
"236 722 LINE",
"378 757 OFFCURVE",
"473 763 OFFCURVE",
"536 763 CURVE SMOOTH",
"662 763 OFFCURVE",
"689 649 OFFCURVE",
"689 599 CURVE SMOOTH",
"689 496 LINE SMOOTH",
"689 96 OFFCURVE",
"933 -40 OFFCURVE",
"1190 -40 CURVE SMOOTH",
"1360 -40 OFFCURVE",
"1504 3 OFFCURVE",
"1620 66 CURVE",
"1512 275 LINE",
"1379 217 OFFCURVE",
"1275 208 OFFCURVE",
"1225 208 CURVE SMOOTH",
"1121 208 OFFCURVE",
"985 243 OFFCURVE",
"1014 507 CURVE",
"996 744 OFFCURVE",
"1071 785 OFFCURVE",
"1158 785 CURVE SMOOTH",
"1240 785 OFFCURVE",
"1290 728 OFFCURVE",
"1290 609 CURVE",
"1290 586 LINE",
"577 587 LINE SMOOTH",
"237 587 OFFCURVE",
"115 436 OFFCURVE",
"115 268 CURVE SMOOTH",
"115 74 OFFCURVE",
"254 -39 OFFCURVE",
"465 -39 CURVE SMOOTH"
);
}
);
width = 1624;
}
);
unicode = 00E6;
userData = {
com.typemytype.robofont.layerData = {
"Regular Jul 6 16, 13:18" = {
anchors = (
{
name = top;
x = 771;
y = 985;
},
{
name = bottom;
x = 771;
y = 0;
}
);
components = (
);
contours = (
{
points = (
{
segmentType = line;
smooth = 0;
x = 166;
y = 942;
},
{
smooth = 0;
x = 270;
y = 976;
},
{
smooth = 0;
x = 377;
y = 1000;
},
{
segmentType = curve;
smooth = 1;
x = 474;
y = 1000;
},
{
smooth = 0;
x = 599;
y = 1000;
},
{
smooth = 0;
x = 726;
y = 944;
},
{
segmentType = curve;
smooth = 0;
x = 762;
y = 789;
},
{
smooth = 0;
x = 829;
y = 941;
},
{
smooth = 0;
x = 950;
y = 1000;
},
{
segmentType = curve;
smooth = 1;
x = 1087;
y = 1000;
},
{
smooth = 0;
x = 1290;
y = 1000;
},
{
smooth = 0;
x = 1429;
y = 844;
},
{
segmentType = curve;
smooth = 1;
x = 1429;
y = 707;
},
{
smooth = 0;
x = 1429;
y = 581;
},
{
smooth = 0;
x = 1341;
y = 469;
},
{
segmentType = curve;
smooth = 1;
x = 1128;
y = 469;
},
{
segmentType = line;
smooth = 0;
x = 813;
y = 469;
},
{
smooth = 0;
x = 817;
y = 162;
},
{
smooth = 0;
x = 956;
y = 96;
},
{
segmentType = curve;
smooth = 1;
x = 1102;
y = 96;
},
{
smooth = 0;
x = 1202;
y = 96;
},
{
smooth = 0;
x = 1289;
y = 117;
},
{
segmentType = curve;
smooth = 0;
x = 1382;
y = 176;
},
{
segmentType = line;
smooth = 0;
x = 1421;
y = 75;
},
{
smooth = 0;
x = 1325;
y = 16;
},
{
smooth = 0;
x = 1204;
y = -10;
},
{
segmentType = curve;
smooth = 1;
x = 1109;
y = -10;
},
{
smooth = 0;
x = 960;
y = -10;
},
{
smooth = 0;
x = 842;
y = 38;
},
{
segmentType = curve;
smooth = 0;
x = 768;
y = 149;
},
{
smooth = 0;
x = 710;
y = 64;
},
{
smooth = 0;
x = 625;
y = -10;
},
{
segmentType = curve;
smooth = 1;
x = 425;
y = -10;
},
{
smooth = 0;
x = 241;
y = -10;
},
{
smooth = 0;
x = 109;
y = 85;
},
{
segmentType = curve;
smooth = 1;
x = 109;
y = 284;
},
{
smooth = 0;
x = 109;
y = 429;
},
{
smooth = 0;
x = 223;
y = 567;
},
{
segmentType = curve;
smooth = 1;
x = 597;
y = 567;
},
{
segmentType = line;
smooth = 0;
x = 685;
y = 567;
},
{
segmentType = line;
smooth = 1;
x = 685;
y = 599;
},
{
smooth = 0;
x = 684;
y = 831;
},
{
smooth = 0;
x = 594;
y = 895;
},
{
segmentType = curve;
smooth = 1;
x = 468;
y = 895;
},
{
smooth = 0;
x = 386;
y = 895;
},
{
smooth = 0;
x = 289;
y = 868;
},
{
segmentType = curve;
smooth = 0;
x = 191;
y = 843;
}
);
},
{
points = (
{
segmentType = curve;
smooth = 1;
x = 229;
y = 278;
},
{
smooth = 0;
x = 229;
y = 153;
},
{
smooth = 0;
x = 305;
y = 92;
},
{
segmentType = curve;
smooth = 1;
x = 445;
y = 92;
},
{
smooth = 0;
x = 551;
y = 92;
},
{
smooth = 0;
x = 627;
y = 113;
},
{
segmentType = curve;
smooth = 0;
x = 732;
y = 216;
},
{
smooth = 0;
x = 703;
y = 284;
},
{
smooth = 0;
x = 687;
y = 369;
},
{
segmentType = curve;
smooth = 0;
x = 685;
y = 472;
},
{
segmentType = line;
smooth = 0;
x = 685;
y = 473;
},
{
segmentType = line;
smooth = 1;
x = 629;
y = 473;
},
{
smooth = 0;
x = 462;
y = 473;
},
{
smooth = 0;
x = 229;
y = 455;
}
);
},
{
points = (
{
segmentType = curve;
smooth = 0;
x = 813;
y = 559;
},
{
segmentType = line;
smooth = 1;
x = 1126;
y = 559;
},
{
smooth = 0;
x = 1261;
y = 559;
},
{
smooth = 0;
x = 1321;
y = 630;
},
{
segmentType = curve;
smooth = 1;
x = 1321;
y = 707;
},
{
smooth = 0;
x = 1321;
y = 798;
},
{
smooth = 0;
x = 1238;
y = 896;
},
{
segmentType = curve;
smooth = 1;
x = 1099;
y = 896;
},
{
smooth = 0;
x = 917;
y = 896;
},
{
smooth = 0;
x = 829;
y = 767;
}
);
}
);
lib = {
};
name = ae;
unicodes = (
);
width = 1541;
};
};
};
},
{
color = 7;
glyphname = b;
layers = (
{
anchors = (
{
name = bottom;
position = "{496, 0}";
},
{
name = top_case;
position = "{208, 1358}";
}
);
guideLines = (
{
position = "{118, 144}";
},
{
position = "{240, 50}";
}
);
layerId = "1D628CB9-BBF5-410A-9D74-9E6094BFE839";
paths = (
{
closed = 1;
nodes = (
"751 -10 OFFCURVE",
"880 126 OFFCURVE",
"880 493 CURVE SMOOTH",
"880 852 OFFCURVE",
"744 1000 OFFCURVE",
"544 1000 CURVE SMOOTH",
"451 1000 OFFCURVE",
"356 978 OFFCURVE",
"239 897 CURVE",
"272 878 LINE",
"272 1358 LINE",
"144 1358 LINE",
"144 0 LINE",
"240 0 LINE",
"273 92 LINE",
"231 66 LINE",
"317 10 OFFCURVE",
"431 -10 OFFCURVE",
"514 -10 CURVE SMOOTH"
);
},
{
closed = 1;
nodes = (
"389 95 OFFCURVE",
"334 112 OFFCURVE",
"241 160 CURVE",
"272 92 LINE",
"272 854 LINE",
"235 787 LINE",
"364 867 OFFCURVE",
"453 895 OFFCURVE",
"528 895 CURVE SMOOTH",
"685 895 OFFCURVE",
"752 767 OFFCURVE",
"752 491 CURVE SMOOTH",
"752 201 OFFCURVE",
"676 95 OFFCURVE",
"496 95 CURVE SMOOTH"
);
}
);
width = 992;
},
{
anchors = (
{
name = bottom;
position = "{654, -10}";
},
{
name = top_case;
position = "{244, 1408}";
}
);
layerId = "D42B5605-DB46-4B3B-8EA0-4CE7066523CE";
paths = (
{
closed = 1;
nodes = (
"843 -10 OFFCURVE",
"1065 74 OFFCURVE",
"1065 503 CURVE SMOOTH",
"1065 947 OFFCURVE",
"856 1030 OFFCURVE",
"662 1030 CURVE SMOOTH",
"544 1030 OFFCURVE",
"475 1003 OFFCURVE",
"411 976 CURVE",
"411 1358 LINE",
"83 1358 LINE",
"83 0 LINE",
"377 0 LINE",
"397 60 LINE",
"458 29 OFFCURVE",
"544 -10 OFFCURVE",
"658 -10 CURVE SMOOTH"
);
},
{
closed = 1;
nodes = (
"503 272 OFFCURVE",
"421 290 OFFCURVE",
"272 394 CURVE",
"411 142 LINE",
"411 884 LINE",
"271 590 LINE",
"424 721 OFFCURVE",
"509 745 OFFCURVE",
"577 745 CURVE SMOOTH",
"677 745 OFFCURVE",
"737 700 OFFCURVE",
"737 506 CURVE SMOOTH",
"737 337 OFFCURVE",
"683 272 OFFCURVE",
"577 272 CURVE SMOOTH"
);
}
);
width = 1148;
}
);
unicode = 0062;
userData = {
com.fontlab.hintData = {
hhints = (
{
position = -10;
width = 106;
},
{
position = 895;
width = 105;
},
{
position = 1338;
width = 20;
}
);
vhints = (
{
position = 140;
width = 128;
},
{
position = 140;
width = 104;
},
{
position = 748;
width = 128;
}
);
};
};
},
{
color = 7;
glyphname = c;
layers = (
{
anchors = (
{
name = bottom;
position = "{438, 0}";
},
{
name = cedilla;
position = "{479, 0}";
},
{
name = top;
position = "{502, 985}";
}
);
guideLines = (
{
angle = 270;
position = "{501, 516}";
},
{
angle = 270;
position = "{765, 512}";
}
);
layerId = "1D628CB9-BBF5-410A-9D74-9E6094BFE839";
paths = (
{
closed = 1;
nodes = (
"619 -10 OFFCURVE",
"711 20 OFFCURVE",
"804 70 CURVE",
"756 161 LINE",
"672 122 OFFCURVE",
"603 95 OFFCURVE",
"530 95 CURVE SMOOTH",
"329 95 OFFCURVE",
"242 215 OFFCURVE",
"242 493 CURVE SMOOTH",
"242 732 OFFCURVE",
"296 895 OFFCURVE",
"500 895 CURVE SMOOTH",
"567 895 OFFCURVE",
"632 887 OFFCURVE",
"690 857 CURVE",
"663 914 LINE",
"663 672 LINE",
"765 682 LINE",
"765 940 LINE",
"680 980 OFFCURVE",
"593 1000 OFFCURVE",
"502 1000 CURVE SMOOTH",
"241 1000 OFFCURVE",
"114 831 OFFCURVE",
"114 495 CURVE SMOOTH",
"114 140 OFFCURVE",
"263 -10 OFFCURVE",
"516 -10 CURVE SMOOTH"
);
}
);
width = 876;
},
{
anchors = (
{
name = bottom;
position = "{430, 0}";
},
{
name = cedilla;
position = "{496, 0}";
},
{
name = top;
position = "{494, 1035}";
}
);
guideLines = (
{
angle = 270;
position = "{514, 512}";
},
{
angle = 270;
position = "{907, 512}";
}
);
layerId = "D42B5605-DB46-4B3B-8EA0-4CE7066523CE";
paths = (
{
closed = 1;
nodes = (
"654 -40 OFFCURVE",
"823 6 OFFCURVE",
"948 75 CURVE",
"832 318 LINE",
"707 263 OFFCURVE",
"632 245 OFFCURVE",
"542 245 CURVE SMOOTH",
"424 245 OFFCURVE",
"364 302 OFFCURVE",
"364 493 CURVE SMOOTH",
"364 695 OFFCURVE",
"418 745 OFFCURVE",
"525 745 CURVE SMOOTH",
"592 745 OFFCURVE",
"684 705 OFFCURVE",
"742 677 CURVE",
"625 934 LINE",
"625 572 LINE",
"907 602 LINE",
"907 940 LINE",
"812 980 OFFCURVE",
"650 1030 OFFCURVE",
"525 1030 CURVE SMOOTH",
"186 1030 OFFCURVE",
"36 886 OFFCURVE",
"36 495 CURVE SMOOTH",
"36 112 OFFCURVE",
"188 -40 OFFCURVE",
"525 -40 CURVE SMOOTH"
);
}
);
width = 1001;
}
);
unicode = 0063;
},
{
color = 7;
glyphname = d;
layers = (
{
anchors = (
{
name = bottom;
position = "{509, 0}";
},
{
name = center;
position = "{509, 493}";
},
{
name = top_case;
position = "{810, 1358}";
},
{
name = topright;
position = "{971, 1358}";
}
);
layerId = "1D628CB9-BBF5-410A-9D74-9E6094BFE839";
paths = (
{
closed = 1;
nodes = (
"602 -10 OFFCURVE",
"698 10 OFFCURVE",
"789 67 CURVE",
"753 86 LINE",
"770 0 LINE",
"874 0 LINE",
"874 1358 LINE",
"746 1358 LINE",
"746 878 LINE",
"781 900 LINE",
"660 983 OFFCURVE",
"581 1000 OFFCURVE",
"488 1000 CURVE SMOOTH",
"288 1000 OFFCURVE",
"112 852 OFFCURVE",
"112 493 CURVE SMOOTH",
"112 126 OFFCURVE",
"281 -10 OFFCURVE",
"518 -10 CURVE SMOOTH"
);
},
{
closed = 1;
nodes = (
"356 95 OFFCURVE",
"240 186 OFFCURVE",
"240 491 CURVE SMOOTH",
"240 767 OFFCURVE",
"358 895 OFFCURVE",
"504 895 CURVE SMOOTH",
"580 895 OFFCURVE",
"652 878 OFFCURVE",
"786 786 CURVE",
"746 854 LINE",
"746 102 LINE",
"780 161 LINE",
"682 112 OFFCURVE",
"636 95 OFFCURVE",
"536 95 CURVE SMOOTH"
);
}
);
width = 1018;
},
{
anchors = (
{
name = bottom;
position = "{593, -50}";
},
{
name = center;
position = "{563, 493}";
},
{
name = top_case;
position = "{874, 1408}";
},
{
name = topright;
position = "{1135, 1358}";
}
);
guideLines = (
{
angle = -72.5632;
position = "{465, 0}";
},
{
position = "{-22, 262}";
},
{
position = "{495, 669}";
},
{
position = "{-30, 51}";
}
);
layerId = "D42B5605-DB46-4B3B-8EA0-4CE7066523CE";
paths = (
{
closed = 1;
nodes = (
"575 -10 OFFCURVE",
"662 24 OFFCURVE",
"723 55 CURVE",
"744 0 LINE",
"1038 0 LINE",
"1038 1358 LINE",
"710 1358 LINE",
"710 976 LINE",
"646 1003 OFFCURVE",
"575 1030 OFFCURVE",
"457 1030 CURVE SMOOTH",
"263 1030 OFFCURVE",
"56 947 OFFCURVE",
"56 503 CURVE SMOOTH",
"56 74 OFFCURVE",
"286 -10 OFFCURVE",
"461 -10 CURVE SMOOTH"
);
},
{
closed = 1;
nodes = (
"444 272 OFFCURVE",
"384 337 OFFCURVE",
"384 506 CURVE SMOOTH",
"384 699 OFFCURVE",
"442 745 OFFCURVE",
"542 745 CURVE SMOOTH",
"610 745 OFFCURVE",
"697 721 OFFCURVE",
"850 590 CURVE",
"710 884 LINE",
"710 142 LINE",
"849 394 LINE",
"700 290 OFFCURVE",
"616 272 OFFCURVE",
"542 272 CURVE SMOOTH"
);
}
);
width = 1121;
}
);
unicode = 0064;
},
{
color = 6;
glyphname = eth;
layers = (
{
guideLines = (
{
angle = 229.7501;
position = "{544, 1210}";
},
{
angle = 138.8785;
position = "{416, 994}";
}
);
layerId = "1D628CB9-BBF5-410A-9D74-9E6094BFE839";
paths = (
{
closed = 1;
nodes = (
"761 -10 OFFCURVE",
"883 183 OFFCURVE",
"883 544 CURVE SMOOTH",
"883 1043 OFFCURVE",
"746 1273 OFFCURVE",
"249 1351 CURVE",
"228 1245 LINE",
"600 1177 OFFCURVE",
"771 1024 OFFCURVE",
"765 647 CURVE",
"781 689 LINE",
"723 784 OFFCURVE",
"610 844 OFFCURVE",
"479 844 CURVE SMOOTH",
"276 844 OFFCURVE",
"92 711 OFFCURVE",
"92 414 CURVE SMOOTH",
"92 121 OFFCURVE",
"257 -10 OFFCURVE",
"489 -10 CURVE SMOOTH"
);
},
{
closed = 1;
nodes = (
"326 95 OFFCURVE",
"220 170 OFFCURVE",
"220 415 CURVE SMOOTH",
"220 641 OFFCURVE",
"330 739 OFFCURVE",
"473 739 CURVE SMOOTH",
"587 739 OFFCURVE",
"755 680 OFFCURVE",
"755 450 CURVE SMOOTH",
"755 203 OFFCURVE",
"659 95 OFFCURVE",
"494 95 CURVE SMOOTH"
);
},
{
closed = 1;
nodes = (
"768 1345 LINE",
"704 1399 LINE",
"384 1021 LINE",
"447 966 LINE"
);
}
);
width = 1006;
},
{
guideLines = (
{
angle = 229.7501;
position = "{544, 1210}";
}
);
layerId = "D42B5605-DB46-4B3B-8EA0-4CE7066523CE";
paths = (
{
closed = 1;
nodes = (
"828 -40 OFFCURVE",
"1007 143 OFFCURVE",
"1007 554 CURVE SMOOTH",
"1007 1083 OFFCURVE",
"772 1297 OFFCURVE",
"333 1381 CURVE",
"263 1118 LINE",
"480 1064 OFFCURVE",
"674 1007 OFFCURVE",
"719 742 CURVE",
"658 797 OFFCURVE",
"553 834 OFFCURVE",
"453 834 CURVE SMOOTH",
"250 834 OFFCURVE",
"56 711 OFFCURVE",
"56 394 CURVE SMOOTH",
"56 71 OFFCURVE",
"281 -40 OFFCURVE",
"523 -40 CURVE SMOOTH"
);
},
{
closed = 1;
nodes = (
"446 225 OFFCURVE",
"384 276 OFFCURVE",
"384 400 CURVE SMOOTH",
"384 514 OFFCURVE",
"439 569 OFFCURVE",
"522 569 CURVE SMOOTH",
"610 569 OFFCURVE",
"676 514 OFFCURVE",
"676 399 CURVE SMOOTH",
"676 261 OFFCURVE",
"612 225 OFFCURVE",
"524 225 CURVE SMOOTH"
);
},
{
closed = 1;
nodes = (
"364 951 LINE",
"453 874 LINE",
"850 1345 LINE",
"759 1417 LINE"
);
}
);
width = 1100;
}
);
unicode = 00F0;
},
{
glyphname = dcroat;
layers = (
{
layerId = "1D628CB9-BBF5-410A-9D74-9E6094BFE839";
paths = (
{
closed = 1;
nodes = (
"593 -10 OFFCURVE",
"678 6 OFFCURVE",
"760 50 CURVE",
"770 0 LINE",
"874 0 LINE",
"874 1107 LINE",
"1014 1107 LINE",
"1014 1195 LINE",
"874 1195 LINE",
"874 1358 LINE",
"746 1358 LINE",
"746 1195 LINE",
"534 1195 LINE",
"534 1107 LINE",
"746 1107 LINE",
"746 923 LINE",
"644 986 OFFCURVE",
"572 1000 OFFCURVE",
"488 1000 CURVE SMOOTH",
"288 1000 OFFCURVE",
"112 852 OFFCURVE",
"112 493 CURVE SMOOTH",
"112 126 OFFCURVE",
"281 -10 OFFCURVE",
"518 -10 CURVE SMOOTH"
);
},
{
closed = 1;
nodes = (
"356 96 OFFCURVE",
"240 206 OFFCURVE",
"240 491 CURVE SMOOTH",
"240 767 OFFCURVE",
"347 895 OFFCURVE",
"504 895 CURVE SMOOTH",
"572 895 OFFCURVE",
"637 872 OFFCURVE",
"746 809 CURVE",
"746 137 LINE",
"664 99 OFFCURVE",
"616 96 OFFCURVE",
"564 96 CURVE SMOOTH",
"536 96 LINE SMOOTH"
);
}
);
width = 1018;
},
{
anchors = (
{
name = bottom;
position = "{593, -50}";
},
{
name = center;
position = "{563, 493}";
},
{
name = top_case;
position = "{874, 1408}";
},
{
name = topright;
position = "{1185, 1358}";
}
);
layerId = "D42B5605-DB46-4B3B-8EA0-4CE7066523CE";
paths = (
{
closed = 1;
nodes = (
"1038 1255 LINE",
"1038 1358 LINE",
"710 1358 LINE",
"710 1255 LINE",
"510 1255 LINE",
"510 1100 LINE",
"710 1100 LINE",
"710 976 LINE",
"646 1003 OFFCURVE",
"575 1030 OFFCURVE",
"457 1030 CURVE SMOOTH",
"263 1030 OFFCURVE",
"56 947 OFFCURVE",
"56 503 CURVE SMOOTH",
"56 74 OFFCURVE",
"286 -10 OFFCURVE",
"461 -10 CURVE SMOOTH",
"575 -10 OFFCURVE",
"662 24 OFFCURVE",
"723 55 CURVE",
"744 0 LINE",
"1038 0 LINE",
"1038 1100 LINE",
"1158 1100 LINE",
"1158 1255 LINE"
);
},
{
closed = 1;
nodes = (
"384 699 OFFCURVE",
"442 745 OFFCURVE",
"542 745 CURVE SMOOTH",
"586 745 OFFCURVE",
"638 735 OFFCURVE",
"710 693 CURVE",
"710 312 LINE",
"640 279 OFFCURVE",
"589 272 OFFCURVE",
"542 272 CURVE SMOOTH",
"444 272 OFFCURVE",
"384 337 OFFCURVE",
"384 506 CURVE SMOOTH"
);
}
);
width = 1257;
}
);
unicode = 0111;
},
{
color = 7;
glyphname = e;
layers = (
{
anchors = (
{
name = bottom;
position = "{507, 0}";
},
{
name = cedilla;
position = "{495, 0}";
},
{
name = ogonek;
position = "{771, 60}";
},
{
name = top;
position = "{511, 985}";
}
);
guideLines = (
{
position = "{712, -113}";
}
);
layerId = "1D628CB9-BBF5-410A-9D74-9E6094BFE839";
paths = (
{
closed = 1;
nodes = (
"641 -10 OFFCURVE",
"762 23 OFFCURVE",
"858 80 CURVE",
"804 169 LINE",
"727 122 OFFCURVE",
"639 95 OFFCURVE",
"529 95 CURVE SMOOTH",
"372 95 OFFCURVE",
"229 169 OFFCURVE",
"241 523 CURVE",
"195 469 LINE",
"858 469 LINE",
"863 528 OFFCURVE",
"866 574 OFFCURVE",
"866 604 CURVE SMOOTH",
"866 841 OFFCURVE",
"733 1000 OFFCURVE",
"511 1000 CURVE SMOOTH",
"278 1000 OFFCURVE",
"112 843 OFFCURVE",
"112 496 CURVE SMOOTH",
"112 134 OFFCURVE",
"279 -10 OFFCURVE",
"536 -10 CURVE SMOOTH"
);
},
{
closed = 1;
nodes = (
"228 750 OFFCURVE",
"328 895 OFFCURVE",
"512 895 CURVE SMOOTH",
"672 895 OFFCURVE",
"757 767 OFFCURVE",
"746 570 CURVE",
"746 514 LINE",
"792 559 LINE",
"195 559 LINE",
"241 520 LINE"
);
}
);
width = 972;
},
{
anchors = (
{
name = bottom;
position = "{531, -50}";
},
{
name = cedilla;
position = "{530, -1}";
},
{
name = ogonek;
position = "{869, 71}";
},
{
name = top;
position = "{530, 1055}";
}
);
guideLines = (
{
angle = -58.7439;
position = "{590, 28}";
},
{
position = "{886, -148}";
}
);
layerId = "D42B5605-DB46-4B3B-8EA0-4CE7066523CE";
paths = (
{
closed = 1;
nodes = (
"730 -40 OFFCURVE",
"874 3 OFFCURVE",
"990 66 CURVE",
"882 275 LINE",
"749 217 OFFCURVE",
"645 208 OFFCURVE",
"595 208 CURVE SMOOTH",
"491 208 OFFCURVE",
"363 250 OFFCURVE",
"384 460 CURVE",
"269 386 LINE",
"966 386 LINE",
"975 446 OFFCURVE",
"976 535 OFFCURVE",
"976 570 CURVE SMOOTH",
"976 879 OFFCURVE",
"792 1030 OFFCURVE",
"540 1030 CURVE SMOOTH",
"288 1030 OFFCURVE",
"56 907 OFFCURVE",
"56 496 CURVE SMOOTH",
"56 96 OFFCURVE",
"300 -40 OFFCURVE",
"560 -40 CURVE SMOOTH"
);
},
{
closed = 1;
nodes = (
"366 744 OFFCURVE",
"441 785 OFFCURVE",
"528 785 CURVE SMOOTH",
"610 785 OFFCURVE",
"672 730 OFFCURVE",
"657 555 CURVE",
"658 431 LINE",
"746 586 LINE",
"269 586 LINE",
"384 507 LINE"
);
}
);
width = 1047;
}
);
unicode = 0065;
userData = {
com.fontlab.hintData = {
hhints = (
{
position = -10;
width = 106;
},
{
position = 469;
width = 90;
},
{
position = 895;
width = 105;
}
);
vhints = (
{
position = 108;
width = 128;
},
{
position = 743;
width = 119;
}
);
};
};
},
{
glyphname = schwa;
layers = (
{
layerId = "1D628CB9-BBF5-410A-9D74-9E6094BFE839";
paths = (
{
closed = 1;
nodes = (
"332 1000 OFFCURVE",
"211 967 OFFCURVE",
"115 910 CURVE",
"169 821 LINE",
"246 868 OFFCURVE",
"334 895 OFFCURVE",
"444 895 CURVE SMOOTH",
"601 895 OFFCURVE",
"744 821 OFFCURVE",
"732 467 CURVE",
"778 521 LINE",
"115 521 LINE",
"110 462 OFFCURVE",
"107 416 OFFCURVE",
"107 386 CURVE SMOOTH",
"107 149 OFFCURVE",
"240 -10 OFFCURVE",
"462 -10 CURVE SMOOTH",
"695 -10 OFFCURVE",
"861 147 OFFCURVE",
"861 494 CURVE SMOOTH",
"861 856 OFFCURVE",
"694 1000 OFFCURVE",
"437 1000 CURVE SMOOTH"
);
},
{
closed = 1;
nodes = (
"745 240 OFFCURVE",
"645 95 OFFCURVE",
"461 95 CURVE SMOOTH",
"301 95 OFFCURVE",
"216 223 OFFCURVE",
"227 420 CURVE",
"227 476 LINE",
"181 431 LINE",
"778 431 LINE",
"732 470 LINE"
);
}
);
width = 972;
},
{
components = (
{
name = e;
transform = "{-1, 0, 0, -1, 1047, 985}";
}
);
layerId = "D42B5605-DB46-4B3B-8EA0-4CE7066523CE";
width = 1047;
}
);
unicode = 0259;
userData = {
com.schriftgestaltung.Glyphs.leftMetricsKey = "=|e";
com.schriftgestaltung.Glyphs.rightMetricsKey = "=|e";
};
},
{
color = 7;
glyphname = f;
layers = (
{
anchors = (
{
name = bottom;
position = "{347, 0}";
},
{
name = top_case;
position = "{487, 1358}";
}
);
layerId = "1D628CB9-BBF5-410A-9D74-9E6094BFE839";
paths = (
{
closed = 1;
nodes = (
"386 0 LINE",
"386 932 LINE",
"341 887 LINE",
"620 887 LINE",
"620 985 LINE",
"341 985 LINE",
"387 921 LINE",
"380 1224 OFFCURVE",
"420 1269 OFFCURVE",
"545 1269 CURVE SMOOTH",
"583 1269 OFFCURVE",
"664 1254 OFFCURVE",
"686 1248 CURVE",
"702 1348 LINE",
"635 1371 OFFCURVE",
"573 1374 OFFCURVE",
"517 1374 CURVE SMOOTH",
"307 1374 OFFCURVE",
"254 1238 OFFCURVE",
"258 937 CURVE",
"303 985 LINE",
"91 985 LINE",
"91 887 LINE",
"303 887 LINE",
"258 932 LINE",
"258 0 LINE"
);
}
);
width = 694;
},
{
anchors = (
{
name = bottom;
position = "{359, 0}";
},
{
name = top_case;
position = "{532, 1408}";
}
);
layerId = "D42B5605-DB46-4B3B-8EA0-4CE7066523CE";
paths = (
{
closed = 1;
nodes = (
"528 0 LINE",
"528 817 LINE",
"383 687 LINE",
"782 687 LINE",
"782 985 LINE",
"383 985 LINE",
"529 928 LINE",
"509 1093 OFFCURVE",
"552 1119 OFFCURVE",
"640 1119 CURVE SMOOTH",
"684 1119 OFFCURVE",
"790 1106 OFFCURVE",
"845 1095 CURVE",
"883 1361 LINE",
"815 1379 OFFCURVE",
"665 1397 OFFCURVE",
"599 1397 CURVE SMOOTH",
"310 1397 OFFCURVE",
"200 1276 OFFCURVE",
"200 918 CURVE",
"345 985 LINE",
"25 985 LINE",
"25 687 LINE",
"345 687 LINE",
"200 832 LINE",
"200 0 LINE"
);
}
);
width = 874;
}
);
unicode = 0066;
},
{
color = 7;
glyphname = g;
layers = (
{
anchors = (
{
name = bottom;
position = "{550, 0}";
},
{
name = top;
position = "{543, 985}";
}
);
guideLines = (
{
position = "{450, 685}";
},
{
position = "{461, 811}";
},
{
position = "{415, 554}";
},
{
position = "{478, 1476}";
}
);
layerId = "1D628CB9-BBF5-410A-9D74-9E6094BFE839";
paths = (
{
closed = 1;
nodes = (
"873 -320 OFFCURVE",
"959 -148 OFFCURVE",
"959 -21 CURVE SMOOTH",
"959 117 OFFCURVE",
"894 185 OFFCURVE",
"676 185 CURVE SMOOTH",
"352 185 LINE",
"304 185 OFFCURVE",
"276 230 OFFCURVE",
"276 284 CURVE SMOOTH",
"276 340 OFFCURVE",
"325 403 OFFCURVE",
"361 431 CURVE",
"312 420 LINE",
"359 397 OFFCURVE",
"427 376 OFFCURVE",
"532 376 CURVE SMOOTH",
"747 376 OFFCURVE",
"903 467 OFFCURVE",
"903 688 CURVE SMOOTH",
"903 772 OFFCURVE",
"881 841 OFFCURVE",
"835 893 CURVE",
"780 876 LINE",
"1033 876 LINE",
"1033 977 LINE",
"746 977 LINE SMOOTH",
"667 977 OFFCURVE",
"650 1000 OFFCURVE",
"532 1000 CURVE SMOOTH",
"318 1000 OFFCURVE",
"160 909 OFFCURVE",
"160 688 CURVE SMOOTH",
"160 560 OFFCURVE",
"208 488 OFFCURVE",
"282 437 CURVE",
"293 497 LINE",
"207 411 OFFCURVE",
"162 350 OFFCURVE",
"162 284 CURVE SMOOTH",
"162 235 OFFCURVE",
"170 177 OFFCURVE",
"233 121 CURVE",
"193 98 OFFCURVE",
"122 10 OFFCURVE",
"122 -73 CURVE SMOOTH",
"122 -174 OFFCURVE",
"186 -320 OFFCURVE",
"519 -320 CURVE SMOOTH"
);
},
{
closed = 1;
nodes = (
"262 -219 OFFCURVE",
"250 -125 OFFCURVE",
"250 -59 CURVE SMOOTH",
"250 13 OFFCURVE",
"297 63 OFFCURVE",
"345 103 CURVE",
"278 84 LINE",
"682 84 LINE SMOOTH",
"809 84 OFFCURVE",
"831 38 OFFCURVE",
"831 -29 CURVE SMOOTH",
"831 -119 OFFCURVE",
"757 -219 OFFCURVE",
"525 -219 CURVE SMOOTH"
);
},
{
closed = 1;
nodes = (
"393 477 OFFCURVE",
"288 539 OFFCURVE",
"288 688 CURVE SMOOTH",
"288 837 OFFCURVE",
"393 899 OFFCURVE",
"532 899 CURVE SMOOTH",
"671 899 OFFCURVE",
"775 837 OFFCURVE",
"775 688 CURVE SMOOTH",
"775 539 OFFCURVE",
"671 477 OFFCURVE",
"532 477 CURVE SMOOTH"
);
}
);
width = 1100;
},
{
anchors = (
{
name = bottom;
position = "{609, 0}";
},
{
name = top;
position = "{602, 1035}";
}
);
guideLines = (
{
angle = 270;
position = "{99, 1035}";
},
{
angle = 270;
position = "{1110, 501}";
}
);
layerId = "D42B5605-DB46-4B3B-8EA0-4CE7066523CE";
paths = (
{
closed = 1;
nodes = (
"924 -412 OFFCURVE",
"1108 -238 OFFCURVE",
"1108 -26 CURVE SMOOTH",
"1108 131 OFFCURVE",
"1002 208 OFFCURVE",
"761 208 CURVE SMOOTH",
"491 208 LINE SMOOTH",
"410 208 OFFCURVE",
"385 253 OFFCURVE",
"385 280 CURVE SMOOTH",
"385 317 OFFCURVE",
"401 373 OFFCURVE",
"484 468 CURVE",
"290 362 LINE",
"355 315 OFFCURVE",
"435 293 OFFCURVE",
"575 293 CURVE SMOOTH",
"877 293 OFFCURVE",
"1033 422 OFFCURVE",
"1033 672 CURVE SMOOTH",
"1033 776 OFFCURVE",
"969 907 OFFCURVE",
"889 974 CURVE",
"809 733 LINE",
"1182 713 LINE",
"1182 988 LINE",
"886 988 LINE SMOOTH",
"831 988 OFFCURVE",
"760 1030 OFFCURVE",
"575 1030 CURVE SMOOTH",
"312 1030 OFFCURVE",
"116 947 OFFCURVE",
"116 672 CURVE SMOOTH",
"116 493 OFFCURVE",
"238 403 OFFCURVE",
"277 379 CURVE",
"352 623 LINE",
"199 524 OFFCURVE",
"100 428 OFFCURVE",
"100 299 CURVE SMOOTH",
"100 249 OFFCURVE",
"116 190 OFFCURVE",
"177 130 CURVE",
"129 91 OFFCURVE",
"71 13 OFFCURVE",
"71 -81 CURVE SMOOTH",
"71 -286 OFFCURVE",
"217 -412 OFFCURVE",
"575 -412 CURVE SMOOTH"
);
},
{
closed = 1;
nodes = (
"415 -188 OFFCURVE",
"379 -140 OFFCURVE",
"379 -68 CURVE SMOOTH",
"379 -41 OFFCURVE",
"388 1 OFFCURVE",
"469 117 CURVE",
"217 -12 LINE",
"669 -12 LINE SMOOTH",
"757 -12 OFFCURVE",
"780 -33 OFFCURVE",
"780 -80 CURVE SMOOTH",
"780 -130 OFFCURVE",
"736 -186 OFFCURVE",
"575 -187 CURVE SMOOTH"
);
},
{
closed = 1;
nodes = (
"469 543 OFFCURVE",
"431 581 OFFCURVE",
"431 662 CURVE SMOOTH",
"431 733 OFFCURVE",
"473 780 OFFCURVE",
"575 780 CURVE SMOOTH",
"677 780 OFFCURVE",
"718 733 OFFCURVE",
"718 662 CURVE SMOOTH",
"718 581 OFFCURVE",
"677 543 OFFCURVE",
"575 543 CURVE SMOOTH"
);
}
);
width = 1246;
}
);
unicode = 0067;
userData = {
com.fontlab.hintData = {
hhints = (
{
position = -309;
width = 105;
},
{
position = 96;
width = 100;
},
{
position = 363;
width = 98;
},
{
position = 883;
width = 94;
},
{
position = 905;
width = 95;
}
);
vhints = (
{
position = 118;
width = 128;
},
{
position = 158;
width = 114;
},
{
position = 797;
width = 117;
},
{
position = 837;
width = 128;
}
);
};
};
},
{
color = 7;
glyphname = h;
layers = (
{
anchors = (
{
name = bottom;
position = "{510, 0}";
},
{
name = center;
position = "{490, 493}";
},
{
name = top_case;
position = "{208, 1358}";
}
);
layerId = "1D628CB9-BBF5-410A-9D74-9E6094BFE839";
paths = (
{
closed = 1;
nodes = (
"272 0 LINE",
"272 864 LINE",
"235 800 LINE",
"373 887 OFFCURVE",
"477 895 OFFCURVE",
"557 895 CURVE SMOOTH",
"686 895 OFFCURVE",
"733 825 OFFCURVE",
"733 669 CURVE SMOOTH",
"733 0 LINE",
"861 0 LINE",
"861 663 LINE SMOOTH",
"861 891 OFFCURVE",
"767 1000 OFFCURVE",
"564 1000 CURVE SMOOTH",
"467 1000 OFFCURVE",
"386 985 OFFCURVE",
"232 912 CURVE",
"272 870 LINE",
"272 1358 LINE",
"144 1358 LINE",
"144 0 LINE"
);
}
);
width = 980;
},
{
anchors = (
{
name = bottom;
position = "{552, -50}";
},
{
name = center;
position = "{539, 493}";
},
{
name = top_case;
position = "{247, 1818}";
}
);
guideLines = (
{
angle = 119.9358;
position = "{1587, 649}";
}
);
layerId = "D42B5605-DB46-4B3B-8EA0-4CE7066523CE";
paths = (
{
closed = 1;
nodes = (
"411 0 LINE",
"411 865 LINE",
"274 605 LINE",
"425 721 OFFCURVE",
"499 745 OFFCURVE",
"572 745 CURVE SMOOTH",
"657 745 OFFCURVE",
"692 713 OFFCURVE",
"692 563 CURVE SMOOTH",
"692 0 LINE",
"1020 0 LINE",
"1020 693 LINE SMOOTH",
"1020 926 OFFCURVE",
"863 1030 OFFCURVE",
"709 1030 CURVE SMOOTH",
"593 1030 OFFCURVE",
"456 999 OFFCURVE",
"280 877 CURVE",
"411 896 LINE",
"411 1358 LINE",
"83 1358 LINE",
"83 0 LINE"
);
}
);
width = 1094;
}
);
unicode = 0068;
},
{
glyphname = hbar;
layers = (
{
layerId = "1D628CB9-BBF5-410A-9D74-9E6094BFE839";
paths = (
{
closed = 1;
nodes = (
"291 0 LINE",
"291 800 LINE",
"421 870 OFFCURVE",
"511 895 OFFCURVE",
"582 895 CURVE SMOOTH",
"701 895 OFFCURVE",
"739 826 OFFCURVE",
"739 669 CURVE SMOOTH",
"739 0 LINE",
"867 0 LINE",
"867 663 LINE SMOOTH",
"867 900 OFFCURVE",
"776 1000 OFFCURVE",
"590 1000 CURVE SMOOTH",
"495 1000 OFFCURVE",
"398 970 OFFCURVE",
"291 911 CURVE",
"291 1100 LINE",
"503 1100 LINE",
"503 1195 LINE",
"291 1195 LINE",
"291 1358 LINE",
"163 1358 LINE",
"163 1195 LINE",
"-27 1195 LINE",
"-27 1100 LINE",
"163 1100 LINE",
"163 0 LINE"
);
}
);
width = 999;
},
{
anchors = (
{
name = bottom;
position = "{722, -50}";
},
{
name = center;
position = "{709, 493}";
},
{
name = top_case;
position = "{417, 1818}";
}
);
guideLines = (
{
position = "{428, 1265}";
}
);
layerId = "D42B5605-DB46-4B3B-8EA0-4CE7066523CE";
paths = (
{
closed = 1;
nodes = (
"793 1030 OFFCURVE",
"697 1013 OFFCURVE",
"581 955 CURVE",
"581 1100 LINE",
"721 1100 LINE",
"721 1255 LINE",
"581 1255 LINE",
"581 1358 LINE",
"253 1358 LINE",
"253 1255 LINE",
"113 1255 LINE",
"113 1100 LINE",
"253 1100 LINE",
"253 0 LINE",
"581 0 LINE",
"581 698 LINE",
"648 735 OFFCURVE",
"695 745 OFFCURVE",
"742 745 CURVE SMOOTH",
"827 745 OFFCURVE",
"862 713 OFFCURVE",
"862 563 CURVE SMOOTH",
"862 0 LINE",
"1190 0 LINE",
"1190 693 LINE SMOOTH",
"1190 926 OFFCURVE",
"1033 1030 OFFCURVE",
"879 1030 CURVE SMOOTH"
);
}
);
width = 1264;
}
);
unicode = 0127;
},
{
color = 7;
glyphname = i;
layers = (
{
anchors = (
{
name = bottom;
position = "{378, 0}";
},
{
name = ogonek;
position = "{389, 0}";
}
);
guideLines = (
{
angle = 270;
position = "{122, 641}";
},
{
position = "{480, 1356}";
},
{
position = "{498, 1176}";
},
{
angle = 270;
position = "{468, 1176}";
},
{
angle = 270;
position = "{287, 1186}";
}
);
layerId = "1D628CB9-BBF5-410A-9D74-9E6094BFE839";
paths = (
{
closed = 1;
nodes = (
"634 0 LINE",
"634 90 LINE",
"397 90 LINE",
"442 45 LINE",
"442 985 LINE",
"134 985 LINE",
"134 895 LINE",
"359 895 LINE",
"314 940 LINE",
"314 45 LINE",
"359 90 LINE",
"122 90 LINE",
"122 0 LINE"
);
},
{
closed = 1;
nodes = (
"428 1176 OFFCURVE",
"467 1215 OFFCURVE",
"467 1266 CURVE SMOOTH",
"467 1317 OFFCURVE",
"428 1356 OFFCURVE",
"377 1356 CURVE SMOOTH",
"326 1356 OFFCURVE",
"287 1317 OFFCURVE",
"287 1266 CURVE SMOOTH",
"287 1215 OFFCURVE",
"326 1176 OFFCURVE",
"377 1176 CURVE SMOOTH"
);
}
);
width = 687;
},
{
anchors = (
{
name = bottom;
position = "{450, -50}";
},
{
name = ogonek;
position = "{471, 10}";
}
);
guideLines = (
{
angle = 270;
position = "{76, 514}";
},
{
position = "{296, 1106}";
},
{
position = "{108, 1487}";
},
{
angle = 270;
position = "{256, 1062}";
},
{
angle = 270;
position = "{637, 1012}";
}
);
layerId = "D42B5605-DB46-4B3B-8EA0-4CE7066523CE";
paths = (
{
closed = 1;
nodes = (
"828 0 LINE",
"828 270 LINE",
"471 270 LINE",
"616 45 LINE",
"616 985 LINE",
"88 985 LINE",
"88 715 LINE",
"433 715 LINE",
"288 940 LINE",
"288 45 LINE",
"433 270 LINE",
"76 270 LINE",
"76 0 LINE"
);
},
{
closed = 1;
nodes = (
"551 1106 OFFCURVE",
"637 1192 OFFCURVE",
"637 1298 CURVE SMOOTH",
"637 1401 OFFCURVE",
"551 1487 OFFCURVE",
"446 1487 CURVE SMOOTH",
"341 1487 OFFCURVE",
"256 1401 OFFCURVE",
"256 1298 CURVE SMOOTH",
"256 1192 OFFCURVE",
"341 1106 OFFCURVE",
"446 1106 CURVE SMOOTH"
);
}
);
width = 863;
}
);
unicode = 0069;
},
{
glyphname = idotless;
layers = (
{
anchors = (
{
name = bottom;
position = "{341, 0}";
},
{
name = ogonek;
position = "{610, 10}";
},
{
name = top;
position = "{334, 1034}";
}
);
layerId = "1D628CB9-BBF5-410A-9D74-9E6094BFE839";
paths = (
{
closed = 1;
nodes = (
"627 0 LINE",
"627 90 LINE",
"435 90 LINE",
"435 985 LINE",
"115 985 LINE",
"115 895 LINE",
"307 895 LINE",
"307 90 LINE",
"115 90 LINE",
"115 0 LINE"
);
}
);
width = 681;
},
{
anchors = (
{
name = bottom;
position = "{454, 0}";
},
{
name = ogonek;
position = "{753, 10}";
},
{
name = top;
position = "{437, 1054}";
}
);
guideLines = (
{
angle = 270;
position = "{427, 1060}";
}
);
layerId = "D42B5605-DB46-4B3B-8EA0-4CE7066523CE";
paths = (
{
closed = 1;
nodes = (
"823 0 LINE",
"823 290 LINE",
"631 290 LINE",
"631 985 LINE",
"111 985 LINE",
"111 695 LINE",
"303 695 LINE",
"303 290 LINE",
"111 290 LINE",
"111 0 LINE"
);
}
);
width = 873;
}
);
unicode = 0131;
},
{
color = 7;
glyphname = j;
layers = (
{
layerId = "1D628CB9-BBF5-410A-9D74-9E6094BFE839";
paths = (
{
closed = 1;
nodes = (
"382 -295 OFFCURVE",
"471 -203 OFFCURVE",
"471 18 CURVE SMOOTH",
"471 985 LINE",
"119 985 LINE",
"119 895 LINE",
"388 895 LINE",
"343 940 LINE",
"343 28 LINE SMOOTH",
"343 -123 OFFCURVE",
"319 -190 OFFCURVE",
"206 -190 CURVE SMOOTH",
"143 -190 OFFCURVE",
"103 -185 OFFCURVE",
"58 -174 CURVE",
"42 -275 LINE",
"97 -291 OFFCURVE",
"153 -295 OFFCURVE",
"210 -295 CURVE SMOOTH"
);
},
{
closed = 1;
nodes = (
"451 1176 OFFCURVE",
"490 1215 OFFCURVE",
"490 1266 CURVE SMOOTH",
"490 1317 OFFCURVE",
"451 1356 OFFCURVE",
"400 1356 CURVE SMOOTH",
"349 1356 OFFCURVE",
"310 1317 OFFCURVE",
"310 1266 CURVE SMOOTH",
"310 1215 OFFCURVE",
"349 1176 OFFCURVE",
"400 1176 CURVE SMOOTH"
);
}
);
width = 634;
},
{
guideLines = (
{
angle = 261.6663;
position = "{44, 61}";
},
{
position = "{749, 1556}";
},
{
angle = 270;
position = "{74, 552}";
}
);
layerId = "D42B5605-DB46-4B3B-8EA0-4CE7066523CE";
paths = (
{
closed = 1;
nodes = (
"409 -325 OFFCURVE",
"643 -223 OFFCURVE",
"643 98 CURVE SMOOTH",
"643 985 LINE",
"71 985 LINE",
"71 715 LINE",
"360 715 LINE",
"315 940 LINE",
"315 125 LINE SMOOTH",
"315 25 OFFCURVE",
"286 -40 OFFCURVE",
"178 -40 CURVE SMOOTH",
"147 -40 OFFCURVE",
"74 -36 OFFCURVE",
"23 -24 CURVE",
"-18 -299 LINE",
"73 -319 OFFCURVE",
"165 -325 OFFCURVE",
"232 -325 CURVE SMOOTH"
);
},
{
closed = 1;
nodes = (
"583 1108 OFFCURVE",
"669 1194 OFFCURVE",
"669 1300 CURVE SMOOTH",
"669 1403 OFFCURVE",
"583 1489 OFFCURVE",
"478 1489 CURVE SMOOTH",
"373 1489 OFFCURVE",
"288 1403 OFFCURVE",
"288 1300 CURVE SMOOTH",
"288 1194 OFFCURVE",
"373 1108 OFFCURVE",
"478 1108 CURVE SMOOTH"
);
}
);
width = 759;
}
);
unicode = 006A;
},
{
glyphname = jdotless;
layers = (
{
anchors = (
{
name = bottom;
position = "{273, -295}";
},
{
name = top;
position = "{314, 985}";
}
);
layerId = "1D628CB9-BBF5-410A-9D74-9E6094BFE839";
paths = (
{
closed = 1;
nodes = (
"382 -295 OFFCURVE",
"471 -203 OFFCURVE",
"471 18 CURVE SMOOTH",
"471 985 LINE",
"119 985 LINE",
"119 895 LINE",
"388 895 LINE",
"343 940 LINE",
"343 28 LINE SMOOTH",
"343 -123 OFFCURVE",
"319 -182 OFFCURVE",
"206 -182 CURVE SMOOTH",
"143 -182 OFFCURVE",
"103 -177 OFFCURVE",
"58 -166 CURVE",
"42 -275 LINE",
"97 -291 OFFCURVE",
"153 -295 OFFCURVE",
"210 -295 CURVE SMOOTH"
);
}
);
width = 628;
},
{
anchors = (
{
name = bottom;
position = "{269, -371}";
},
{
name = top;
position = "{310, 1036}";
}
);
guideLines = (
{
position = "{1015, -62}";
}
);
layerId = "D42B5605-DB46-4B3B-8EA0-4CE7066523CE";
paths = (
{
closed = 1;
nodes = (
"423 -391 OFFCURVE",
"567 -188 OFFCURVE",
"567 33 CURVE SMOOTH",
"567 985 LINE",
"15 985 LINE",
"15 695 LINE",
"384 695 LINE",
"239 940 LINE",
"239 132 LINE SMOOTH",
"239 -19 OFFCURVE",
"215 -78 OFFCURVE",
"102 -78 CURVE SMOOTH",
"39 -78 OFFCURVE",
"-1 -73 OFFCURVE",
"-46 -62 CURVE",
"-62 -371 LINE",
"-7 -387 OFFCURVE",
"73 -391 OFFCURVE",
"130 -391 CURVE SMOOTH"
);
}
);
width = 600;
}
);
unicode = 0237;
},
{
color = 7;
glyphname = k;
layers = (
{
anchors = (
{
name = bottom;
position = "{503, 0}";
},
{
name = top;
position = "{473, 985}";
}
);
guideLines = (
{
angle = 270;
position = "{855, 543}";
}
);
layerId = "1D628CB9-BBF5-410A-9D74-9E6094BFE839";
paths = (
{
closed = 1;
nodes = (
"272 0 LINE",
"272 422 LINE",
"238 347 LINE",
"397 488 LINE",
"345 480 LINE",
"473 321 OFFCURVE",
"622 147 OFFCURVE",
"778 -13 CURVE",
"855 69 LINE",
"683 249 OFFCURVE",
"592 359 OFFCURVE",
"439 548 CURVE",
"430 489 LINE",
"810 911 LINE",
"723 985 LINE",
"515 750 OFFCURVE",
"361 589 OFFCURVE",
"259 480 CURVE",
"272 449 LINE",
"272 1358 LINE",
"144 1358 LINE",
"144 0 LINE"
);
}
);
width = 945;
},
{
anchors = (
{
name = bottom;
position = "{572, -50}";
},
{
name = top;
position = "{542, 985}";
}
);
guideLines = (
{
angle = 230.6224;
position = "{515, 824}";
},
{
angle = 270;
position = "{1030, 574}";
}
);
layerId = "D42B5605-DB46-4B3B-8EA0-4CE7066523CE";
paths = (
{
closed = 1;
nodes = (
"411 0 LINE",
"411 427 LINE",
"277 217 LINE",
"546 388 LINE",
"439 403 LINE",
"567 244 OFFCURVE",
"666 118 OFFCURVE",
"817 -53 CURVE",
"1065 180 LINE",
"891 369 OFFCURVE",
"791 473 OFFCURVE",
"672 636 CURVE",
"621 446 LINE",
"1015 854 LINE",
"777 1051 LINE",
"664 912 OFFCURVE",
"465 711 OFFCURVE",
"308 550 CURVE",
"411 564 LINE",
"411 1358 LINE",
"83 1358 LINE",
"83 0 LINE"
);
}
);
width = 1065;
}
);
unicode = 006B;
userData = {
com.fontlab.hintData = {
hhints = (
{
position = 0;
width = 21;
},
{
position = 965;
width = 20;
},
{
position = 1338;
width = 20;
}
);
vhints = (
{
position = 140;
width = 128;
}
);
};
};
},
{
color = 6;
glyphname = kgreenlandic;
layers = (
{
layerId = "1D628CB9-BBF5-410A-9D74-9E6094BFE839";
paths = (
{
closed = 1;
nodes = (
"272 0 LINE",
"272 364 LINE",
"363 445 LINE",
"784 -20 LINE",
"870 60 LINE",
"453 516 LINE",
"828 936 LINE",
"745 1005 LINE",
"392 612 LINE",
"272 491 LINE",
"272 985 LINE",
"144 985 LINE",
"144 0 LINE"
);
}
);
width = 961;
},
{
layerId = "D42B5605-DB46-4B3B-8EA0-4CE7066523CE";
paths = (
{
closed = 1;
nodes = (
"472 0 LINE",
"472 303 LINE",
"511 329 LINE",
"859 -40 LINE",
"1096 183 LINE",
"765 515 LINE",
"1042 835 LINE",
"797 1029 LINE",
"472 621 LINE",
"472 985 LINE",
"144 985 LINE",
"144 0 LINE"
);
}
);
width = 1295;
}
);
unicode = 0138;
},
{
color = 7;
glyphname = l;
layers = (
{
anchors = (
{
name = bottom;
position = "{291, 0}";
},
{
name = center;
position = "{602, 714}";
},
{
name = top_case;
position = "{291, 1358}";
},
{
name = topright;
position = "{454, 1358}";
}
);
guideLines = (
{
angle = 270;
position = "{4, 514}";
}
);
layerId = "1D628CB9-BBF5-410A-9D74-9E6094BFE839";
paths = (
{
closed = 1;
nodes = (
"566 0 LINE",
"566 90 LINE",
"310 90 LINE",
"355 45 LINE",
"355 1358 LINE",
"16 1358 LINE",
"16 1267 LINE",
"272 1267 LINE",
"227 1312 LINE",
"227 45 LINE",
"272 90 LINE",
"4 90 LINE",
"4 0 LINE"
);
}
);
width = 620;
},
{
anchors = (
{
name = bottom;
position = "{473, -50}";
},
{
name = center;
position = "{784, 714}";
},
{
name = top_case;
position = "{473, 1358}";
},
{
name = topright;
position = "{736, 1358}";
}
);
layerId = "D42B5605-DB46-4B3B-8EA0-4CE7066523CE";
paths = (
{
closed = 1;
nodes = (
"858 0 LINE",
"858 270 LINE",
"492 270 LINE",
"637 45 LINE",
"637 1358 LINE",
"109 1358 LINE",
"109 1088 LINE",
"454 1088 LINE",
"309 1312 LINE",
"309 45 LINE",
"454 270 LINE",
"76 270 LINE",
"76 0 LINE"
);
}
);
width = 893;
}
);
unicode = 006C;
},
{
glyphname = lslash;
layers = (
{
layerId = "1D628CB9-BBF5-410A-9D74-9E6094BFE839";
paths = (
{
closed = 1;
nodes = (
"698 0 LINE",
"698 90 LINE",
"487 90 LINE",
"487 688 LINE",
"788 923 LINE",
"730 1000 LINE",
"487 810 LINE",
"487 1358 LINE",
"138 1358 LINE",
"138 1267 LINE",
"359 1267 LINE",
"359 711 LINE",
"85 498 LINE",
"143 420 LINE",
"359 589 LINE",
"359 90 LINE",
"136 90 LINE",
"136 0 LINE"
);
}
);
width = 812;
},
{
layerId = "D42B5605-DB46-4B3B-8EA0-4CE7066523CE";
paths = (
{
closed = 1;
nodes = (
"906 0 LINE",
"906 290 LINE",
"695 290 LINE",
"695 1358 LINE",
"146 1358 LINE",
"146 1067 LINE",
"367 1067 LINE",
"367 290 LINE",
"144 290 LINE",
"144 0 LINE"
);
},
{
closed = 1;
nodes = (
"980 984 LINE",
"880 1111 LINE",
"128 517 LINE",
"228 389 LINE"
);
}
);
width = 1037;
}
);
unicode = 0142;
},
{
color = 7;
glyphname = m;
layers = (
{
anchors = (
{
name = bottom;
position = "{775, 0}";
},
{
name = top;
position = "{765, 985}";
}
);
layerId = "1D628CB9-BBF5-410A-9D74-9E6094BFE839";
paths = (
{
closed = 1;
nodes = (
"272 0 LINE",
"272 868 LINE",
"248 809 LINE",
"329 861 OFFCURVE",
"452 895 OFFCURVE",
"547 895 CURVE SMOOTH",
"672 895 OFFCURVE",
"705 826 OFFCURVE",
"705 668 CURVE SMOOTH",
"705 0 LINE",
"833 0 LINE",
"833 664 LINE SMOOTH",
"833 740 OFFCURVE",
"814 894 OFFCURVE",
"816 867 CURVE",
"791 808 LINE",
"891 890 OFFCURVE",
"1034 895 OFFCURVE",
"1088 895 CURVE SMOOTH",
"1196 895 OFFCURVE",
"1249 827 OFFCURVE",
"1249 672 CURVE SMOOTH",
"1249 0 LINE",
"1377 0 LINE",
"1377 671 LINE SMOOTH",
"1377 894 OFFCURVE",
"1276 1000 OFFCURVE",
"1084 1000 CURVE SMOOTH",
"1003 1000 OFFCURVE",
"893 982 OFFCURVE",
"774 918 CURVE",
"734 978 OFFCURVE",
"651 1000 OFFCURVE",
"564 1000 CURVE SMOOTH",
"478 1000 OFFCURVE",
"359 977 OFFCURVE",
"258 921 CURVE",
"240 985 LINE",
"144 985 LINE",
"144 0 LINE"
);
}
);
width = 1509;
},
{
anchors = (
{
name = bottom;
position = "{844, 0}";
},
{
name = top;
position = "{867, 1035}";
}
);
guideLines = (
{
position = "{1067, 715}";
},
{
position = "{807, 550}";
}
);
layerId = "D42B5605-DB46-4B3B-8EA0-4CE7066523CE";
paths = (
{
closed = 1;
nodes = (
"411 0 LINE",
"411 898 LINE",
"287 594 LINE",
"378 666 OFFCURVE",
"437 745 OFFCURVE",
"569 745 CURVE SMOOTH",
"653 745 OFFCURVE",
"678 693 OFFCURVE",
"678 550 CURVE SMOOTH",
"677 0 LINE",
"1005 0 LINE",
"1005 598 LINE SMOOTH",
"1005 761 OFFCURVE",
"976 829 OFFCURVE",
"947 878 CURVE",
"863 593 LINE",
"966 677 OFFCURVE",
"1039 745 OFFCURVE",
"1143 745 CURVE SMOOTH",
"1237 745 OFFCURVE",
"1262 691 OFFCURVE",
"1262 550 CURVE SMOOTH",
"1261 0 LINE",
"1589 0 LINE",
"1589 671 LINE SMOOTH",
"1589 914 OFFCURVE",
"1439 1030 OFFCURVE",
"1236 1030 CURVE SMOOTH",
"1155 1030 OFFCURVE",
"1027 1010 OFFCURVE",
"902 943 CURVE",
"833 1004 OFFCURVE",
"774 1030 OFFCURVE",
"687 1030 CURVE SMOOTH",
"601 1030 OFFCURVE",
"487 1000 OFFCURVE",
"407 946 CURVE",
"379 1015 LINE",
"83 1015 LINE",
"83 0 LINE"
);
}
);
width = 1663;
}
);
unicode = 006D;
},
{
color = 7;
glyphname = n;
layers = (
{
anchors = (
{
name = bottom;
position = "{503, 0}";
},
{
name = top;
position = "{497, 985}";
}
);
layerId = "1D628CB9-BBF5-410A-9D74-9E6094BFE839";
paths = (
{
closed = 1;
nodes = (
"272 0 LINE",
"272 867 LINE",
"235 800 LINE",
"373 887 OFFCURVE",
"476 895 OFFCURVE",
"557 895 CURVE SMOOTH",
"686 895 OFFCURVE",
"733 827 OFFCURVE",
"733 668 CURVE SMOOTH",
"733 0 LINE",
"861 0 LINE",
"861 663 LINE SMOOTH",
"861 891 OFFCURVE",
"767 1000 OFFCURVE",
"564 1000 CURVE SMOOTH",
"467 1000 OFFCURVE",
"393 985 OFFCURVE",
"258 921 CURVE",
"240 985 LINE",
"144 985 LINE",
"144 0 LINE"
);
}
);
width = 993;
},
{
anchors = (
{
name = bottom;
position = "{551, -50}";
},
{
name = top;
position = "{560, 1035}";
}
);
guideLines = (
{
angle = 270;
position = "{411, 958}";
}
);
layerId = "D42B5605-DB46-4B3B-8EA0-4CE7066523CE";
paths = (
{
closed = 1;
nodes = (
"411 0 LINE",
"411 865 LINE",
"274 605 LINE",
"425 721 OFFCURVE",
"499 745 OFFCURVE",
"573 745 CURVE SMOOTH",
"662 745 OFFCURVE",
"692 713 OFFCURVE",
"692 563 CURVE SMOOTH",
"692 0 LINE",
"1020 0 LINE",
"1020 693 LINE SMOOTH",
"1020 926 OFFCURVE",
"863 1030 OFFCURVE",
"709 1030 CURVE SMOOTH",
"602 1030 OFFCURVE",
"518 1015 OFFCURVE",
"397 951 CURVE",
"369 1015 LINE",
"83 1015 LINE",
"83 0 LINE"
);
}
);
width = 1094;
}
);
unicode = 006E;
userData = {
com.fontlab.hintData = {
hhints = (
{
position = 0;
width = 21;
},
{
position = 895;
width = 105;
},
{
position = 965;
width = 20;
}
);
vhints = (
{
position = 140;
width = 128;
},
{
position = 140;
width = 105;
},
{
position = 729;
width = 128;
}
);
};
};
},
{
glyphname = eng;
layers = (
{
layerId = "1D628CB9-BBF5-410A-9D74-9E6094BFE839";
paths = (
{
closed = 1;
nodes = (
"689 -288 OFFCURVE",
"854 -206 OFFCURVE",
"854 128 CURVE SMOOTH",
"854 663 LINE SMOOTH",
"854 891 OFFCURVE",
"760 1000 OFFCURVE",
"557 1000 CURVE SMOOTH",
"460 1000 OFFCURVE",
"386 985 OFFCURVE",
"251 921 CURVE",
"242 985 LINE",
"137 985 LINE",
"137 0 LINE",
"265 0 LINE",
"265 822 LINE",
"385 888 OFFCURVE",
"476 895 OFFCURVE",
"550 895 CURVE SMOOTH",
"686 895 OFFCURVE",
"726 825 OFFCURVE",
"726 668 CURVE SMOOTH",
"726 108 LINE SMOOTH",
"726 -137 OFFCURVE",
"630 -184 OFFCURVE",
"430 -184 CURVE",
"429 -288 LINE"
);
}
);
width = 986;
},
{
anchors = (
{
name = bottom;
position = "{551, -50}";
},
{
name = top;
position = "{580, 1035}";
}
);
layerId = "D42B5605-DB46-4B3B-8EA0-4CE7066523CE";
paths = (
{
closed = 1;
nodes = (
"602 1030 OFFCURVE",
"518 1015 OFFCURVE",
"397 951 CURVE",
"369 1015 LINE",
"83 1015 LINE",
"83 0 LINE",
"411 0 LINE",
"411 698 LINE",
"478 735 OFFCURVE",
"526 745 OFFCURVE",
"573 745 CURVE SMOOTH",
"662 745 OFFCURVE",
"692 713 OFFCURVE",
"692 563 CURVE SMOOTH",
"692 50 LINE SMOOTH",
"692 -135 OFFCURVE",
"611 -182 OFFCURVE",
"461 -182 CURVE",
"460 -467 LINE",
"866 -463 OFFCURVE",
"1017 -269 OFFCURVE",
"1020 40 CURVE SMOOTH",
"1020 693 LINE SMOOTH",
"1020 926 OFFCURVE",
"863 1030 OFFCURVE",
"709 1030 CURVE SMOOTH"
);
}
);
width = 1094;
}
);
unicode = 014B;
},
{
color = 7;
glyphname = o;
layers = (
{
anchors = (
{
name = bottom;
position = "{496, 0}";
},
{
name = center;
position = "{496, 493}";
},
{
name = ogonek;
position = "{629, 30}";
},
{
name = top;
position = "{495, 985}";
},
{
name = topright;
position = "{790, 664}";
}
);
layerId = "1D628CB9-BBF5-410A-9D74-9E6094BFE839";
paths = (
{
closed = 1;
nodes = (
"765 -10 OFFCURVE",
"880 164 OFFCURVE",
"880 495 CURVE SMOOTH",
"880 826 OFFCURVE",
"765 1000 OFFCURVE",
"496 1000 CURVE SMOOTH",
"227 1000 OFFCURVE",
"112 826 OFFCURVE",
"112 495 CURVE SMOOTH",
"112 164 OFFCURVE",
"227 -10 OFFCURVE",
"496 -10 CURVE SMOOTH"
);
},
{
closed = 1;
nodes = (
"299 95 OFFCURVE",
"240 247 OFFCURVE",
"240 495 CURVE SMOOTH",
"240 743 OFFCURVE",
"299 895 OFFCURVE",
"496 895 CURVE SMOOTH",
"693 895 OFFCURVE",
"752 743 OFFCURVE",
"752 495 CURVE SMOOTH",
"752 247 OFFCURVE",
"693 95 OFFCURVE",
"496 95 CURVE SMOOTH"
);
}
);
width = 992;
},
{
anchors = (
{
name = bottom;
position = "{535, -50}";
},
{
name = center;
position = "{535, 493}";
},
{
name = ogonek;
position = "{688, 30}";
},
{
name = top;
position = "{535, 1055}";
},
{
name = topright;
position = "{929, 664}";
}
);
layerId = "D42B5605-DB46-4B3B-8EA0-4CE7066523CE";
paths = (
{
closed = 1;
nodes = (
"854 -40 OFFCURVE",
"1014 104 OFFCURVE",
"1014 495 CURVE SMOOTH",
"1014 886 OFFCURVE",
"854 1030 OFFCURVE",
"535 1030 CURVE SMOOTH",
"216 1030 OFFCURVE",
"56 886 OFFCURVE",
"56 495 CURVE SMOOTH",
"56 104 OFFCURVE",
"216 -40 OFFCURVE",
"535 -40 CURVE SMOOTH"
);
},
{
closed = 1;
nodes = (
"435 230 OFFCURVE",
"384 282 OFFCURVE",
"384 495 CURVE SMOOTH",
"384 708 OFFCURVE",
"438 760 OFFCURVE",
"535 760 CURVE SMOOTH",
"632 760 OFFCURVE",
"686 708 OFFCURVE",
"686 495 CURVE SMOOTH",
"686 282 OFFCURVE",
"635 230 OFFCURVE",
"535 230 CURVE SMOOTH"
);
}
);
width = 1070;
}
);
unicode = 006F;
userData = {
com.fontlab.hintData = {
hhints = (
{
position = -10;
width = 106;
},
{
position = 895;
width = 105;
}
);
vhints = (
{
position = 108;
width = 128;
},
{
position = 748;
width = 128;
}
);
};
};
},
{
glyphname = ohorn;
layers = (
{
anchors = (
{
name = _topright;
position = "{790, 664}";
},
{
name = bottom;
position = "{496, 0}";
},
{
name = center;
position = "{496, 493}";
},
{
name = ogonek;
position = "{629, 30}";
},
{
name = top;
position = "{496, 985}";
},
{
name = topright;
position = "{790, 664}";
}
);
components = (
{
name = horncomb;
transform = "{1, 0, 0, 1, 755, -321}";
},
{
name = o;
}
);
layerId = "1D628CB9-BBF5-410A-9D74-9E6094BFE839";
width = 992;
},
{
anchors = (
{
name = _topright;
position = "{786, 664}";
},
{
name = bottom;
position = "{492, 0}";
},
{
name = center;
position = "{492, 493}";
},
{
name = ogonek;
position = "{625, 30}";
},
{
name = top;
position = "{492, 985}";
},
{
name = topright;
position = "{786, 664}";
}
);
associatedMasterId = "1D628CB9-BBF5-410A-9D74-9E6094BFE839";
layerId = "507808C2-100D-496F-AF8E-12FACB515944";
name = "Regular Jul 25 16, 11:48";
paths = (
{
closed = 1;
nodes = (
"759 -10 OFFCURVE",
"876 182 OFFCURVE",
"876 495 CURVE SMOOTH",
"876 826 OFFCURVE",
"761 1000 OFFCURVE",
"492 1000 CURVE SMOOTH",
"223 1000 OFFCURVE",
"108 826 OFFCURVE",
"108 495 CURVE SMOOTH",
"108 182 OFFCURVE",
"225 -10 OFFCURVE",
"492 -10 CURVE SMOOTH"
);
},
{
closed = 1;
nodes = (
"292 96 OFFCURVE",
"236 257 OFFCURVE",
"236 495 CURVE SMOOTH",
"236 730 OFFCURVE",
"295 895 OFFCURVE",
"492 895 CURVE SMOOTH",
"689 895 OFFCURVE",
"748 730 OFFCURVE",
"748 495 CURVE SMOOTH",
"748 257 OFFCURVE",
"692 96 OFFCURVE",
"492 96 CURVE SMOOTH"
);
},
{
closed = 1;
nodes = (
"796 756 LINE SMOOTH",
"918 797 OFFCURVE",
"1024 856 OFFCURVE",
"1024 981 CURVE SMOOTH",
"1024 1021 OFFCURVE",
"1017 1053 OFFCURVE",
"1007 1079 CURVE",
"875 1079 LINE",
"888 1051 OFFCURVE",
"896 1020 OFFCURVE",
"896 989 CURVE SMOOTH",
"896 913 OFFCURVE",
"857 870 OFFCURVE",
"786 839 CURVE SMOOTH",
"751 824 LINE",
"751 741 LINE"
);
}
);
width = 984;
},
{
components = (
{
name = o;
},
{
name = horncomb;
transform = "{1, 0, 0, 1, 819, -321}";
}
);
layerId = "D42B5605-DB46-4B3B-8EA0-4CE7066523CE";
width = 1070;
}
);
unicode = 01A1;
userData = {
com.schriftgestaltung.Glyphs.ColorIndex = 7;
};
},
{
color = 6;
glyphname = oe;
layers = (
{
anchors = (
{
name = bottom;
position = "{806, 0}";
},
{
name = top;
position = "{806, 985}";
}
);
layerId = "1D628CB9-BBF5-410A-9D74-9E6094BFE839";
paths = (
{
closed = 1;
nodes = (
"654 -10 OFFCURVE",
"759 73 OFFCURVE",
"819 192 CURVE",
"891 52 OFFCURVE",
"1006 -10 OFFCURVE",
"1176 -10 CURVE SMOOTH",
"1271 -10 OFFCURVE",
"1392 16 OFFCURVE",
"1488 75 CURVE",
"1449 176 LINE",
"1356 117 OFFCURVE",
"1269 96 OFFCURVE",
"1169 96 CURVE SMOOTH",
"1023 96 OFFCURVE",
"884 162 OFFCURVE",
"880 469 CURVE",
"1498 469 LINE",
"1503 528 OFFCURVE",
"1506 574 OFFCURVE",
"1506 604 CURVE SMOOTH",
"1506 841 OFFCURVE",
"1373 1000 OFFCURVE",
"1151 1000 CURVE SMOOTH",
"999 1000 OFFCURVE",
"882 930 OFFCURVE",
"822 806 CURVE",
"763 927 OFFCURVE",
"657 1000 OFFCURVE",
"496 1000 CURVE SMOOTH",
"227 1000 OFFCURVE",
"112 826 OFFCURVE",
"112 495 CURVE SMOOTH",
"112 182 OFFCURVE",
"229 -10 OFFCURVE",
"496 -10 CURVE SMOOTH"
);
},
{
closed = 1;
nodes = (
"296 96 OFFCURVE",
"240 257 OFFCURVE",
"240 495 CURVE SMOOTH",
"240 730 OFFCURVE",
"299 895 OFFCURVE",
"496 895 CURVE SMOOTH",
"693 895 OFFCURVE",
"752 730 OFFCURVE",
"752 495 CURVE SMOOTH",
"752 257 OFFCURVE",
"696 96 OFFCURVE",
"496 96 CURVE SMOOTH"
);
},
{
closed = 1;
nodes = (
"895 766 OFFCURVE",
"979 895 OFFCURVE",
"1152 895 CURVE SMOOTH",
"1297 895 OFFCURVE",
"1387 783 OFFCURVE",
"1387 609 CURVE SMOOTH",
"1387 559 LINE",
"880 559 LINE"
);
}
);
width = 1612;
},
{
layerId = "D42B5605-DB46-4B3B-8EA0-4CE7066523CE";
paths = (
{
closed = 1;
nodes = (
"1492 275 LINE",
"1359 217 OFFCURVE",
"1255 208 OFFCURVE",
"1205 208 CURVE SMOOTH",
"1106 208 OFFCURVE",
"1004 240 OFFCURVE",
"993 386 CURVE",
"1576 386 LINE",
"1585 446 OFFCURVE",
"1586 535 OFFCURVE",
"1586 570 CURVE SMOOTH",
"1586 879 OFFCURVE",
"1407 1030 OFFCURVE",
"1150 1030 CURVE SMOOTH",
"960 1030 OFFCURVE",
"848 961 OFFCURVE",
"800 895 CURVE",
"863 896 LINE",
"826 969 OFFCURVE",
"673 1030 OFFCURVE",
"525 1030 CURVE SMOOTH",
"206 1030 OFFCURVE",
"56 886 OFFCURVE",
"56 495 CURVE SMOOTH",
"56 104 OFFCURVE",
"206 -40 OFFCURVE",
"525 -40 CURVE SMOOTH",
"678 -40 OFFCURVE",
"832 23 OFFCURVE",
"870 101 CURVE",
"808 102 LINE",
"890 2 OFFCURVE",
"1044 -40 OFFCURVE",
"1170 -40 CURVE SMOOTH",
"1340 -40 OFFCURVE",
"1484 3 OFFCURVE",
"1600 66 CURVE"
);
},
{
closed = 1;
nodes = (
"1215 785 OFFCURVE",
"1274 737 OFFCURVE",
"1269 586 CURVE",
"991 586 LINE",
"995 753 OFFCURVE",
"1062 785 OFFCURVE",
"1138 785 CURVE SMOOTH"
);
},
{
closed = 1;
nodes = (
"425 230 OFFCURVE",
"384 282 OFFCURVE",
"384 495 CURVE SMOOTH",
"384 708 OFFCURVE",
"428 760 OFFCURVE",
"525 760 CURVE SMOOTH",
"622 760 OFFCURVE",
"666 708 OFFCURVE",
"666 495 CURVE SMOOTH",
"666 282 OFFCURVE",
"625 230 OFFCURVE",
"525 230 CURVE SMOOTH"
);
}
);
width = 1657;
}
);
unicode = 0153;
},
{
color = 7;
glyphname = p;
layers = (
{
anchors = (
{
name = bottom;
position = "{497, 0}";
},
{
name = top;
position = "{497, 985}";
}
);
layerId = "1D628CB9-BBF5-410A-9D74-9E6094BFE839";
paths = (
{
closed = 1;
nodes = (
"274 -389 LINE",
"274 43 LINE",
"353 4 OFFCURVE",
"443 -10 OFFCURVE",
"514 -10 CURVE SMOOTH",
"751 -10 OFFCURVE",
"882 116 OFFCURVE",
"882 493 CURVE SMOOTH",
"882 852 OFFCURVE",
"746 1000 OFFCURVE",
"546 1000 CURVE SMOOTH",
"463 1000 OFFCURVE",
"369 978 OFFCURVE",
"263 911 CURVE",
"242 985 LINE",
"146 985 LINE",
"146 -389 LINE"
);
},
{
closed = 1;
nodes = (
"390 95 OFFCURVE",
"335 108 OFFCURVE",
"244 156 CURVE",
"274 92 LINE",
"274 854 LINE",
"237 787 LINE",
"366 867 OFFCURVE",
"455 895 OFFCURVE",
"530 895 CURVE SMOOTH",
"687 895 OFFCURVE",
"754 767 OFFCURVE",
"754 491 CURVE SMOOTH",
"754 191 OFFCURVE",
"676 95 OFFCURVE",
"496 95 CURVE SMOOTH"
);
}
);
width = 994;
},
{
anchors = (
{
name = bottom;
position = "{474, 0}";
},
{
name = top;
position = "{574, 1035}";
}
);
guideLines = (
{
position = "{433, 923}";
}
);
layerId = "D42B5605-DB46-4B3B-8EA0-4CE7066523CE";
paths = (
{
closed = 1;
nodes = (
"544 1020 OFFCURVE",
"458 977 OFFCURVE",
"397 946 CURVE",
"377 1015 LINE",
"83 1015 LINE",
"83 -389 LINE",
"411 -389 LINE",
"411 29 LINE",
"475 2 OFFCURVE",
"530 -25 OFFCURVE",
"642 -25 CURVE SMOOTH",
"846 -25 OFFCURVE",
"1065 58 OFFCURVE",
"1065 492 CURVE SMOOTH",
"1065 946 OFFCURVE",
"843 1020 OFFCURVE",
"658 1020 CURVE SMOOTH"
);
},
{
closed = 1;
nodes = (
"683 738 OFFCURVE",
"737 680 OFFCURVE",
"737 489 CURVE SMOOTH",
"737 317 OFFCURVE",
"683 262 OFFCURVE",
"577 262 CURVE SMOOTH",
"503 262 OFFCURVE",
"421 280 OFFCURVE",
"271 386 CURVE",
"411 121 LINE",
"411 868 LINE",
"272 606 LINE",
"421 705 OFFCURVE",
"503 738 OFFCURVE",
"577 738 CURVE SMOOTH"
);
}
);
width = 1121;
}
);
unicode = 0070;
},
{
color = 6;
glyphname = thorn;
layers = (
{
layerId = "1D628CB9-BBF5-410A-9D74-9E6094BFE839";
paths = (
{
closed = 1;
nodes = (
"272 -389 LINE",
"272 43 LINE",
"351 4 OFFCURVE",
"443 -10 OFFCURVE",
"514 -10 CURVE SMOOTH",
"751 -10 OFFCURVE",
"880 126 OFFCURVE",
"880 493 CURVE SMOOTH",
"880 852 OFFCURVE",
"744 1000 OFFCURVE",
"544 1000 CURVE SMOOTH",
"464 1000 OFFCURVE",
"374 985 OFFCURVE",
"272 916 CURVE",
"272 1308 LINE",
"144 1308 LINE",
"144 -389 LINE"
);
},
{
closed = 1;
nodes = (
"412 96 OFFCURVE",
"354 99 OFFCURVE",
"272 137 CURVE",
"272 809 LINE",
"381 872 OFFCURVE",
"460 895 OFFCURVE",
"528 895 CURVE SMOOTH",
"685 895 OFFCURVE",
"752 767 OFFCURVE",
"752 491 CURVE SMOOTH",
"752 206 OFFCURVE",
"676 96 OFFCURVE",
"496 96 CURVE SMOOTH",
"467 96 LINE SMOOTH"
);
}
);
width = 990;
},
{
layerId = "D42B5605-DB46-4B3B-8EA0-4CE7066523CE";
paths = (
{
closed = 1;
nodes = (
"544 1020 OFFCURVE",
"458 977 OFFCURVE",
"397 946 CURVE",
"397 1308 LINE",
"83 1308 LINE",
"83 -389 LINE",
"411 -389 LINE",
"411 29 LINE",
"475 2 OFFCURVE",
"530 -25 OFFCURVE",
"642 -25 CURVE SMOOTH",
"846 -25 OFFCURVE",
"1065 58 OFFCURVE",
"1065 492 CURVE SMOOTH",
"1065 946 OFFCURVE",
"843 1020 OFFCURVE",
"658 1020 CURVE SMOOTH"
);
},
{
closed = 1;
nodes = (
"683 738 OFFCURVE",
"737 680 OFFCURVE",
"737 489 CURVE SMOOTH",
"737 317 OFFCURVE",
"683 262 OFFCURVE",
"577 262 CURVE SMOOTH",
"503 262 OFFCURVE",
"421 280 OFFCURVE",
"271 386 CURVE",
"411 121 LINE",
"411 868 LINE",
"272 606 LINE",
"421 705 OFFCURVE",
"503 738 OFFCURVE",
"577 738 CURVE SMOOTH"
);
}
);
width = 1121;
}
);
unicode = 00FE;
},
{
color = 7;
glyphname = q;
layers = (
{
anchors = (
{
name = bottom;
position = "{496, 0}";
},
{
name = top;
position = "{496, 985}";
}
);
layerId = "1D628CB9-BBF5-410A-9D74-9E6094BFE839";
paths = (
{
closed = 1;
nodes = (
"848 -389 LINE",
"848 985 LINE",
"752 985 LINE",
"721 923 LINE",
"620 985 OFFCURVE",
"550 1000 OFFCURVE",
"466 1000 CURVE SMOOTH",
"261 1000 OFFCURVE",
"112 866 OFFCURVE",
"112 493 CURVE SMOOTH",
"112 126 OFFCURVE",
"250 -10 OFFCURVE",
"487 -10 CURVE SMOOTH",
"536 -10 OFFCURVE",
"621 -8 OFFCURVE",
"720 41 CURVE",
"720 -389 LINE"
);
},
{
closed = 1;
nodes = (
"311 95 OFFCURVE",
"240 206 OFFCURVE",
"240 491 CURVE SMOOTH",
"240 767 OFFCURVE",
"321 895 OFFCURVE",
"478 895 CURVE SMOOTH",
"554 895 OFFCURVE",
"626 881 OFFCURVE",
"760 797 CURVE",
"720 866 LINE",
"720 92 LINE",
"754 158 LINE",
"663 110 OFFCURVE",
"604 95 OFFCURVE",
"491 95 CURVE SMOOTH"
);
}
);
width = 992;
},
{
anchors = (
{
name = bottom;
position = "{441, 0}";
},
{
name = top;
position = "{441, 985}";
}
);
layerId = "D42B5605-DB46-4B3B-8EA0-4CE7066523CE";
paths = (
{
closed = 1;
nodes = (
"278 1020 OFFCURVE",
"56 946 OFFCURVE",
"56 492 CURVE SMOOTH",
"56 58 OFFCURVE",
"275 -25 OFFCURVE",
"479 -25 CURVE SMOOTH",
"591 -25 OFFCURVE",
"646 2 OFFCURVE",
"710 29 CURVE",
"710 -389 LINE",
"1038 -389 LINE",
"1038 1015 LINE",
"744 1015 LINE",
"724 946 LINE",
"663 977 OFFCURVE",
"577 1020 OFFCURVE",
"463 1020 CURVE SMOOTH"
);
},
{
closed = 1;
nodes = (
"618 733 OFFCURVE",
"700 700 OFFCURVE",
"849 601 CURVE",
"710 868 LINE",
"710 121 LINE",
"850 386 LINE",
"700 280 OFFCURVE",
"618 262 OFFCURVE",
"544 262 CURVE SMOOTH",
"438 262 OFFCURVE",
"384 317 OFFCURVE",
"384 489 CURVE SMOOTH",
"384 680 OFFCURVE",
"438 733 OFFCURVE",
"544 733 CURVE SMOOTH"
);
}
);
width = 1121;
}
);
unicode = 0071;
},
{
color = 7;
glyphname = r;
layers = (
{
anchors = (
{
name = bottom;
position = "{214, 0}";
},
{
name = top;
position = "{367, 985}";
}
);
layerId = "1D628CB9-BBF5-410A-9D74-9E6094BFE839";
paths = (
{
closed = 1;
nodes = (
"278 0 LINE",
"278 834 LINE",
"263 777 LINE",
"316 826 OFFCURVE",
"460 878 OFFCURVE",
"598 878 CURVE",
"598 1000 LINE",
"491 996 OFFCURVE",
"346 934 OFFCURVE",
"268 881 CURVE",
"246 985 LINE",
"150 985 LINE",
"150 0 LINE"
);
}
);
width = 664;
},
{
anchors = (
{
name = bottom;
position = "{233, -50}";
},
{
name = top;
position = "{429, 1035}";
}
);
layerId = "D42B5605-DB46-4B3B-8EA0-4CE7066523CE";
paths = (
{
closed = 1;
nodes = (
"411 0 LINE",
"411 749 LINE",
"346 597 LINE",
"433 690 OFFCURVE",
"664 708 OFFCURVE",
"741 708 CURVE",
"741 1030 LINE",
"639 1026 OFFCURVE",
"484 962 OFFCURVE",
"401 899 CURVE",
"369 1015 LINE",
"83 1015 LINE",
"83 0 LINE"
);
}
);
width = 778;
}
);
unicode = 0072;
},
{
color = 7;
glyphname = s;
layers = (
{
anchors = (
{
name = bottom;
position = "{423, 0}";
},
{
name = cedilla;
position = "{402, 0}";
},
{
name = top;
position = "{423, 985}";
}
);
guideLines = (
{
angle = 68.2748;
position = "{719, 889}";
},
{
angle = 68.2748;
position = "{316, 520}";
}
);
layerId = "1D628CB9-BBF5-410A-9D74-9E6094BFE839";
paths = (
{
closed = 1;
nodes = (
"613 -10 OFFCURVE",
"766 63 OFFCURVE",
"766 271 CURVE SMOOTH",
"766 432 OFFCURVE",
"683 496 OFFCURVE",
"545 540 CURVE SMOOTH",
"398 587 LINE SMOOTH",
"296 620 OFFCURVE",
"249 634 OFFCURVE",
"249 730 CURVE SMOOTH",
"249 852 OFFCURVE",
"328 895 OFFCURVE",
"458 895 CURVE SMOOTH",
"530 895 OFFCURVE",
"618 870 OFFCURVE",
"679 844 CURVE",
"717 942 LINE",
"639 978 OFFCURVE",
"543 1000 OFFCURVE",
"451 1000 CURVE SMOOTH",
"281 1000 OFFCURVE",
"127 926 OFFCURVE",
"127 735 CURVE SMOOTH",
"127 568 OFFCURVE",
"215 518 OFFCURVE",
"360 472 CURVE SMOOTH",
"510 425 LINE SMOOTH",
"610 394 OFFCURVE",
"641 364 OFFCURVE",
"641 265 CURVE SMOOTH",
"641 137 OFFCURVE",
"565 96 OFFCURVE",
"436 96 CURVE SMOOTH",
"336 96 OFFCURVE",
"218 137 OFFCURVE",
"153 168 CURVE",
"113 69 LINE",
"206 21 OFFCURVE",
"331 -10 OFFCURVE",
"442 -10 CURVE SMOOTH"
);
}
);
width = 846;
},
{
anchors = (
{
name = bottom;
position = "{469, -50}";
},
{
name = cedilla;
position = "{432, 0}";
},
{
name = top;
position = "{459, 1035}";
}
);
guideLines = (
{
angle = 68.2748;
position = "{4327, 1169}";
},
{
angle = 68.2748;
position = "{3761, 570}";
},
{
angle = 163.6996;
position = "{3824, 646}";
},
{
angle = 163.6996;
position = "{3656, 469}";
}
);
layerId = "D42B5605-DB46-4B3B-8EA0-4CE7066523CE";
paths = (
{
closed = 1;
nodes = (
"746 -40 OFFCURVE",
"882 96 OFFCURVE",
"882 284 CURVE SMOOTH",
"882 484 OFFCURVE",
"735 567 OFFCURVE",
"620 598 CURVE SMOOTH",
"499 631 LINE SMOOTH",
"380 663 OFFCURVE",
"355 676 OFFCURVE",
"355 713 CURVE SMOOTH",
"355 742 OFFCURVE",
"379 762 OFFCURVE",
"448 762 CURVE SMOOTH",
"533 762 OFFCURVE",
"645 751 OFFCURVE",
"757 715 CURVE",
"850 965 LINE",
"737 1012 OFFCURVE",
"589 1030 OFFCURVE",
"467 1030 CURVE SMOOTH",
"183 1030 OFFCURVE",
"58 906 OFFCURVE",
"58 705 CURVE SMOOTH",
"58 531 OFFCURVE",
"163 449 OFFCURVE",
"288 414 CURVE SMOOTH",
"468 364 LINE SMOOTH",
"552 341 OFFCURVE",
"585 318 OFFCURVE",
"585 283 CURVE SMOOTH",
"585 244 OFFCURVE",
"548 231 OFFCURVE",
"505 231 CURVE SMOOTH",
"420 231 OFFCURVE",
"254 250 OFFCURVE",
"124 317 CURVE",
"35 60 LINE",
"187 -20 OFFCURVE",
"337 -40 OFFCURVE",
"468 -40 CURVE SMOOTH"
);
}
);
width = 911;
}
);
unicode = 0073;
},
{
color = 6;
glyphname = germandbls;
layers = (
{
layerId = "1D628CB9-BBF5-410A-9D74-9E6094BFE839";
paths = (
{
closed = 1;
nodes = (
"792 -10 OFFCURVE",
"937 77 OFFCURVE",
"937 270 CURVE SMOOTH",
"937 558 OFFCURVE",
"541 557 OFFCURVE",
"541 664 CURVE SMOOTH",
"541 733 OFFCURVE",
"648 792 OFFCURVE",
"834 855 CURVE",
"834 1151 OFFCURVE",
"766 1301 OFFCURVE",
"485 1301 CURVE SMOOTH",
"249 1301 OFFCURVE",
"137 1172 OFFCURVE",
"137 912 CURVE SMOOTH",
"137 0 LINE",
"265 0 LINE",
"265 901 LINE SMOOTH",
"265 1100 OFFCURVE",
"326 1195 OFFCURVE",
"481 1195 CURVE SMOOTH",
"653 1195 OFFCURVE",
"706 1122 OFFCURVE",
"706 922 CURVE",
"557 860 OFFCURVE",
"415 784 OFFCURVE",
"415 664 CURVE SMOOTH",
"415 464 OFFCURVE",
"806 474 OFFCURVE",
"806 279 CURVE SMOOTH",
"806 150 OFFCURVE",
"720 95 OFFCURVE",
"615 95 CURVE SMOOTH",
"553 95 OFFCURVE",
"484 117 OFFCURVE",
"422 156 CURVE",
"384 66 LINE",
"459 16 OFFCURVE",
"545 -10 OFFCURVE",
"626 -10 CURVE SMOOTH"
);
}
);
width = 1005;
},
{
layerId = "D42B5605-DB46-4B3B-8EA0-4CE7066523CE";
paths = (
{
closed = 1;
nodes = (
"1093 -40 OFFCURVE",
"1238 116 OFFCURVE",
"1238 299 CURVE SMOOTH",
"1238 577 OFFCURVE",
"892 612 OFFCURVE",
"892 689 CURVE SMOOTH",
"892 748 OFFCURVE",
"959 769 OFFCURVE",
"1115 822 CURVE",
"1115 1118 OFFCURVE",
"1017 1331 OFFCURVE",
"596 1331 CURVE SMOOTH",
"205 1331 OFFCURVE",
"83 1092 OFFCURVE",
"83 832 CURVE SMOOTH",
"83 0 LINE",
"411 0 LINE",
"411 811 LINE SMOOTH",
"411 955 OFFCURVE",
"462 1046 OFFCURVE",
"602 1046 CURVE SMOOTH",
"714 1046 OFFCURVE",
"778 1010 OFFCURVE",
"778 922 CURVE",
"679 886 OFFCURVE",
"546 824 OFFCURVE",
"546 674 CURVE SMOOTH",
"546 464 OFFCURVE",
"910 454 OFFCURVE",
"910 329 CURVE SMOOTH",
"910 250 OFFCURVE",
"821 245 OFFCURVE",
"766 245 CURVE SMOOTH",
"704 245 OFFCURVE",
"627 271 OFFCURVE",
"565 310 CURVE",
"485 56 LINE",
"560 6 OFFCURVE",
"686 -40 OFFCURVE",
"827 -40 CURVE SMOOTH"
);
}
);
width = 1267;
}
);
unicode = 00DF;
},
{
color = 7;
glyphname = t;
layers = (
{
anchors = (
{
name = bottom;
position = "{454, 0}";
},
{
name = cedilla;
position = "{441, 0}";
},
{
name = top;
position = "{490, 1267}";
},
{
name = topright;
position = "{477, 1428}";
}
);
guideLines = (
{
angle = 270;
position = "{649, 680}";
},
{
position = "{159, 1267}";
}
);
layerId = "1D628CB9-BBF5-410A-9D74-9E6094BFE839";
paths = (
{
closed = 1;
nodes = (
"537 -10 OFFCURVE",
"601 -8 OFFCURVE",
"665 0 CURVE",
"650 100 LINE",
"623 98 OFFCURVE",
"572 95 OFFCURVE",
"510 95 CURVE SMOOTH",
"404 95 OFFCURVE",
"341 123 OFFCURVE",
"341 346 CURVE SMOOTH",
"341 934 LINE",
"296 889 LINE",
"649 889 LINE",
"649 985 LINE",
"296 985 LINE",
"341 940 LINE",
"341 1267 LINE",
"242 1267 LINE",
"213 940 LINE",
"262 985 LINE",
"60 985 LINE",
"60 889 LINE",
"258 889 LINE",
"213 934 LINE",
"213 348 LINE SMOOTH",
"213 119 OFFCURVE",
"262 -4 OFFCURVE",
"476 -10 CURVE"
);
}
);
width = 750;
},
{
anchors = (
{
name = bottom;
position = "{524, -50}";
},
{
name = cedilla;
position = "{567, 0}";
},
{
name = top;
position = "{422, 1331}";
},
{
name = topright;
position = "{609, 1889}";
}
);
guideLines = (
{
angle = 270;
position = "{870, 541}";
}
);
layerId = "D42B5605-DB46-4B3B-8EA0-4CE7066523CE";
paths = (
{
closed = 1;
nodes = (
"708 -10 OFFCURVE",
"800 -6 OFFCURVE",
"876 2 CURVE",
"851 280 LINE",
"824 278 OFFCURVE",
"771 275 OFFCURVE",
"731 275 CURVE SMOOTH",
"599 275 OFFCURVE",
"561 296 OFFCURVE",
"561 406 CURVE SMOOTH",
"561 834 LINE",
"416 689 LINE",
"860 689 LINE",
"860 985 LINE",
"416 985 LINE",
"561 840 LINE",
"561 1282 LINE",
"282 1282 LINE",
"233 840 LINE",
"382 985 LINE",
"50 985 LINE",
"50 689 LINE",
"378 689 LINE",
"233 834 LINE",
"233 406 LINE SMOOTH",
"233 213 OFFCURVE",
"283 -10 OFFCURVE",
"617 -10 CURVE SMOOTH"
);
}
);
width = 955;
}
);
unicode = 0074;
},
{
glyphname = tbar;
layers = (
{
layerId = "1D628CB9-BBF5-410A-9D74-9E6094BFE839";
paths = (
{
closed = 1;
nodes = (
"537 -10 OFFCURVE",
"601 -8 OFFCURVE",
"665 0 CURVE",
"660 103 LINE",
"633 99 OFFCURVE",
"572 96 OFFCURVE",
"510 96 CURVE SMOOTH",
"404 96 OFFCURVE",
"341 123 OFFCURVE",
"341 386 CURVE SMOOTH",
"341 551 LINE",
"564 551 LINE",
"564 641 LINE",
"341 641 LINE",
"341 895 LINE",
"649 895 LINE",
"649 985 LINE",
"341 985 LINE",
"341 1267 LINE",
"242 1267 LINE",
"217 985 LINE",
"60 985 LINE",
"60 895 LINE",
"213 895 LINE",
"213 641 LINE",
"76 641 LINE",
"76 551 LINE",
"213 551 LINE",
"213 388 LINE SMOOTH",
"213 119 OFFCURVE",
"262 -4 OFFCURVE",
"476 -10 CURVE"
);
}
);
width = 750;
},
{
layerId = "D42B5605-DB46-4B3B-8EA0-4CE7066523CE";
paths = (
{
closed = 1;
nodes = (
"688 -10 OFFCURVE",
"810 -6 OFFCURVE",
"886 2 CURVE",
"861 280 LINE",
"834 278 OFFCURVE",
"771 275 OFFCURVE",
"731 275 CURVE SMOOTH",
"599 275 OFFCURVE",
"561 296 OFFCURVE",
"561 406 CURVE SMOOTH",
"561 884 LINE",
"416 739 LINE",
"870 739 LINE",
"870 1035 LINE",
"416 1035 LINE",
"561 890 LINE",
"561 1282 LINE",
"282 1282 LINE",
"233 890 LINE",
"382 1035 LINE",
"40 1035 LINE",
"40 739 LINE",
"378 739 LINE",
"233 884 LINE",
"233 406 LINE SMOOTH",
"233 213 OFFCURVE",
"283 -10 OFFCURVE",
"617 -10 CURVE SMOOTH"
);
},
{
closed = 1;
nodes = (
"834 460 LINE",
"834 625 LINE",
"83 625 LINE",
"83 460 LINE"
);
}
);
width = 955;
}
);
unicode = 0167;
},
{
color = 7;
glyphname = u;
layers = (
{
anchors = (
{
name = bottom;
position = "{497, 0}";
},
{
name = ogonek;
position = "{799, 0}";
},
{
name = top;
position = "{497, 985}";
},
{
name = topright;
position = "{854, 664}";
}
);
layerId = "1D628CB9-BBF5-410A-9D74-9E6094BFE839";
paths = (
{
closed = 1;
nodes = (
"523 -10 OFFCURVE",
"600 0 OFFCURVE",
"735 64 CURVE",
"753 0 LINE",
"849 0 LINE",
"849 985 LINE",
"721 985 LINE",
"721 118 LINE",
"759 185 LINE",
"619 97 OFFCURVE",
"521 95 OFFCURVE",
"439 95 CURVE SMOOTH",
"303 95 OFFCURVE",
"260 159 OFFCURVE",
"260 316 CURVE SMOOTH",
"260 985 LINE",
"132 985 LINE",
"132 321 LINE SMOOTH",
"132 93 OFFCURVE",
"223 -10 OFFCURVE",
"426 -10 CURVE SMOOTH"
);
}
);
width = 994;
},
{
anchors = (
{
name = bottom;
position = "{543, -50}";
},
{
name = ogonek;
position = "{890, 0}";
},
{
name = top;
position = "{552, 1055}";
},
{
name = topright;
position = "{1056, 664}";
}
);
layerId = "D42B5605-DB46-4B3B-8EA0-4CE7066523CE";
paths = (
{
closed = 1;
nodes = (
"683 985 LINE",
"683 145 LINE",
"820 405 LINE",
"669 289 OFFCURVE",
"595 270 OFFCURVE",
"521 270 CURVE SMOOTH",
"437 270 OFFCURVE",
"402 302 OFFCURVE",
"402 452 CURVE SMOOTH",
"402 985 LINE",
"74 985 LINE",
"74 322 LINE SMOOTH",
"74 89 OFFCURVE",
"231 -15 OFFCURVE",
"385 -15 CURVE SMOOTH",
"482 -15 OFFCURVE",
"576 -5 OFFCURVE",
"697 59 CURVE",
"725 -5 LINE",
"1011 -5 LINE",
"1011 985 LINE"
);
}
);
width = 1094;
}
);
unicode = 0075;
},
{
glyphname = uhorn;
layers = (
{
anchors = (
{
name = _topright;
position = "{854, 664}";
},
{
name = bottom;
position = "{497, 0}";
},
{
name = ogonek;
position = "{799, 0}";
},
{
name = top;
position = "{497, 985}";
},
{
name = topright;
position = "{854, 664}";
}
);
components = (
{
name = horncomb;
transform = "{1, 0, 0, 1, 819, -320}";
},
{
name = u;
}
);
layerId = "1D628CB9-BBF5-410A-9D74-9E6094BFE839";
width = 1046;
},
{
anchors = (
{
name = _topright;
position = "{850, 664}";
},
{
name = bottom;
position = "{493, 0}";
},
{
name = ogonek;
position = "{795, 0}";
},
{
name = top;
position = "{493, 985}";
},
{
name = topright;
position = "{850, 664}";
}
);
associatedMasterId = "1D628CB9-BBF5-410A-9D74-9E6094BFE839";
layerId = "20967BB6-E54A-4AF0-99B3-39F9609A1E13";
name = "Regular Jul 25 16, 11:48";
paths = (
{
closed = 1;
nodes = (
"519 -10 OFFCURVE",
"596 0 OFFCURVE",
"731 64 CURVE",
"740 0 LINE",
"845 0 LINE",
"845 985 LINE",
"717 985 LINE",
"717 163 LINE",
"597 97 OFFCURVE",
"509 96 OFFCURVE",
"435 96 CURVE SMOOTH",
"299 96 OFFCURVE",
"256 159 OFFCURVE",
"256 316 CURVE SMOOTH",
"256 985 LINE",
"128 985 LINE",
"128 321 LINE SMOOTH",
"128 93 OFFCURVE",
"219 -10 OFFCURVE",
"422 -10 CURVE SMOOTH"
);
},
{
closed = 1;
nodes = (
"860 756 LINE SMOOTH",
"982 797 OFFCURVE",
"1088 856 OFFCURVE",
"1088 981 CURVE SMOOTH",
"1088 1021 OFFCURVE",
"1081 1053 OFFCURVE",
"1071 1079 CURVE",
"939 1079 LINE",
"952 1051 OFFCURVE",
"960 1020 OFFCURVE",
"960 989 CURVE SMOOTH",
"960 913 OFFCURVE",
"921 870 OFFCURVE",
"850 839 CURVE SMOOTH",
"815 824 LINE",
"815 741 LINE"
);
}
);
width = 986;
},
{
components = (
{
name = u;
},
{
name = horncomb;
transform = "{1, 0, 0, 1, 946, -321}";
}
);
layerId = "D42B5605-DB46-4B3B-8EA0-4CE7066523CE";
width = 1094;
}
);
unicode = 01B0;
userData = {
com.schriftgestaltung.Glyphs.ColorIndex = 7;
};
},
{
color = 7;
glyphname = v;
layers = (
{
anchors = (
{
name = bottom;
position = "{460, 0}";
},
{
name = top;
position = "{460, 985}";
}
);
layerId = "1D628CB9-BBF5-410A-9D74-9E6094BFE839";
paths = (
{
closed = 1;
nodes = (
"535 0 LINE",
"851 985 LINE",
"720 985 LINE",
"454 94 LINE",
"481 94 LINE",
"199 985 LINE",
"69 985 LINE",
"398 0 LINE"
);
}
);
width = 920;
},
{
anchors = (
{
name = bottom;
position = "{542, 0}";
},
{
name = top;
position = "{542, 985}";
}
);
layerId = "D42B5605-DB46-4B3B-8EA0-4CE7066523CE";
paths = (
{
closed = 1;
nodes = (
"711 0 LINE",
"1057 985 LINE",
"733 985 LINE",
"513 225 LINE",
"583 225 LINE",
"347 985 LINE",
"15 985 LINE",
"374 0 LINE"
);
}
);
width = 1072;
}
);
unicode = 0076;
},
{
color = 7;
glyphname = w;
layers = (
{
anchors = (
{
name = bottom;
position = "{653, 0}";
},
{
name = top;
position = "{653, 985}";
}
);
layerId = "1D628CB9-BBF5-410A-9D74-9E6094BFE839";
paths = (
{
closed = 1;
nodes = (
"450 0 LINE",
"675 670 LINE",
"647 670 LINE",
"873 0 LINE",
"1013 0 LINE",
"1237 985 LINE",
"1112 985 LINE",
"925 69 LINE",
"948 70 LINE",
"720 763 LINE",
"602 763 LINE",
"371 70 LINE",
"395 69 LINE",
"194 985 LINE",
"69 985 LINE",
"308 0 LINE"
);
}
);
width = 1306;
},
{
anchors = (
{
name = bottom;
position = "{709, 0}";
},
{
name = top;
position = "{709, 1005}";
}
);
guideLines = (
{
position = "{1390, 353}";
},
{
angle = -76.3628;
position = "{-23, 1143}";
},
{
angle = -76.3628;
position = "{272, 1132}";
},
{
angle = 256.3628;
position = "{1410, 1096}";
},
{
angle = 256.3628;
position = "{1115, 1085}";
},
{
angle = 270;
position = "{699, 51}";
}
);
layerId = "D42B5605-DB46-4B3B-8EA0-4CE7066523CE";
paths = (
{
closed = 1;
nodes = (
"506 0 LINE",
"736 588 LINE",
"662 588 LINE",
"892 0 LINE",
"1144 0 LINE",
"1383 985 LINE",
"1071 985 LINE",
"917 269 LINE",
"1044 270 LINE",
"828 873 LINE",
"570 873 LINE",
"367 270 LINE",
"481 269 LINE",
"328 985 LINE",
"15 985 LINE",
"254 0 LINE"
);
}
);
width = 1398;
}
);
unicode = 0077;
},
{
color = 7;
glyphname = x;
layers = (
{
anchors = (
{
name = bottom;
position = "{426, 0}";
},
{
name = top;
position = "{426, 985}";
}
);
layerId = "1D628CB9-BBF5-410A-9D74-9E6094BFE839";
paths = (
{
closed = 1;
nodes = (
"192 0 LINE",
"454 462 LINE",
"410 462 LINE",
"668 0 LINE",
"797 0 LINE",
"490 542 LINE",
"490 464 LINE",
"778 985 LINE",
"643 985 LINE",
"410 539 LINE",
"453 540 LINE",
"200 985 LINE",
"67 985 LINE",
"375 465 LINE",
"375 543 LINE",
"55 0 LINE"
);
}
);
width = 852;
},
{
anchors = (
{
name = bottom;
position = "{628, 0}";
},
{
name = top;
position = "{628, 985}";
}
);
layerId = "D42B5605-DB46-4B3B-8EA0-4CE7066523CE";
paths = (
{
closed = 1;
nodes = (
"359 0 LINE",
"571 372 LINE",
"527 372 LINE",
"735 0 LINE",
"1071 0 LINE",
"737 552 LINE",
"737 474 LINE",
"1052 985 LINE",
"710 985 LINE",
"527 649 LINE",
"570 650 LINE",
"367 985 LINE",
"27 985 LINE",
"362 475 LINE",
"362 553 LINE",
"15 0 LINE"
);
}
);
width = 1086;
}
);
unicode = 0078;
},
{
color = 7;
glyphname = y;
layers = (
{
anchors = (
{
name = bottom;
position = "{716, 0}";
},
{
name = top;
position = "{486, 985}";
}
);
layerId = "1D628CB9-BBF5-410A-9D74-9E6094BFE839";
paths = (
{
closed = 1;
nodes = (
"436 -390 OFFCURVE",
"490 -254 OFFCURVE",
"572 -16 CURVE SMOOTH",
"918 985 LINE",
"782 985 LINE",
"503 123 LINE",
"534 126 LINE",
"193 985 LINE",
"56 985 LINE",
"461 26 LINE",
"434 -55 LINE SMOOTH",
"396 -169 OFFCURVE",
"371 -279 OFFCURVE",
"280 -279 CURVE SMOOTH",
"250 -279 OFFCURVE",
"205 -270 OFFCURVE",
"145 -252 CURVE",
"144 -253 LINE",
"124 -355 LINE",
"184 -378 OFFCURVE",
"238 -390 OFFCURVE",
"289 -390 CURVE SMOOTH"
);
}
);
width = 971;
},
{
anchors = (
{
name = bottom;
position = "{940, 50}";
},
{
name = top;
position = "{550, 1055}";
}
);
guideLines = (
{
angle = 253.4527;
position = "{649, 657}";
}
);
layerId = "D42B5605-DB46-4B3B-8EA0-4CE7066523CE";
paths = (
{
closed = 1;
nodes = (
"568 -430 OFFCURVE",
"629 -289 OFFCURVE",
"726 -16 CURVE SMOOTH",
"1082 985 LINE",
"746 985 LINE",
"514 202 LINE",
"631 202 LINE",
"346 985 LINE",
"10 985 LINE",
"414 24 LINE",
"397 -28 LINE SMOOTH",
"371 -108 OFFCURVE",
"345 -145 OFFCURVE",
"274 -145 CURVE SMOOTH",
"244 -145 OFFCURVE",
"159 -136 OFFCURVE",
"99 -121 CURVE",
"78 -389 LINE",
"138 -409 OFFCURVE",
"248 -430 OFFCURVE",
"299 -430 CURVE SMOOTH"
);
}
);
width = 1107;
}
);
unicode = 0079;
},
{
color = 7;
glyphname = z;
layers = (
{
anchors = (
{
name = bottom;
position = "{424, 0}";
},
{
name = top;
position = "{438, 985}";
}
);
guideLines = (
{
angle = 90;
position = "{144, 940}";
},
{
angle = 270;
position = "{729, 45}";
},
{
angle = 98.2971;
position = "{88, 339}";
}
);
layerId = "1D628CB9-BBF5-410A-9D74-9E6094BFE839";
paths = (
{
closed = 1;
nodes = (
"729 0 LINE",
"729 90 LINE",
"219 90 LINE",
"238 51 LINE",
"714 900 LINE",
"704 985 LINE",
"144 985 LINE",
"144 895 LINE",
"620 895 LINE",
"601 934 LINE",
"123 96 LINE",
"137 0 LINE"
);
}
);
width = 807;
},
{
anchors = (
{
name = bottom;
position = "{480, -50}";
},
{
name = top;
position = "{487, 1035}";
}
);
guideLines = (
{
angle = -85.8095;
position = "{830, 890}";
},
{
angle = 180;
position = "{356, 700}";
},
{
position = "{568, 285}";
},
{
angle = 270;
position = "{883, 143}";
},
{
angle = 90;
position = "{73, 843}";
},
{
angle = -83.9217;
position = "{828, 1057}";
},
{
angle = -83.9217;
position = "{26, 470}";
}
);
layerId = "D42B5605-DB46-4B3B-8EA0-4CE7066523CE";
paths = (
{
closed = 1;
nodes = (
"883 0 LINE",
"883 285 LINE",
"268 285 LINE",
"346 147 LINE",
"859 740 LINE",
"836 985 LINE",
"73 985 LINE",
"73 700 LINE",
"639 700 LINE",
"577 855 LINE",
"53 245 LINE",
"76 0 LINE"
);
}
);
width = 928;
}
);
unicode = 007A;
},
{
glyphname = k.001;
layers = (
{
anchors = (
{
name = bottom;
position = "{503, 0}";
},
{
name = top;
position = "{473, 985}";
}
);
layerId = "1D628CB9-BBF5-410A-9D74-9E6094BFE839";
paths = (
{
closed = 1;
nodes = (
"272 0 LINE",
"272 377 LINE",
"363 458 LINE",
"764 0 LINE",
"912 0 LINE",
"460 522 LINE",
"876 985 LINE",
"723 985 LINE",
"524 760 OFFCURVE",
"374 603 OFFCURVE",
"272 494 CURVE",
"272 1358 LINE",
"144 1358 LINE",
"144 0 LINE"
);
}
);
width = 945;
},
{
layerId = "D42B5605-DB46-4B3B-8EA0-4CE7066523CE";
width = 600;
}
);
userData = {
com.fontlab.hintData = {
hhints = (
{
position = 0;
width = 21;
},
{
position = 965;
width = 20;
},
{
position = 1338;
width = 20;
}
);
vhints = (
{
position = 140;
width = 128;
}
);
};
};
},
{
glyphname = kgreenlandic.001;
layers = (
{
layerId = "1D628CB9-BBF5-410A-9D74-9E6094BFE839";
paths = (
{
closed = 1;
nodes = (
"272 0 LINE",
"272 364 LINE",
"363 445 LINE",
"389 416 LINE",
"389 416 OFFCURVE",
"571 209 OFFCURVE",
"764 0 CURVE",
"925 0 LINE",
"461 504 LINE",
"889 985 LINE",
"723 985 LINE",
"524 754 OFFCURVE",
"374 593 OFFCURVE",
"272 481 CURVE",
"272 985 LINE",
"144 985 LINE",
"144 0 LINE"
);
}
);
width = 961;
},
{
layerId = "D42B5605-DB46-4B3B-8EA0-4CE7066523CE";
paths = (
{
closed = 1;
nodes = (
"472 0 LINE",
"472 303 LINE",
"511 329 LINE",
"799 0 LINE",
"1210 0 LINE",
"755 515 LINE",
"1149 985 LINE",
"763 985 LINE",
"472 621 LINE",
"472 985 LINE",
"144 985 LINE",
"144 0 LINE"
);
}
);
width = 1295;
}
);
},
{
glyphname = r.001;
layers = (
{
anchors = (
{
name = bottom;
position = "{214, 0}";
},
{
name = top;
position = "{367, 985}";
}
);
layerId = "1D628CB9-BBF5-410A-9D74-9E6094BFE839";
paths = (
{
closed = 1;
nodes = (
"278 0 LINE",
"278 804 LINE",
"319 834 OFFCURVE",
"408 910 OFFCURVE",
"495 910 CURVE SMOOTH",
"547 910 OFFCURVE",
"596 881 OFFCURVE",
"621 863 CURVE",
"678 949 LINE",
"603 997 OFFCURVE",
"561 1004 OFFCURVE",
"506 1004 CURVE",
"409 1004 OFFCURVE",
"311 925 OFFCURVE",
"268 896 CURVE",
"255 985 LINE",
"150 985 LINE",
"150 0 LINE"
);
}
);
width = 659;
},
{
layerId = "D42B5605-DB46-4B3B-8EA0-4CE7066523CE";
width = 600;
}
);
},
{
glyphname = f_f;
layers = (
{
layerId = "1D628CB9-BBF5-410A-9D74-9E6094BFE839";
paths = (
{
closed = 1;
nodes = (
"386 0 LINE",
"386 887 LINE",
"844 887 LINE",
"844 0 LINE",
"972 0 LINE",
"972 887 LINE",
"1206 887 LINE",
"1206 985 LINE",
"972 985 LINE",
"972 1250 OFFCURVE",
"1015 1289 OFFCURVE",
"1131 1289 CURVE SMOOTH",
"1169 1289 OFFCURVE",
"1250 1274 OFFCURVE",
"1272 1268 CURVE",
"1288 1368 LINE",
"1221 1391 OFFCURVE",
"1159 1394 OFFCURVE",
"1103 1394 CURVE",
"890 1387 OFFCURVE",
"844 1271 OFFCURVE",
"844 985 CURVE",
"386 985 LINE",
"386 1250 OFFCURVE",
"429 1289 OFFCURVE",
"545 1289 CURVE SMOOTH",
"583 1289 OFFCURVE",
"664 1274 OFFCURVE",
"686 1268 CURVE",
"702 1368 LINE",
"635 1391 OFFCURVE",
"573 1394 OFFCURVE",
"517 1394 CURVE",
"304 1387 OFFCURVE",
"258 1271 OFFCURVE",
"258 985 CURVE",
"91 985 LINE",
"91 887 LINE",
"258 887 LINE",
"258 0 LINE"
);
}
);
width = 1280;
},
{
layerId = "D42B5605-DB46-4B3B-8EA0-4CE7066523CE";
paths = (
{
closed = 1;
nodes = (
"1508 1117 OFFCURVE",
"1597 1100 OFFCURVE",
"1644 1089 CURVE",
"1683 1357 LINE",
"1624 1375 OFFCURVE",
"1484 1397 OFFCURVE",
"1418 1397 CURVE SMOOTH",
"1136 1397 OFFCURVE",
"1024 1281 OFFCURVE",
"1019 942 CURVE",
"1085 985 LINE",
"459 985 LINE",
"528 930 LINE",
"510 1093 OFFCURVE",
"552 1117 OFFCURVE",
"640 1117 CURVE SMOOTH",
"689 1117 OFFCURVE",
"778 1100 OFFCURVE",
"825 1089 CURVE",
"864 1357 LINE",
"805 1375 OFFCURVE",
"665 1397 OFFCURVE",
"599 1397 CURVE SMOOTH",
"317 1397 OFFCURVE",
"205 1281 OFFCURVE",
"200 942 CURVE",
"266 985 LINE",
"25 985 LINE",
"25 687 LINE",
"265 687 LINE",
"200 752 LINE",
"200 0 LINE",
"528 0 LINE",
"528 752 LINE",
"463 687 LINE",
"1084 687 LINE",
"1019 752 LINE",
"1019 0 LINE",
"1347 0 LINE",
"1347 752 LINE",
"1282 687 LINE",
"1611 687 LINE",
"1611 985 LINE",
"1278 985 LINE",
"1347 930 LINE",
"1329 1093 OFFCURVE",
"1371 1117 OFFCURVE",
"1459 1117 CURVE SMOOTH"
);
}
);
width = 1693;
}
);
},
{
glyphname = f_f_i;
layers = (
{
layerId = "1D628CB9-BBF5-410A-9D74-9E6094BFE839";
paths = (
{
closed = 1;
nodes = (
"386 0 LINE",
"386 887 LINE",
"901 889 LINE",
"901 0 LINE",
"1029 0 LINE",
"1029 889 LINE",
"1578 889 LINE",
"1578 90 LINE",
"1386 90 LINE",
"1386 0 LINE",
"1898 0 LINE",
"1898 90 LINE",
"1706 90 LINE",
"1706 985 LINE",
"1029 985 LINE",
"1029 1250 OFFCURVE",
"1072 1289 OFFCURVE",
"1188 1289 CURVE SMOOTH",
"1226 1289 OFFCURVE",
"1307 1274 OFFCURVE",
"1329 1268 CURVE",
"1345 1368 LINE",
"1278 1391 OFFCURVE",
"1216 1394 OFFCURVE",
"1160 1394 CURVE",
"947 1387 OFFCURVE",
"901 1271 OFFCURVE",
"901 985 CURVE",
"386 985 LINE",
"386 1250 OFFCURVE",
"428 1289 OFFCURVE",
"544 1289 CURVE SMOOTH",
"582 1289 OFFCURVE",
"664 1274 OFFCURVE",
"686 1268 CURVE",
"702 1368 LINE",
"635 1391 OFFCURVE",
"572 1394 OFFCURVE",
"516 1394 CURVE",
"303 1387 OFFCURVE",
"258 1271 OFFCURVE",
"258 985 CURVE",
"91 985 LINE",
"91 887 LINE",
"258 887 LINE",
"258 0 LINE"
);
},
{
closed = 1;
nodes = (
"1695 1176 OFFCURVE",
"1732 1206 OFFCURVE",
"1732 1266 CURVE SMOOTH",
"1732 1326 OFFCURVE",
"1695 1356 OFFCURVE",
"1642 1356 CURVE SMOOTH",
"1591 1356 OFFCURVE",
"1551 1321 OFFCURVE",
"1551 1264 CURVE SMOOTH",
"1551 1208 OFFCURVE",
"1591 1176 OFFCURVE",
"1642 1176 CURVE SMOOTH"
);
}
);
width = 1952;
},
{
layerId = "D42B5605-DB46-4B3B-8EA0-4CE7066523CE";
paths = (
{
closed = 1;
nodes = (
"2156 1106 OFFCURVE",
"2242 1192 OFFCURVE",
"2242 1298 CURVE SMOOTH",
"2242 1401 OFFCURVE",
"2156 1487 OFFCURVE",
"2051 1487 CURVE SMOOTH",
"1946 1487 OFFCURVE",
"1861 1401 OFFCURVE",
"1861 1298 CURVE SMOOTH",
"1861 1192 OFFCURVE",
"1946 1106 OFFCURVE",
"2051 1106 CURVE SMOOTH"
);
},
{
closed = 1;
nodes = (
"2221 985 LINE",
"1343 985 LINE",
"1340 1099 OFFCURVE",
"1382 1117 OFFCURVE",
"1459 1117 CURVE SMOOTH",
"1508 1117 OFFCURVE",
"1597 1100 OFFCURVE",
"1644 1089 CURVE",
"1683 1357 LINE",
"1624 1375 OFFCURVE",
"1484 1397 OFFCURVE",
"1418 1397 CURVE SMOOTH",
"1148 1397 OFFCURVE",
"1034 1291 OFFCURVE",
"1020 985 CURVE",
"524 985 LINE",
"521 1099 OFFCURVE",
"563 1117 OFFCURVE",
"640 1117 CURVE SMOOTH",
"689 1117 OFFCURVE",
"778 1100 OFFCURVE",
"825 1089 CURVE",
"864 1357 LINE",
"805 1375 OFFCURVE",
"665 1397 OFFCURVE",
"599 1397 CURVE SMOOTH",
"329 1397 OFFCURVE",
"215 1291 OFFCURVE",
"201 985 CURVE",
"25 985 LINE",
"25 687 LINE",
"200 687 LINE",
"200 0 LINE",
"528 0 LINE",
"528 687 LINE",
"1019 687 LINE",
"1019 0 LINE",
"1347 0 LINE",
"1347 687 LINE",
"1893 687 LINE",
"1893 270 LINE",
"1681 270 LINE",
"1681 0 LINE",
"2433 0 LINE",
"2433 270 LINE",
"2221 270 LINE"
);
}
);
width = 2468;
}
);
},
{
glyphname = f_f_ij;
layers = (
{
layerId = "1D628CB9-BBF5-410A-9D74-9E6094BFE839";
paths = (
{
closed = 1;
nodes = (
"386 0 LINE",
"386 887 LINE",
"901 889 LINE",
"901 0 LINE",
"1029 0 LINE",
"1029 889 LINE",
"1578 889 LINE",
"1578 90 LINE",
"1386 90 LINE",
"1386 0 LINE",
"1898 0 LINE",
"1898 90 LINE",
"1706 90 LINE",
"1706 985 LINE",
"1029 985 LINE",
"1029 1250 OFFCURVE",
"1072 1289 OFFCURVE",
"1188 1289 CURVE SMOOTH",
"1226 1289 OFFCURVE",
"1307 1274 OFFCURVE",
"1329 1268 CURVE",
"1345 1368 LINE",
"1278 1391 OFFCURVE",
"1216 1394 OFFCURVE",
"1160 1394 CURVE",
"947 1387 OFFCURVE",
"901 1271 OFFCURVE",
"901 985 CURVE",
"386 985 LINE",
"386 1250 OFFCURVE",
"428 1289 OFFCURVE",
"544 1289 CURVE SMOOTH",
"582 1289 OFFCURVE",
"664 1274 OFFCURVE",
"686 1268 CURVE",
"702 1368 LINE",
"635 1391 OFFCURVE",
"572 1394 OFFCURVE",
"516 1394 CURVE",
"303 1387 OFFCURVE",
"258 1271 OFFCURVE",
"258 985 CURVE",
"91 985 LINE",
"91 887 LINE",
"258 887 LINE",
"258 0 LINE"
);
},
{
closed = 1;
nodes = (
"2324 -295 OFFCURVE",
"2413 -203 OFFCURVE",
"2413 18 CURVE SMOOTH",
"2413 985 LINE",
"2061 985 LINE",
"2061 895 LINE",
"2285 895 LINE",
"2285 28 LINE SMOOTH",
"2285 -123 OFFCURVE",
"2261 -182 OFFCURVE",
"2148 -182 CURVE SMOOTH",
"2085 -182 OFFCURVE",
"2045 -177 OFFCURVE",
"2000 -166 CURVE",
"1984 -275 LINE",
"2039 -291 OFFCURVE",
"2095 -295 OFFCURVE",
"2152 -295 CURVE SMOOTH"
);
},
{
closed = 1;
nodes = (
"1695 1176 OFFCURVE",
"1732 1206 OFFCURVE",
"1732 1266 CURVE SMOOTH",
"1732 1326 OFFCURVE",
"1695 1356 OFFCURVE",
"1642 1356 CURVE SMOOTH",
"1591 1356 OFFCURVE",
"1551 1321 OFFCURVE",
"1551 1264 CURVE SMOOTH",
"1551 1208 OFFCURVE",
"1591 1176 OFFCURVE",
"1642 1176 CURVE SMOOTH"
);
},
{
closed = 1;
nodes = (
"2395 1176 OFFCURVE",
"2432 1206 OFFCURVE",
"2432 1266 CURVE SMOOTH",
"2432 1326 OFFCURVE",
"2395 1356 OFFCURVE",
"2342 1356 CURVE SMOOTH",
"2291 1356 OFFCURVE",
"2251 1321 OFFCURVE",
"2251 1264 CURVE SMOOTH",
"2251 1208 OFFCURVE",
"2291 1176 OFFCURVE",
"2342 1176 CURVE SMOOTH"
);
}
);
width = 2576;
},
{
layerId = "D42B5605-DB46-4B3B-8EA0-4CE7066523CE";
paths = (
{
closed = 1;
nodes = (
"2869 -325 OFFCURVE",
"3103 -233 OFFCURVE",
"3103 88 CURVE SMOOTH",
"3103 1005 LINE",
"2531 1005 LINE",
"2531 735 LINE",
"2820 735 LINE",
"2775 960 LINE",
"2775 115 LINE SMOOTH",
"2775 15 OFFCURVE",
"2746 -40 OFFCURVE",
"2638 -40 CURVE SMOOTH",
"2607 -40 OFFCURVE",
"2534 -36 OFFCURVE",
"2483 -24 CURVE",
"2442 -299 LINE",
"2533 -319 OFFCURVE",
"2625 -325 OFFCURVE",
"2692 -325 CURVE SMOOTH"
);
},
{
closed = 1;
nodes = (
"3043 1108 OFFCURVE",
"3129 1194 OFFCURVE",
"3129 1300 CURVE SMOOTH",
"3129 1403 OFFCURVE",
"3043 1489 OFFCURVE",
"2938 1489 CURVE SMOOTH",
"2833 1489 OFFCURVE",
"2748 1403 OFFCURVE",
"2748 1300 CURVE SMOOTH",
"2748 1194 OFFCURVE",
"2833 1108 OFFCURVE",
"2938 1108 CURVE SMOOTH"
);
},
{
closed = 1;
nodes = (
"2156 1106 OFFCURVE",
"2242 1192 OFFCURVE",
"2242 1298 CURVE SMOOTH",
"2242 1401 OFFCURVE",
"2156 1487 OFFCURVE",
"2051 1487 CURVE SMOOTH",
"1946 1487 OFFCURVE",
"1861 1401 OFFCURVE",
"1861 1298 CURVE SMOOTH",
"1861 1192 OFFCURVE",
"1946 1106 OFFCURVE",
"2051 1106 CURVE SMOOTH"
);
},
{
closed = 1;
nodes = (
"2221 985 LINE",
"1343 985 LINE",
"1340 1099 OFFCURVE",
"1382 1117 OFFCURVE",
"1459 1117 CURVE SMOOTH",
"1508 1117 OFFCURVE",
"1597 1100 OFFCURVE",
"1644 1089 CURVE",
"1683 1357 LINE",
"1624 1375 OFFCURVE",
"1484 1397 OFFCURVE",
"1418 1397 CURVE SMOOTH",
"1148 1397 OFFCURVE",
"1034 1291 OFFCURVE",
"1020 985 CURVE",
"524 985 LINE",
"521 1099 OFFCURVE",
"563 1117 OFFCURVE",
"640 1117 CURVE SMOOTH",
"689 1117 OFFCURVE",
"778 1100 OFFCURVE",
"825 1089 CURVE",
"864 1357 LINE",
"805 1375 OFFCURVE",
"665 1397 OFFCURVE",
"599 1397 CURVE SMOOTH",
"329 1397 OFFCURVE",
"215 1291 OFFCURVE",
"201 985 CURVE",
"25 985 LINE",
"25 687 LINE",
"200 687 LINE",
"200 0 LINE",
"528 0 LINE",
"528 687 LINE",
"1019 687 LINE",
"1019 0 LINE",
"1347 0 LINE",
"1347 687 LINE",
"1893 687 LINE",
"1893 270 LINE",
"1681 270 LINE",
"1681 0 LINE",
"2433 0 LINE",
"2433 270 LINE",
"2221 270 LINE"
);
}
);
width = 3210;
}
);
userData = {
com.schriftgestaltung.Glyphs.leftMetricsKey = f;
com.schriftgestaltung.Glyphs.rightMetricsKey = "=j";
};
},
{
color = 9;
glyphname = f_f_l;
layers = (
{
layerId = "1D628CB9-BBF5-410A-9D74-9E6094BFE839";
paths = (
{
closed = 1;
nodes = (
"386 0 LINE",
"386 887 LINE",
"846 887 LINE",
"846 0 LINE",
"974 0 LINE",
"974 887 LINE",
"1208 887 LINE",
"1208 985 LINE",
"974 985 LINE",
"974 1290 OFFCURVE",
"1037 1309 OFFCURVE",
"1203 1309 CURVE SMOOTH",
"1281 1309 OFFCURVE",
"1392 1289 OFFCURVE",
"1506 1229 CURVE",
"1506 90 LINE",
"1283 90 LINE",
"1283 0 LINE",
"1845 0 LINE",
"1845 90 LINE",
"1634 90 LINE",
"1634 1288 LINE",
"1490 1367 OFFCURVE",
"1319 1414 OFFCURVE",
"1175 1414 CURVE SMOOTH",
"926 1414 OFFCURVE",
"846 1311 OFFCURVE",
"846 985 CURVE",
"386 985 LINE",
"386 1250 OFFCURVE",
"429 1289 OFFCURVE",
"545 1289 CURVE SMOOTH",
"583 1289 OFFCURVE",
"664 1274 OFFCURVE",
"686 1268 CURVE",
"702 1368 LINE",
"635 1391 OFFCURVE",
"573 1394 OFFCURVE",
"517 1394 CURVE",
"304 1387 OFFCURVE",
"258 1271 OFFCURVE",
"258 985 CURVE",
"91 985 LINE",
"91 887 LINE",
"258 887 LINE",
"258 0 LINE"
);
}
);
width = 1929;
},
{
layerId = "D42B5605-DB46-4B3B-8EA0-4CE7066523CE";
paths = (
{
closed = 1;
nodes = (
"2197 1298 LINE",
"1937 1418 OFFCURVE",
"1708 1478 OFFCURVE",
"1478 1478 CURVE SMOOTH",
"1179 1478 OFFCURVE",
"1035 1352 OFFCURVE",
"1020 985 CURVE",
"524 985 LINE",
"521 1099 OFFCURVE",
"563 1117 OFFCURVE",
"640 1117 CURVE SMOOTH",
"689 1117 OFFCURVE",
"778 1100 OFFCURVE",
"825 1089 CURVE",
"864 1357 LINE",
"805 1375 OFFCURVE",
"665 1397 OFFCURVE",
"599 1397 CURVE SMOOTH",
"329 1397 OFFCURVE",
"215 1291 OFFCURVE",
"201 985 CURVE",
"25 985 LINE",
"25 687 LINE",
"200 687 LINE",
"200 0 LINE",
"528 0 LINE",
"528 687 LINE",
"1019 687 LINE",
"1019 0 LINE",
"1347 0 LINE",
"1347 687 LINE",
"1611 687 LINE",
"1611 985 LINE",
"1343 985 LINE",
"1342 1162 OFFCURVE",
"1414 1208 OFFCURVE",
"1519 1208 CURVE SMOOTH",
"1606 1208 OFFCURVE",
"1732 1188 OFFCURVE",
"1869 1128 CURVE",
"1869 270 LINE",
"1626 270 LINE",
"1626 0 LINE",
"2428 0 LINE",
"2428 270 LINE",
"2197 270 LINE"
);
}
);
width = 2463;
}
);
},
{
glyphname = f_ij;
layers = (
{
layerId = "1D628CB9-BBF5-410A-9D74-9E6094BFE839";
paths = (
{
closed = 1;
nodes = (
"386 0 LINE",
"386 887 LINE",
"951 887 LINE",
"951 90 LINE",
"759 90 LINE",
"759 0 LINE",
"1271 0 LINE",
"1271 90 LINE",
"1079 90 LINE",
"1079 985 LINE",
"386 985 LINE",
"386 1250 OFFCURVE",
"429 1289 OFFCURVE",
"545 1289 CURVE SMOOTH",
"583 1289 OFFCURVE",
"664 1274 OFFCURVE",
"686 1268 CURVE",
"702 1368 LINE",
"635 1391 OFFCURVE",
"573 1394 OFFCURVE",
"517 1394 CURVE",
"304 1387 OFFCURVE",
"258 1271 OFFCURVE",
"258 985 CURVE",
"91 985 LINE",
"91 887 LINE",
"258 887 LINE",
"258 0 LINE"
);
},
{
closed = 1;
nodes = (
"1697 -295 OFFCURVE",
"1786 -203 OFFCURVE",
"1786 18 CURVE SMOOTH",
"1786 985 LINE",
"1434 985 LINE",
"1434 895 LINE",
"1658 895 LINE",
"1658 28 LINE SMOOTH",
"1658 -123 OFFCURVE",
"1634 -182 OFFCURVE",
"1521 -182 CURVE SMOOTH",
"1458 -182 OFFCURVE",
"1418 -177 OFFCURVE",
"1373 -166 CURVE",
"1357 -275 LINE",
"1412 -291 OFFCURVE",
"1468 -295 OFFCURVE",
"1525 -295 CURVE SMOOTH"
);
},
{
closed = 1;
nodes = (
"1068 1176 OFFCURVE",
"1105 1206 OFFCURVE",
"1105 1266 CURVE SMOOTH",
"1105 1326 OFFCURVE",
"1068 1356 OFFCURVE",
"1015 1356 CURVE SMOOTH",
"964 1356 OFFCURVE",
"924 1321 OFFCURVE",
"924 1264 CURVE SMOOTH",
"924 1208 OFFCURVE",
"964 1176 OFFCURVE",
"1015 1176 CURVE SMOOTH"
);
},
{
closed = 1;
nodes = (
"1768 1176 OFFCURVE",
"1805 1206 OFFCURVE",
"1805 1266 CURVE SMOOTH",
"1805 1326 OFFCURVE",
"1768 1356 OFFCURVE",
"1715 1356 CURVE SMOOTH",
"1664 1356 OFFCURVE",
"1624 1321 OFFCURVE",
"1624 1264 CURVE SMOOTH",
"1624 1208 OFFCURVE",
"1664 1176 OFFCURVE",
"1715 1176 CURVE SMOOTH"
);
}
);
width = 1949;
},
{
layerId = "D42B5605-DB46-4B3B-8EA0-4CE7066523CE";
paths = (
{
closed = 1;
nodes = (
"1337 1106 OFFCURVE",
"1423 1192 OFFCURVE",
"1423 1298 CURVE SMOOTH",
"1423 1401 OFFCURVE",
"1337 1487 OFFCURVE",
"1232 1487 CURVE SMOOTH",
"1127 1487 OFFCURVE",
"1042 1401 OFFCURVE",
"1042 1298 CURVE SMOOTH",
"1042 1192 OFFCURVE",
"1127 1106 OFFCURVE",
"1232 1106 CURVE SMOOTH"
);
},
{
closed = 1;
nodes = (
"200 687 LINE",
"200 0 LINE",
"528 0 LINE",
"528 687 LINE",
"1074 687 LINE",
"1074 270 LINE",
"862 270 LINE",
"862 0 LINE",
"1614 0 LINE",
"1614 270 LINE",
"1402 270 LINE",
"1402 985 LINE",
"524 985 LINE",
"521 1099 OFFCURVE",
"563 1117 OFFCURVE",
"640 1117 CURVE SMOOTH",
"689 1117 OFFCURVE",
"778 1100 OFFCURVE",
"825 1089 CURVE",
"864 1357 LINE",
"805 1375 OFFCURVE",
"665 1397 OFFCURVE",
"599 1397 CURVE SMOOTH",
"329 1397 OFFCURVE",
"215 1291 OFFCURVE",
"201 985 CURVE",
"25 985 LINE",
"25 687 LINE"
);
},
{
closed = 1;
nodes = (
"2104 -325 OFFCURVE",
"2338 -233 OFFCURVE",
"2338 88 CURVE SMOOTH",
"2338 1005 LINE",
"1766 1005 LINE",
"1766 735 LINE",
"2055 735 LINE",
"2010 960 LINE",
"2010 115 LINE SMOOTH",
"2010 15 OFFCURVE",
"1981 -40 OFFCURVE",
"1873 -40 CURVE SMOOTH",
"1842 -40 OFFCURVE",
"1769 -36 OFFCURVE",
"1718 -24 CURVE",
"1677 -299 LINE",
"1768 -319 OFFCURVE",
"1860 -325 OFFCURVE",
"1927 -325 CURVE SMOOTH"
);
},
{
closed = 1;
nodes = (
"2278 1108 OFFCURVE",
"2364 1194 OFFCURVE",
"2364 1300 CURVE SMOOTH",
"2364 1403 OFFCURVE",
"2278 1489 OFFCURVE",
"2173 1489 CURVE SMOOTH",
"2068 1489 OFFCURVE",
"1983 1403 OFFCURVE",
"1983 1300 CURVE SMOOTH",
"1983 1194 OFFCURVE",
"2068 1108 OFFCURVE",
"2173 1108 CURVE SMOOTH"
);
}
);
width = 2445;
}
);
userData = {
com.schriftgestaltung.Glyphs.leftMetricsKey = f;
com.schriftgestaltung.Glyphs.rightMetricsKey = "=j";
};
},
{
glyphname = fi;
layers = (
{
layerId = "1D628CB9-BBF5-410A-9D74-9E6094BFE839";
paths = (
{
closed = 1;
nodes = (
"386 0 LINE",
"386 887 LINE",
"951 887 LINE",
"951 90 LINE",
"759 90 LINE",
"759 0 LINE",
"1271 0 LINE",
"1271 90 LINE",
"1079 90 LINE",
"1079 985 LINE",
"386 985 LINE",
"386 1250 OFFCURVE",
"429 1289 OFFCURVE",
"545 1289 CURVE SMOOTH",
"583 1289 OFFCURVE",
"664 1274 OFFCURVE",
"686 1268 CURVE",
"702 1368 LINE",
"635 1391 OFFCURVE",
"573 1394 OFFCURVE",
"517 1394 CURVE",
"304 1387 OFFCURVE",
"258 1271 OFFCURVE",
"258 985 CURVE",
"91 985 LINE",
"91 887 LINE",
"258 887 LINE",
"258 0 LINE"
);
},
{
closed = 1;
nodes = (
"1068 1176 OFFCURVE",
"1105 1206 OFFCURVE",
"1105 1266 CURVE SMOOTH",
"1105 1326 OFFCURVE",
"1068 1356 OFFCURVE",
"1015 1356 CURVE SMOOTH",
"964 1356 OFFCURVE",
"924 1321 OFFCURVE",
"924 1264 CURVE SMOOTH",
"924 1208 OFFCURVE",
"964 1176 OFFCURVE",
"1015 1176 CURVE SMOOTH"
);
}
);
width = 1325;
},
{
layerId = "D42B5605-DB46-4B3B-8EA0-4CE7066523CE";
paths = (
{
closed = 1;
nodes = (
"1327 1106 OFFCURVE",
"1413 1192 OFFCURVE",
"1413 1298 CURVE SMOOTH",
"1413 1401 OFFCURVE",
"1327 1487 OFFCURVE",
"1222 1487 CURVE SMOOTH",
"1117 1487 OFFCURVE",
"1032 1401 OFFCURVE",
"1032 1298 CURVE SMOOTH",
"1032 1192 OFFCURVE",
"1117 1106 OFFCURVE",
"1222 1106 CURVE SMOOTH"
);
},
{
closed = 1;
nodes = (
"200 687 LINE",
"200 0 LINE",
"528 0 LINE",
"528 687 LINE",
"1064 687 LINE",
"1064 270 LINE",
"852 270 LINE",
"852 0 LINE",
"1604 0 LINE",
"1604 270 LINE",
"1392 270 LINE",
"1392 985 LINE",
"524 985 LINE",
"521 1099 OFFCURVE",
"563 1117 OFFCURVE",
"640 1117 CURVE SMOOTH",
"689 1117 OFFCURVE",
"778 1100 OFFCURVE",
"825 1089 CURVE",
"864 1357 LINE",
"805 1375 OFFCURVE",
"665 1397 OFFCURVE",
"599 1397 CURVE SMOOTH",
"329 1397 OFFCURVE",
"215 1291 OFFCURVE",
"201 985 CURVE",
"25 985 LINE",
"25 687 LINE"
);
}
);
width = 1639;
}
);
unicode = FB01;
},
{
glyphname = fl;
layers = (
{
layerId = "1D628CB9-BBF5-410A-9D74-9E6094BFE839";
paths = (
{
closed = 1;
nodes = (
"386 0 LINE",
"386 887 LINE",
"620 887 LINE",
"620 985 LINE",
"386 985 LINE",
"386 1231 OFFCURVE",
"453 1262 OFFCURVE",
"635 1262 CURVE SMOOTH",
"983 1262 LINE",
"983 90 LINE",
"760 90 LINE",
"760 0 LINE",
"1322 0 LINE",
"1322 90 LINE",
"1111 90 LINE",
"1111 1358 LINE",
"607 1358 LINE SMOOTH",
"320 1358 OFFCURVE",
"258 1246 OFFCURVE",
"258 985 CURVE",
"91 985 LINE",
"91 887 LINE",
"258 887 LINE",
"258 0 LINE"
);
}
);
width = 1376;
},
{
layerId = "D42B5605-DB46-4B3B-8EA0-4CE7066523CE";
paths = (
{
closed = 1;
nodes = (
"200 687 LINE",
"200 0 LINE",
"528 0 LINE",
"528 687 LINE",
"792 687 LINE",
"792 985 LINE",
"524 985 LINE",
"523 1082 OFFCURVE",
"565 1108 OFFCURVE",
"640 1108 CURVE SMOOTH",
"1080 1108 LINE",
"1080 270 LINE",
"837 270 LINE",
"837 0 LINE",
"1639 0 LINE",
"1639 270 LINE",
"1408 270 LINE",
"1408 1378 LINE",
"599 1378 LINE SMOOTH",
"330 1378 OFFCURVE",
"216 1272 OFFCURVE",
"201 985 CURVE",
"25 985 LINE",
"25 687 LINE"
);
}
);
width = 1674;
}
);
unicode = FB02;
},
{
glyphname = ordfeminine;
layers = (
{
layerId = "1D628CB9-BBF5-410A-9D74-9E6094BFE839";
paths = (
{
closed = 1;
nodes = (
"414 681 OFFCURVE",
"481 712 OFFCURVE",
"511 737 CURVE",
"524 687 LINE",
"599 687 LINE",
"599 1105 LINE SMOOTH",
"599 1292 OFFCURVE",
"505 1353 OFFCURVE",
"380 1353 CURVE SMOOTH",
"315 1353 OFFCURVE",
"239 1338 OFFCURVE",
"170 1314 CURVE",
"187 1235 LINE",
"252 1256 OFFCURVE",
"321 1270 OFFCURVE",
"376 1270 CURVE SMOOTH",
"460 1270 OFFCURVE",
"503 1245 OFFCURVE",
"503 1093 CURVE SMOOTH",
"503 1055 LINE",
"430 1069 OFFCURVE",
"411 1072 OFFCURVE",
"378 1072 CURVE SMOOTH",
"198 1072 OFFCURVE",
"132 955 OFFCURVE",
"132 866 CURVE SMOOTH",
"132 743 OFFCURVE",
"220 681 OFFCURVE",
"342 681 CURVE SMOOTH"
);
},
{
closed = 1;
nodes = (
"271 761 OFFCURVE",
"228 801 OFFCURVE",
"228 872 CURVE SMOOTH",
"228 960 OFFCURVE",
"303 997 OFFCURVE",
"397 997 CURVE SMOOTH",
"426 997 OFFCURVE",
"461 994 OFFCURVE",
"503 980 CURVE",
"503 804 LINE",
"466 780 OFFCURVE",
"415 761 OFFCURVE",
"356 761 CURVE SMOOTH"
);
}
);
width = 738;
},
{
guideLines = (
{
position = "{653, 652}";
}
);
layerId = "D42B5605-DB46-4B3B-8EA0-4CE7066523CE";
paths = (
{
closed = 1;
nodes = (
"334 652 OFFCURVE",
"395 689 OFFCURVE",
"453 735 CURVE",
"401 747 LINE",
"431 664 LINE",
"615 664 LINE",
"615 1057 LINE SMOOTH",
"615 1259 OFFCURVE",
"479 1331 OFFCURVE",
"350 1331 CURVE SMOOTH",
"287 1331 OFFCURVE",
"202 1329 OFFCURVE",
"70 1291 CURVE",
"113 1126 LINE",
"204 1149 OFFCURVE",
"266 1153 OFFCURVE",
"307 1153 CURVE SMOOTH",
"386 1153 OFFCURVE",
"404 1123 OFFCURVE",
"404 1060 CURVE SMOOTH",
"404 977 LINE",
"438 1042 LINE",
"393 1059 OFFCURVE",
"360 1069 OFFCURVE",
"290 1069 CURVE SMOOTH",
"105 1069 OFFCURVE",
"27 954 OFFCURVE",
"27 857 CURVE SMOOTH",
"27 722 OFFCURVE",
"124 652 OFFCURVE",
"261 652 CURVE SMOOTH"
);
},
{
closed = 1;
nodes = (
"266 806 OFFCURVE",
"241 820 OFFCURVE",
"241 860 CURVE SMOOTH",
"241 888 OFFCURVE",
"262 916 OFFCURVE",
"317 916 CURVE SMOOTH",
"365 916 OFFCURVE",
"387 914 OFFCURVE",
"440 891 CURVE",
"404 973 LINE",
"404 768 LINE",
"435 858 LINE",
"403 829 OFFCURVE",
"358 806 OFFCURVE",
"303 806 CURVE SMOOTH"
);
}
);
width = 698;
}
);
unicode = 00AA;
},
{
glyphname = ordmasculine;
layers = (
{
layerId = "1D628CB9-BBF5-410A-9D74-9E6094BFE839";
paths = (
{
closed = 1;
nodes = (
"560 679 OFFCURVE",
"630 806 OFFCURVE",
"630 1017 CURVE SMOOTH",
"630 1237 OFFCURVE",
"557 1349 OFFCURVE",
"377 1349 CURVE",
"377 1350 LINE",
"197 1350 OFFCURVE",
"127 1224 OFFCURVE",
"127 1015 CURVE SMOOTH",
"127 778 OFFCURVE",
"220 679 OFFCURVE",
"377 679 CURVE SMOOTH"
);
},
{
closed = 1;
nodes = (
"248 768 OFFCURVE",
"219 857 OFFCURVE",
"219 1016 CURVE SMOOTH",
"219 1190 OFFCURVE",
"250 1264 OFFCURVE",
"377 1264 CURVE SMOOTH",
"505 1264 OFFCURVE",
"538 1185 OFFCURVE",
"538 1016 CURVE SMOOTH",
"538 843 OFFCURVE",
"508 768 OFFCURVE",
"377 768 CURVE SMOOTH"
);
}
);
width = 762;
},
{
guideLines = (
{
position = "{653, 652}";
}
);
layerId = "D42B5605-DB46-4B3B-8EA0-4CE7066523CE";
paths = (
{
closed = 1;
nodes = (
"578 652 OFFCURVE",
"687 752 OFFCURVE",
"687 992 CURVE SMOOTH",
"687 1232 OFFCURVE",
"578 1331 OFFCURVE",
"372 1331 CURVE SMOOTH",
"165 1331 OFFCURVE",
"56 1232 OFFCURVE",
"56 992 CURVE SMOOTH",
"56 752 OFFCURVE",
"165 652 OFFCURVE",
"372 652 CURVE SMOOTH"
);
},
{
closed = 1;
nodes = (
"317 851 OFFCURVE",
"285 872 OFFCURVE",
"285 992 CURVE SMOOTH",
"285 1111 OFFCURVE",
"320 1132 OFFCURVE",
"372 1132 CURVE SMOOTH",
"423 1132 OFFCURVE",
"458 1111 OFFCURVE",
"458 992 CURVE SMOOTH",
"458 872 OFFCURVE",
"426 851 OFFCURVE",
"372 851 CURVE SMOOTH"
);
}
);
width = 743;
}
);
unicode = 00BA;
},
{
glyphname = Delta;
layers = (
{
guideLines = (
{
angle = 103.8448;
position = "{809, 670}";
},
{
angle = 103.8448;
position = "{649, 670}";
},
{
angle = 76.1552;
position = "{303, 670}";
},
{
angle = 76.1552;
position = "{463, 670}";
}
);
layerId = "1D628CB9-BBF5-410A-9D74-9E6094BFE839";
paths = (
{
closed = 1;
nodes = (
"974 0 LINE",
"644 1339 LINE",
"468 1339 LINE",
"137 0 LINE"
);
},
{
closed = 1;
nodes = (
"543 1243 LINE",
"567 1243 LINE",
"840 102 LINE",
"272 102 LINE"
);
}
);
width = 1090;
},
{
guideLines = (
{
angle = 103.8448;
position = "{759, 670}";
},
{
angle = 103.8448;
position = "{599, 670}";
},
{
angle = 76.1552;
position = "{253, 670}";
},
{
angle = 76.1552;
position = "{413, 670}";
}
);
layerId = "D42B5605-DB46-4B3B-8EA0-4CE7066523CE";
paths = (
{
closed = 1;
nodes = (
"1004 0 LINE",
"614 1349 LINE",
"398 1349 LINE",
"7 0 LINE"
);
},
{
closed = 1;
nodes = (
"493 785 LINE",
"517 785 LINE",
"662 242 LINE",
"350 242 LINE"
);
}
);
width = 1011;
}
);
unicode = 0394;
},
{
glyphname = Omega;
layers = (
{
guideLines = (
{
position = "{483, 102}";
},
{
position = "{483, 93}";
}
);
layerId = "1D628CB9-BBF5-410A-9D74-9E6094BFE839";
paths = (
{
closed = 1;
nodes = (
"903 0 LINE",
"903 93 LINE",
"730 93 LINE",
"730 102 LINE",
"877 214 OFFCURVE",
"927 461 OFFCURVE",
"927 675 CURVE SMOOTH",
"927 1081 OFFCURVE",
"860 1363 OFFCURVE",
"530 1363 CURVE SMOOTH",
"200 1363 OFFCURVE",
"133 1081 OFFCURVE",
"133 675 CURVE SMOOTH",
"133 461 OFFCURVE",
"187 210 OFFCURVE",
"330 102 CURVE",
"330 93 LINE",
"169 93 LINE",
"169 1 LINE",
"477 1 LINE",
"477 103 LINE",
"314 166 OFFCURVE",
"261 428 OFFCURVE",
"261 675 CURVE SMOOTH",
"261 1050 OFFCURVE",
"310 1257 OFFCURVE",
"530 1257 CURVE SMOOTH",
"750 1257 OFFCURVE",
"798 1050 OFFCURVE",
"799 675 CURVE SMOOTH",
"800 428 OFFCURVE",
"734 158 OFFCURVE",
"584 102 CURVE",
"584 0 LINE"
);
}
);
width = 1063;
},
{
layerId = "D42B5605-DB46-4B3B-8EA0-4CE7066523CE";
paths = (
{
closed = 1;
nodes = (
"1171 0 LINE",
"1171 285 LINE",
"1028 285 LINE",
"1028 296 LINE",
"1079 343 OFFCURVE",
"1165 492 OFFCURVE",
"1165 705 CURVE SMOOTH",
"1165 1181 OFFCURVE",
"1018 1391 OFFCURVE",
"648 1391 CURVE SMOOTH",
"278 1391 OFFCURVE",
"130 1181 OFFCURVE",
"130 705 CURVE SMOOTH",
"130 492 OFFCURVE",
"219 338 OFFCURVE",
"268 296 CURVE",
"268 285 LINE",
"137 285 LINE",
"137 1 LINE",
"585 1 LINE",
"585 295 LINE",
"450 358 OFFCURVE",
"458 568 OFFCURVE",
"458 665 CURVE SMOOTH",
"458 1050 OFFCURVE",
"528 1106 OFFCURVE",
"648 1106 CURVE SMOOTH",
"768 1106 OFFCURVE",
"836 1050 OFFCURVE",
"837 665 CURVE SMOOTH",
"837 568 OFFCURVE",
"830 358 OFFCURVE",
"712 294 CURVE",
"712 0 LINE"
);
}
);
width = 1295;
}
);
unicode = 03A9;
},
{
glyphname = mu;
layers = (
{
layerId = "1D628CB9-BBF5-410A-9D74-9E6094BFE839";
paths = (
{
closed = 1;
nodes = (
"255 -262 OFFCURVE",
"266 -183 OFFCURVE",
"266 -68 CURVE",
"266 55 LINE",
"302 8 OFFCURVE",
"370 -10 OFFCURVE",
"445 -10 CURVE SMOOTH",
"544 -10 OFFCURVE",
"613 20 OFFCURVE",
"737 100 CURVE",
"737 0 LINE",
"862 0 LINE",
"862 985 LINE",
"734 985 LINE",
"734 414 LINE SMOOTH",
"734 352 OFFCURVE",
"731 274 OFFCURVE",
"715 180 CURVE",
"619 120 OFFCURVE",
"559 95 OFFCURVE",
"458 95 CURVE SMOOTH",
"325 95 OFFCURVE",
"275 177 OFFCURVE",
"275 344 CURVE SMOOTH",
"275 985 LINE",
"147 985 LINE",
"147 -66 LINE SMOOTH",
"147 -162 OFFCURVE",
"138 -243 OFFCURVE",
"119 -309 CURVE",
"235 -328 LINE"
);
}
);
width = 993;
},
{
guideLines = (
{
position = "{738, 314}";
}
);
layerId = "D42B5605-DB46-4B3B-8EA0-4CE7066523CE";
paths = (
{
closed = 1;
nodes = (
"415 -298 OFFCURVE",
"430 -183 OFFCURVE",
"430 -68 CURVE SMOOTH",
"430 55 LINE",
"476 8 OFFCURVE",
"534 -10 OFFCURVE",
"589 -10 CURVE SMOOTH",
"648 -10 OFFCURVE",
"739 16 OFFCURVE",
"821 85 CURVE",
"821 0 LINE",
"1146 0 LINE",
"1146 985 LINE",
"818 985 LINE",
"818 528 LINE SMOOTH",
"818 466 OFFCURVE",
"805 358 OFFCURVE",
"789 314 CURVE",
"733 284 OFFCURVE",
"683 275 OFFCURVE",
"612 275 CURVE SMOOTH",
"509 275 OFFCURVE",
"439 307 OFFCURVE",
"439 474 CURVE SMOOTH",
"439 985 LINE",
"111 985 LINE",
"111 -66 LINE SMOOTH",
"111 -162 OFFCURVE",
"105 -239 OFFCURVE",
"83 -309 CURVE",
"392 -368 LINE"
);
}
);
width = 1229;
}
);
unicode = 03BC;
},
{
glyphname = pi;
layers = (
{
layerId = "1D628CB9-BBF5-410A-9D74-9E6094BFE839";
paths = (
{
closed = 1;
nodes = (
"386 0 LINE",
"417 297 OFFCURVE",
"434 566 OFFCURVE",
"439 875 CURVE",
"797 875 LINE",
"797 270 LINE SMOOTH",
"797 178 OFFCURVE",
"801 88 OFFCURVE",
"808 0 CURVE",
"921 0 LINE",
"914 83 OFFCURVE",
"910 177 OFFCURVE",
"910 280 CURVE SMOOTH",
"910 876 LINE",
"1088 876 LINE",
"1088 985 LINE",
"386 985 LINE SMOOTH",
"278 985 OFFCURVE",
"189 979 OFFCURVE",
"118 966 CURVE",
"117 965 LINE",
"126 863 LINE",
"183 871 OFFCURVE",
"250 875 OFFCURVE",
"327 875 CURVE",
"320 539 OFFCURVE",
"302 270 OFFCURVE",
"273 0 CURVE"
);
}
);
width = 1213;
},
{
layerId = "D42B5605-DB46-4B3B-8EA0-4CE7066523CE";
paths = (
{
closed = 1;
nodes = (
"539 0 LINE",
"570 297 OFFCURVE",
"587 566 OFFCURVE",
"592 675 CURVE",
"810 675 LINE",
"810 270 LINE SMOOTH",
"810 178 OFFCURVE",
"814 88 OFFCURVE",
"821 0 CURVE",
"1134 0 LINE",
"1127 83 OFFCURVE",
"1123 177 OFFCURVE",
"1123 280 CURVE SMOOTH",
"1123 676 LINE",
"1311 676 LINE",
"1311 985 LINE",
"439 985 LINE SMOOTH",
"231 985 OFFCURVE",
"132 979 OFFCURVE",
"61 966 CURVE",
"60 965 LINE",
"69 663 LINE",
"126 671 OFFCURVE",
"203 675 OFFCURVE",
"280 675 CURVE",
"273 539 OFFCURVE",
"255 270 OFFCURVE",
"226 0 CURVE"
);
}
);
width = 1371;
}
);
unicode = 03C0;
},
{
glyphname = zero;
layers = (
{
layerId = "1D628CB9-BBF5-410A-9D74-9E6094BFE839";
paths = (
{
closed = 1;
nodes = (
"842 -10 OFFCURVE",
"909 289 OFFCURVE",
"909 646 CURVE SMOOTH",
"909 1003 OFFCURVE",
"844 1301 OFFCURVE",
"511 1301 CURVE SMOOTH",
"184 1301 OFFCURVE",
"111 1030 OFFCURVE",
"111 646 CURVE SMOOTH",
"111 293 OFFCURVE",
"175 -10 OFFCURVE",
"511 -10 CURVE SMOOTH"
);
},
{
closed = 1;
nodes = (
"271 96 OFFCURVE",
"239 310 OFFCURVE",
"239 646 CURVE SMOOTH",
"239 938 OFFCURVE",
"259 1195 OFFCURVE",
"511 1195 CURVE SMOOTH",
"749 1195 OFFCURVE",
"781 983 OFFCURVE",
"781 646 CURVE SMOOTH",
"781 402 OFFCURVE",
"777 96 OFFCURVE",
"511 96 CURVE SMOOTH"
);
}
);
width = 1020;
},
{
layerId = "D42B5605-DB46-4B3B-8EA0-4CE7066523CE";
paths = (
{
closed = 1;
nodes = (
"937 -40 OFFCURVE",
"1059 209 OFFCURVE",
"1059 646 CURVE SMOOTH",
"1059 1083 OFFCURVE",
"939 1331 OFFCURVE",
"561 1331 CURVE SMOOTH",
"189 1331 OFFCURVE",
"61 1110 OFFCURVE",
"61 646 CURVE SMOOTH",
"61 213 OFFCURVE",
"180 -40 OFFCURVE",
"561 -40 CURVE SMOOTH"
);
},
{
closed = 1;
nodes = (
"428 266 OFFCURVE",
"389 374 OFFCURVE",
"389 646 CURVE SMOOTH",
"389 918 OFFCURVE",
"428 1025 OFFCURVE",
"561 1025 CURVE SMOOTH",
"704 1025 OFFCURVE",
"731 918 OFFCURVE",
"731 646 CURVE SMOOTH",
"731 374 OFFCURVE",
"704 266 OFFCURVE",
"561 266 CURVE SMOOTH"
);
}
);
width = 1120;
}
);
unicode = 0030;
},
{
glyphname = one;
layers = (
{
guideLines = (
{
angle = 24.6948;
position = "{457, 1309}";
},
{
angle = 112.494;
position = "{125, 1209}";
},
{
angle = 270;
position = "{164, 743}";
}
);
layerId = "1D628CB9-BBF5-410A-9D74-9E6094BFE839";
paths = (
{
closed = 1;
nodes = (
"708 0 LINE",
"708 101 LINE",
"493 101 LINE",
"493 1284 LINE",
"380 1284 LINE",
"120 1165 LINE",
"158 1074 LINE",
"365 1167 LINE",
"365 101 LINE",
"141 101 LINE",
"141 0 LINE"
);
}
);
width = 807;
},
{
layerId = "D42B5605-DB46-4B3B-8EA0-4CE7066523CE";
paths = (
{
closed = 1;
nodes = (
"995 0 LINE",
"995 285 LINE",
"732 285 LINE",
"732 1284 LINE",
"419 1284 LINE",
"50 1107 LINE",
"166 844 LINE",
"404 957 LINE",
"404 285 LINE",
"112 285 LINE",
"112 0 LINE"
);
}
);
width = 1042;
}
);
unicode = 0031;
},
{
glyphname = two;
layers = (
{
layerId = "1D628CB9-BBF5-410A-9D74-9E6094BFE839";
paths = (
{
closed = 1;
nodes = (
"851 0 LINE",
"841 110 LINE",
"259 110 LINE",
"281 266 OFFCURVE",
"387 359 OFFCURVE",
"498 458 CURVE SMOOTH",
"682 622 OFFCURVE",
"830 728 OFFCURVE",
"830 956 CURVE SMOOTH",
"830 1144 OFFCURVE",
"729 1301 OFFCURVE",
"474 1301 CURVE SMOOTH",
"325 1301 OFFCURVE",
"227 1271 OFFCURVE",
"129 1226 CURVE",
"169 1115 LINE",
"192 1127 OFFCURVE",
"326 1185 OFFCURVE",
"461 1185 CURVE SMOOTH",
"633 1185 OFFCURVE",
"703 1100 OFFCURVE",
"703 952 CURVE SMOOTH",
"703 787 OFFCURVE",
"606 708 OFFCURVE",
"466 594 CURVE SMOOTH",
"292 452 OFFCURVE",
"117 289 OFFCURVE",
"115 0 CURVE"
);
}
);
width = 979;
},
{
layerId = "D42B5605-DB46-4B3B-8EA0-4CE7066523CE";
paths = (
{
closed = 1;
nodes = (
"980 0 LINE",
"940 285 LINE",
"448 285 LINE",
"456 337 OFFCURVE",
"554 422 OFFCURVE",
"639 486 CURVE SMOOTH",
"717 545 OFFCURVE",
"947 673 OFFCURVE",
"947 911 CURVE SMOOTH",
"947 1179 OFFCURVE",
"796 1331 OFFCURVE",
"476 1331 CURVE SMOOTH",
"289 1331 OFFCURVE",
"139 1269 OFFCURVE",
"41 1214 CURVE",
"151 963 LINE",
"174 975 OFFCURVE",
"308 1046 OFFCURVE",
"433 1046 CURVE SMOOTH",
"544 1046 OFFCURVE",
"619 1003 OFFCURVE",
"619 911 CURVE SMOOTH",
"619 786 OFFCURVE",
"460 712 OFFCURVE",
"316 599 CURVE SMOOTH",
"175 488 OFFCURVE",
"44 322 OFFCURVE",
"44 0 CURVE"
);
}
);
width = 1035;
}
);
unicode = 0032;
},
{
glyphname = three;
layers = (
{
guideLines = (
{
position = "{234, 732}";
},
{
position = "{719, 1301}";
},
{
position = "{355, -10}";
},
{
position = "{2212, 349}";
}
);
layerId = "1D628CB9-BBF5-410A-9D74-9E6094BFE839";
paths = (
{
closed = 1;
nodes = (
"662 -10 OFFCURVE",
"869 96 OFFCURVE",
"869 349 CURVE SMOOTH",
"869 550 OFFCURVE",
"751 665 OFFCURVE",
"587 685 CURVE",
"744 725 OFFCURVE",
"817 841 OFFCURVE",
"817 985 CURVE SMOOTH",
"817 1188 OFFCURVE",
"670 1301 OFFCURVE",
"446 1301 CURVE SMOOTH",
"349 1301 OFFCURVE",
"243 1282 OFFCURVE",
"130 1245 CURVE",
"157 1144 LINE",
"256 1178 OFFCURVE",
"354 1195 OFFCURVE",
"451 1195 CURVE SMOOTH",
"608 1195 OFFCURVE",
"689 1120 OFFCURVE",
"689 980 CURVE SMOOTH",
"689 845 OFFCURVE",
"610 732 OFFCURVE",
"439 732 CURVE SMOOTH",
"382 732 OFFCURVE",
"349 732 OFFCURVE",
"281 732 CURVE",
"283 626 LINE",
"332 627 OFFCURVE",
"405 627 OFFCURVE",
"458 627 CURVE SMOOTH",
"620 627 OFFCURVE",
"741 532 OFFCURVE",
"741 349 CURVE SMOOTH",
"741 180 OFFCURVE",
"610 96 OFFCURVE",
"444 96 CURVE SMOOTH",
"360 96 OFFCURVE",
"247 111 OFFCURVE",
"157 145 CURVE",
"130 40 LINE",
"229 3 OFFCURVE",
"332 -10 OFFCURVE",
"439 -10 CURVE SMOOTH"
);
}
);
width = 1014;
},
{
layerId = "D42B5605-DB46-4B3B-8EA0-4CE7066523CE";
paths = (
{
closed = 1;
nodes = (
"804 -40 OFFCURVE",
"949 101 OFFCURVE",
"949 344 CURVE SMOOTH",
"949 507 OFFCURVE",
"831 645 OFFCURVE",
"667 665 CURVE",
"824 707 OFFCURVE",
"897 787 OFFCURVE",
"897 985 CURVE SMOOTH",
"897 1198 OFFCURVE",
"717 1321 OFFCURVE",
"462 1321 CURVE SMOOTH",
"355 1321 OFFCURVE",
"220 1303 OFFCURVE",
"70 1250 CURVE",
"136 982 LINE",
"272 1023 OFFCURVE",
"390 1028 OFFCURVE",
"431 1028 CURVE SMOOTH",
"514 1028 OFFCURVE",
"569 997 OFFCURVE",
"569 910 CURVE SMOOTH",
"569 819 OFFCURVE",
"519 782 OFFCURVE",
"394 782 CURVE SMOOTH",
"241 782 LINE",
"243 526 LINE",
"398 527 LINE SMOOTH",
"564 528 OFFCURVE",
"621 468 OFFCURVE",
"621 395 CURVE SMOOTH",
"621 296 OFFCURVE",
"585 235 OFFCURVE",
"444 235 CURVE SMOOTH",
"340 235 OFFCURVE",
"217 267 OFFCURVE",
"130 292 CURVE",
"70 30 LINE",
"199 -17 OFFCURVE",
"332 -40 OFFCURVE",
"479 -40 CURVE SMOOTH"
);
}
);
width = 1031;
}
);
unicode = 0033;
},
{
glyphname = four;
layers = (
{
layerId = "1D628CB9-BBF5-410A-9D74-9E6094BFE839";
paths = (
{
closed = 1;
nodes = (
"740 0 LINE",
"740 260 LINE",
"900 260 LINE",
"900 360 LINE",
"740 360 LINE",
"740 747 LINE",
"612 747 LINE",
"612 360 LINE",
"198 360 LINE",
"436 637 OFFCURVE",
"540 976 OFFCURVE",
"540 1284 CURVE",
"415 1284 LINE",
"415 975 OFFCURVE",
"290 634 OFFCURVE",
"68 356 CURVE",
"68 260 LINE",
"612 260 LINE",
"612 0 LINE"
);
}
);
width = 980;
},
{
layerId = "D42B5605-DB46-4B3B-8EA0-4CE7066523CE";
paths = (
{
closed = 1;
nodes = (
"956 -10 LINE",
"956 185 LINE",
"1112 185 LINE",
"1112 470 LINE",
"956 470 LINE",
"956 757 LINE",
"648 757 LINE",
"648 470 LINE",
"361 470 LINE",
"576 695 OFFCURVE",
"674 999 OFFCURVE",
"684 1284 CURVE",
"347 1284 LINE",
"347 998 OFFCURVE",
"249 692 OFFCURVE",
"50 466 CURVE",
"50 185 LINE",
"648 185 LINE",
"648 -10 LINE"
);
}
);
width = 1157;
}
);
unicode = 0034;
},
{
glyphname = five;
layers = (
{
guideLines = (
{
angle = 76.5576;
position = "{201, 312}";
},
{
angle = 90;
position = "{163, 961}";
}
);
layerId = "1D628CB9-BBF5-410A-9D74-9E6094BFE839";
paths = (
{
closed = 1;
nodes = (
"676 -10 OFFCURVE",
"848 105 OFFCURVE",
"848 375 CURVE SMOOTH",
"848 644 OFFCURVE",
"697 789 OFFCURVE",
"488 789 CURVE SMOOTH",
"409 789 OFFCURVE",
"367 773 OFFCURVE",
"261 728 CURVE",
"276 1178 LINE",
"780 1178 LINE",
"780 1284 LINE",
"163 1284 LINE",
"163 637 LINE",
"234 608 LINE",
"353 667 OFFCURVE",
"402 683 OFFCURVE",
"487 683 CURVE SMOOTH",
"615 683 OFFCURVE",
"720 594 OFFCURVE",
"720 377 CURVE SMOOTH",
"720 182 OFFCURVE",
"618 96 OFFCURVE",
"434 96 CURVE SMOOTH",
"344 96 OFFCURVE",
"213 129 OFFCURVE",
"141 159 CURVE",
"115 54 LINE",
"184 24 OFFCURVE",
"331 -10 OFFCURVE",
"427 -10 CURVE SMOOTH"
);
}
);
width = 987;
},
{
guideLines = (
{
angle = 76.5576;
position = "{174, 287}";
},
{
angle = 90;
position = "{132, 951}";
}
);
layerId = "D42B5605-DB46-4B3B-8EA0-4CE7066523CE";
paths = (
{
closed = 1;
nodes = (
"868 -40 OFFCURVE",
"1017 141 OFFCURVE",
"1017 401 CURVE SMOOTH",
"1017 644 OFFCURVE",
"858 814 OFFCURVE",
"627 814 CURVE SMOOTH",
"545 814 OFFCURVE",
"494 801 OFFCURVE",
"428 780 CURVE",
"445 999 LINE",
"942 999 LINE",
"942 1284 LINE",
"132 1284 LINE",
"132 582 LINE",
"363 487 LINE",
"445 520 OFFCURVE",
"476 529 OFFCURVE",
"546 529 CURVE SMOOTH",
"634 529 OFFCURVE",
"689 471 OFFCURVE",
"689 401 CURVE SMOOTH",
"689 274 OFFCURVE",
"605 245 OFFCURVE",
"490 245 CURVE SMOOTH",
"400 245 OFFCURVE",
"314 261 OFFCURVE",
"131 336 CURVE",
"49 68 LINE",
"213 -6 OFFCURVE",
"355 -40 OFFCURVE",
"524 -40 CURVE SMOOTH"
);
}
);
width = 1064;
}
);
unicode = 0035;
},
{
glyphname = six;
layers = (
{
layerId = "1D628CB9-BBF5-410A-9D74-9E6094BFE839";
paths = (
{
closed = 1;
nodes = (
"750 -10 OFFCURVE",
"887 148 OFFCURVE",
"887 421 CURVE SMOOTH",
"887 698 OFFCURVE",
"741 821 OFFCURVE",
"553 821 CURVE SMOOTH",
"455 821 OFFCURVE",
"363 802 OFFCURVE",
"270 727 CURVE",
"281 996 OFFCURVE",
"412 1168 OFFCURVE",
"758 1193 CURVE",
"738 1301 LINE",
"350 1262 OFFCURVE",
"135 1106 OFFCURVE",
"135 551 CURVE SMOOTH",
"135 190 OFFCURVE",
"246 -10 OFFCURVE",
"518 -10 CURVE SMOOTH"
);
},
{
closed = 1;
nodes = (
"333 96 OFFCURVE",
"263 241 OFFCURVE",
"263 529 CURVE SMOOTH",
"263 613 LINE",
"371 692 OFFCURVE",
"451 715 OFFCURVE",
"538 715 CURVE SMOOTH",
"681 715 OFFCURVE",
"759 628 OFFCURVE",
"759 422 CURVE SMOOTH",
"759 197 OFFCURVE",
"681 96 OFFCURVE",
"513 96 CURVE SMOOTH"
);
}
);
width = 1002;
},
{
layerId = "D42B5605-DB46-4B3B-8EA0-4CE7066523CE";
paths = (
{
closed = 1;
nodes = (
"878 -40 OFFCURVE",
"1017 139 OFFCURVE",
"1017 451 CURVE SMOOTH",
"1017 691 OFFCURVE",
"885 853 OFFCURVE",
"639 853 CURVE SMOOTH",
"541 853 OFFCURVE",
"474 841 OFFCURVE",
"400 798 CURVE",
"429 932 OFFCURVE",
"527 1033 OFFCURVE",
"863 1059 CURVE",
"816 1318 LINE",
"294 1305 OFFCURVE",
"75 1073 OFFCURVE",
"75 558 CURVE SMOOTH",
"75 167 OFFCURVE",
"212 -40 OFFCURVE",
"558 -40 CURVE SMOOTH"
);
},
{
closed = 1;
nodes = (
"430 230 OFFCURVE",
"393 328 OFFCURVE",
"393 512 CURVE SMOOTH",
"393 531 LINE",
"424 556 OFFCURVE",
"471 597 OFFCURVE",
"558 597 CURVE SMOOTH",
"643 597 OFFCURVE",
"699 554 OFFCURVE",
"699 431 CURVE SMOOTH",
"699 298 OFFCURVE",
"661 230 OFFCURVE",
"553 230 CURVE SMOOTH"
);
}
);
width = 1081;
}
);
unicode = 0036;
},
{
glyphname = seven;
layers = (
{
layerId = "1D628CB9-BBF5-410A-9D74-9E6094BFE839";
paths = (
{
closed = 1;
nodes = (
"353 0 LINE",
"353 477 OFFCURVE",
"588 981 OFFCURVE",
"763 1198 CURVE",
"753 1301 LINE",
"70 1301 LINE",
"70 1195 LINE",
"642 1195 LINE",
"395 863 OFFCURVE",
"227 373 OFFCURVE",
"217 0 CURVE"
);
}
);
width = 853;
},
{
guideLines = (
{
angle = -83.9217;
position = "{881, 1475}";
}
);
layerId = "D42B5605-DB46-4B3B-8EA0-4CE7066523CE";
paths = (
{
closed = 1;
nodes = (
"521 0 LINE",
"521 437 OFFCURVE",
"825 891 OFFCURVE",
"930 1018 CURVE",
"900 1301 LINE",
"17 1301 LINE",
"17 1016 LINE",
"619 1016 LINE",
"377 751 OFFCURVE",
"194 373 OFFCURVE",
"184 0 CURVE"
);
}
);
width = 947;
}
);
unicode = 0037;
},
{
glyphname = eight;
layers = (
{
layerId = "1D628CB9-BBF5-410A-9D74-9E6094BFE839";
paths = (
{
closed = 1;
nodes = (
"711 -10 OFFCURVE",
"900 89 OFFCURVE",
"900 306 CURVE SMOOTH",
"900 496 OFFCURVE",
"787 597 OFFCURVE",
"658 665 CURVE",
"804 727 OFFCURVE",
"900 863 OFFCURVE",
"900 998 CURVE SMOOTH",
"900 1197 OFFCURVE",
"727 1301 OFFCURVE",
"532 1301 CURVE SMOOTH",
"338 1301 OFFCURVE",
"164 1211 OFFCURVE",
"164 994 CURVE SMOOTH",
"164 825 OFFCURVE",
"270 736 OFFCURVE",
"387 675 CURVE",
"217 597 OFFCURVE",
"132 445 OFFCURVE",
"132 304 CURVE SMOOTH",
"132 93 OFFCURVE",
"307 -10 OFFCURVE",
"516 -10 CURVE SMOOTH"
);
},
{
closed = 1;
nodes = (
"373 96 OFFCURVE",
"260 157 OFFCURVE",
"260 317 CURVE SMOOTH",
"260 440 OFFCURVE",
"337 546 OFFCURVE",
"496 626 CURVE",
"629 568 OFFCURVE",
"772 487 OFFCURVE",
"772 321 CURVE SMOOTH",
"772 152 OFFCURVE",
"650 96 OFFCURVE",
"516 96 CURVE SMOOTH"
);
},
{
closed = 1;
nodes = (
"412 776 OFFCURVE",
"292 840 OFFCURVE",
"292 989 CURVE SMOOTH",
"292 1149 OFFCURVE",
"408 1195 OFFCURVE",
"534 1195 CURVE SMOOTH",
"700 1195 OFFCURVE",
"772 1107 OFFCURVE",
"772 987 CURVE SMOOTH",
"772 875 OFFCURVE",
"680 761 OFFCURVE",
"549 716 CURVE"
);
}
);
width = 1042;
},
{
guideLines = (
{
angle = 90;
position = "{565, 1200}";
}
);
layerId = "D42B5605-DB46-4B3B-8EA0-4CE7066523CE";
paths = (
{
closed = 1;
nodes = (
"913 -40 OFFCURVE",
"1033 124 OFFCURVE",
"1033 321 CURVE SMOOTH",
"1033 471 OFFCURVE",
"960 587 OFFCURVE",
"811 655 CURVE",
"937 722 OFFCURVE",
"1033 822 OFFCURVE",
"1033 971 CURVE SMOOTH",
"1033 1138 OFFCURVE",
"918 1331 OFFCURVE",
"565 1331 CURVE SMOOTH",
"212 1331 OFFCURVE",
"97 1138 OFFCURVE",
"97 971 CURVE SMOOTH",
"97 805 OFFCURVE",
"183 721 OFFCURVE",
"300 665 CURVE",
"140 587 OFFCURVE",
"65 471 OFFCURVE",
"65 321 CURVE SMOOTH",
"65 124 OFFCURVE",
"207 -40 OFFCURVE",
"560 -40 CURVE SMOOTH"
);
},
{
closed = 1;
nodes = (
"469 235 OFFCURVE",
"393 278 OFFCURVE",
"393 343 CURVE SMOOTH",
"393 402 OFFCURVE",
"444 453 OFFCURVE",
"529 496 CURVE",
"662 438 OFFCURVE",
"705 403 OFFCURVE",
"705 343 CURVE SMOOTH",
"705 278 OFFCURVE",
"641 235 OFFCURVE",
"555 235 CURVE SMOOTH"
);
},
{
closed = 1;
nodes = (
"506 855 OFFCURVE",
"425 887 OFFCURVE",
"425 954 CURVE SMOOTH",
"425 1009 OFFCURVE",
"464 1056 OFFCURVE",
"565 1056 CURVE SMOOTH",
"666 1056 OFFCURVE",
"705 1009 OFFCURVE",
"705 954 CURVE SMOOTH",
"705 905 OFFCURVE",
"662 874 OFFCURVE",
"572 826 CURVE"
);
}
);
width = 1098;
}
);
unicode = 0038;
},
{
glyphname = nine;
layers = (
{
layerId = "1D628CB9-BBF5-410A-9D74-9E6094BFE839";
paths = (
{
closed = 1;
nodes = (
"237 1301 OFFCURVE",
"100 1143 OFFCURVE",
"100 870 CURVE SMOOTH",
"100 593 OFFCURVE",
"244 467 OFFCURVE",
"434 467 CURVE SMOOTH",
"532 467 OFFCURVE",
"625 490 OFFCURVE",
"717 568 CURVE",
"706 299 OFFCURVE",
"575 123 OFFCURVE",
"229 98 CURVE",
"249 -10 LINE",
"637 29 OFFCURVE",
"852 185 OFFCURVE",
"852 740 CURVE SMOOTH",
"852 1101 OFFCURVE",
"741 1301 OFFCURVE",
"469 1301 CURVE SMOOTH"
);
},
{
closed = 1;
nodes = (
"654 1195 OFFCURVE",
"724 1050 OFFCURVE",
"724 762 CURVE SMOOTH",
"724 682 LINE",
"617 600 OFFCURVE",
"536 573 OFFCURVE",
"449 573 CURVE SMOOTH",
"304 573 OFFCURVE",
"228 663 OFFCURVE",
"228 869 CURVE SMOOTH",
"228 1094 OFFCURVE",
"306 1195 OFFCURVE",
"474 1195 CURVE SMOOTH"
);
}
);
width = 1010;
},
{
layerId = "D42B5605-DB46-4B3B-8EA0-4CE7066523CE";
paths = (
{
closed = 1;
nodes = (
"203 1331 OFFCURVE",
"64 1152 OFFCURVE",
"64 847 CURVE SMOOTH",
"64 607 OFFCURVE",
"196 445 OFFCURVE",
"442 445 CURVE SMOOTH",
"540 445 OFFCURVE",
"607 457 OFFCURVE",
"681 500 CURVE",
"652 346 OFFCURVE",
"554 245 OFFCURVE",
"218 219 CURVE",
"265 -40 LINE",
"787 -27 OFFCURVE",
"1006 205 OFFCURVE",
"1006 740 CURVE SMOOTH",
"1006 1124 OFFCURVE",
"869 1331 OFFCURVE",
"523 1331 CURVE SMOOTH"
);
},
{
closed = 1;
nodes = (
"651 1061 OFFCURVE",
"688 963 OFFCURVE",
"688 786 CURVE SMOOTH",
"688 767 LINE",
"657 742 OFFCURVE",
"610 701 OFFCURVE",
"523 701 CURVE SMOOTH",
"438 701 OFFCURVE",
"382 744 OFFCURVE",
"382 857 CURVE SMOOTH",
"382 993 OFFCURVE",
"420 1061 OFFCURVE",
"528 1061 CURVE SMOOTH"
);
}
);
width = 1081;
}
);
unicode = 0039;
},
{
glyphname = four.001;
layers = (
{
layerId = "1D628CB9-BBF5-410A-9D74-9E6094BFE839";
paths = (
{
closed = 1;
nodes = (
"740 0 LINE",
"740 260 LINE",
"900 260 LINE",
"900 360 LINE",
"740 360 LINE",
"740 837 LINE",
"612 837 LINE",
"612 360 LINE",
"205 360 LINE",
"540 1284 LINE",
"415 1284 LINE",
"68 356 LINE",
"68 260 LINE",
"612 260 LINE",
"612 0 LINE"
);
}
);
width = 1010;
},
{
layerId = "D42B5605-DB46-4B3B-8EA0-4CE7066523CE";
paths = (
{
closed = 1;
nodes = (
"937 0 LINE",
"937 185 LINE",
"1062 185 LINE",
"1062 470 LINE",
"937 470 LINE",
"937 807 LINE",
"619 807 LINE",
"619 470 LINE",
"402 470 LINE",
"717 1284 LINE",
"377 1284 LINE",
"50 466 LINE",
"50 185 LINE",
"619 185 LINE",
"619 0 LINE"
);
}
);
width = 1107;
}
);
},
{
glyphname = zero.zero;
layers = (
{
layerId = "1D628CB9-BBF5-410A-9D74-9E6094BFE839";
paths = (
{
closed = 1;
nodes = (
"373 106 LINE",
"756 1164 LINE",
"654 1164 LINE",
"274 106 LINE"
);
},
{
closed = 1;
nodes = (
"842 -10 OFFCURVE",
"909 289 OFFCURVE",
"909 646 CURVE SMOOTH",
"909 1003 OFFCURVE",
"844 1301 OFFCURVE",
"511 1301 CURVE SMOOTH",
"184 1301 OFFCURVE",
"111 1030 OFFCURVE",
"111 646 CURVE SMOOTH",
"111 293 OFFCURVE",
"175 -10 OFFCURVE",
"511 -10 CURVE SMOOTH"
);
},
{
closed = 1;
nodes = (
"271 96 OFFCURVE",
"239 310 OFFCURVE",
"239 646 CURVE SMOOTH",
"239 938 OFFCURVE",
"259 1195 OFFCURVE",
"511 1195 CURVE SMOOTH",
"749 1195 OFFCURVE",
"781 983 OFFCURVE",
"781 646 CURVE SMOOTH",
"781 402 OFFCURVE",
"777 96 OFFCURVE",
"511 96 CURVE SMOOTH"
);
}
);
width = 1020;
},
{
layerId = "D42B5605-DB46-4B3B-8EA0-4CE7066523CE";
paths = (
{
closed = 1;
nodes = (
"942 -10 OFFCURVE",
"1059 239 OFFCURVE",
"1059 646 CURVE SMOOTH",
"1059 1053 OFFCURVE",
"944 1301 OFFCURVE",
"561 1301 CURVE SMOOTH",
"184 1301 OFFCURVE",
"61 1080 OFFCURVE",
"61 646 CURVE SMOOTH",
"61 243 OFFCURVE",
"175 -10 OFFCURVE",
"561 -10 CURVE SMOOTH"
);
},
{
closed = 1;
nodes = (
"421 296 OFFCURVE",
"389 410 OFFCURVE",
"389 646 CURVE SMOOTH",
"389 838 OFFCURVE",
"409 995 OFFCURVE",
"561 995 CURVE SMOOTH",
"699 995 OFFCURVE",
"731 883 OFFCURVE",
"731 646 CURVE SMOOTH",
"731 502 OFFCURVE",
"727 296 OFFCURVE",
"561 296 CURVE SMOOTH"
);
},
{
closed = 1;
nodes = (
"304 107 LINE",
"424 107 LINE",
"795 1170 LINE",
"675 1170 LINE"
);
}
);
width = 1120;
}
);
},
{
glyphname = onesuperior;
layers = (
{
guideLines = (
{
position = "{347, 488}";
},
{
position = "{367, 1404}";
}
);
layerId = "1D628CB9-BBF5-410A-9D74-9E6094BFE839";
paths = (
{
closed = 1;
nodes = (
"560 488 LINE",
"560 593 LINE",
"414 593 LINE",
"414 1404 LINE",
"320 1404 LINE",
"119 1320 LINE",
"157 1232 LINE",
"302 1293 LINE",
"302 593 LINE",
"133 593 LINE",
"133 488 LINE"
);
}
);
width = 661;
},
{
guideLines = (
{
position = "{348, 488}";
},
{
position = "{368, 1404}";
}
);
layerId = "D42B5605-DB46-4B3B-8EA0-4CE7066523CE";
paths = (
{
closed = 1;
nodes = (
"756 470 LINE",
"756 703 LINE",
"564 703 LINE",
"564 1405 LINE",
"319 1405 LINE",
"50 1276 LINE",
"156 1064 LINE",
"308 1137 LINE",
"308 703 LINE",
"96 703 LINE",
"96 470 LINE"
);
}
);
width = 789;
}
);
unicode = 00B9;
},
{
glyphname = twosuperior;
layers = (
{
layerId = "1D628CB9-BBF5-410A-9D74-9E6094BFE839";
paths = (
{
closed = 1;
nodes = (
"650 489 LINE",
"643 593 LINE",
"258 593 LINE",
"274 693 OFFCURVE",
"337 735 OFFCURVE",
"412 810 CURVE SMOOTH",
"530 928 OFFCURVE",
"648 1025 OFFCURVE",
"648 1174 CURVE SMOOTH",
"648 1309 OFFCURVE",
"560 1421 OFFCURVE",
"377 1421 CURVE SMOOTH",
"271 1421 OFFCURVE",
"208 1389 OFFCURVE",
"137 1357 CURVE",
"173 1274 LINE",
"190 1282 OFFCURVE",
"272 1327 OFFCURVE",
"368 1327 CURVE SMOOTH",
"492 1327 OFFCURVE",
"543 1277 OFFCURVE",
"543 1171 CURVE SMOOTH",
"543 1067 OFFCURVE",
"455 989 OFFCURVE",
"370 907 CURVE SMOOTH",
"253 797 OFFCURVE",
"126 682 OFFCURVE",
"125 489 CURVE"
);
}
);
width = 783;
},
{
layerId = "D42B5605-DB46-4B3B-8EA0-4CE7066523CE";
paths = (
{
closed = 1;
nodes = (
"717 471 LINE",
"688 704 LINE",
"384 704 LINE",
"396 740 OFFCURVE",
"437 769 OFFCURVE",
"472 795 CURVE SMOOTH",
"528 837 OFFCURVE",
"703 930 OFFCURVE",
"703 1128 CURVE SMOOTH",
"703 1321 OFFCURVE",
"584 1431 OFFCURVE",
"354 1431 CURVE SMOOTH",
"219 1431 OFFCURVE",
"111 1386 OFFCURVE",
"40 1347 CURVE",
"119 1136 LINE",
"136 1144 OFFCURVE",
"233 1195 OFFCURVE",
"323 1195 CURVE SMOOTH",
"403 1195 OFFCURVE",
"437 1147 OFFCURVE",
"437 1101 CURVE SMOOTH",
"437 1026 OFFCURVE",
"337 978 OFFCURVE",
"233 896 CURVE SMOOTH",
"132 816 OFFCURVE",
"42 704 OFFCURVE",
"42 471 CURVE"
);
}
);
width = 757;
}
);
unicode = 00B2;
},
{
glyphname = threesuperior;
layers = (
{
layerId = "1D628CB9-BBF5-410A-9D74-9E6094BFE839";
paths = (
{
closed = 1;
nodes = (
"489 485 OFFCURVE",
"647 554 OFFCURVE",
"647 746 CURVE SMOOTH",
"647 890 OFFCURVE",
"543 969 OFFCURVE",
"444 981 CURVE",
"543 1007 OFFCURVE",
"608 1088 OFFCURVE",
"608 1191 CURVE SMOOTH",
"608 1336 OFFCURVE",
"494 1421 OFFCURVE",
"334 1421 CURVE SMOOTH",
"264 1421 OFFCURVE",
"189 1407 OFFCURVE",
"109 1381 CURVE",
"133 1289 LINE",
"203 1313 OFFCURVE",
"269 1326 OFFCURVE",
"338 1326 CURVE SMOOTH",
"434 1326 OFFCURVE",
"498 1283 OFFCURVE",
"498 1187 CURVE SMOOTH",
"498 1091 OFFCURVE",
"434 1018 OFFCURVE",
"330 1018 CURVE SMOOTH",
"289 1018 OFFCURVE",
"267 1018 OFFCURVE",
"219 1018 CURVE",
"219 936 LINE",
"255 937 OFFCURVE",
"305 937 OFFCURVE",
"343 937 CURVE SMOOTH",
"458 937 OFFCURVE",
"537 875 OFFCURVE",
"537 745 CURVE SMOOTH",
"537 632 OFFCURVE",
"451 581 OFFCURVE",
"333 581 CURVE SMOOTH",
"273 581 OFFCURVE",
"196 590 OFFCURVE",
"133 615 CURVE",
"109 521 LINE",
"179 495 OFFCURVE",
"254 485 OFFCURVE",
"330 485 CURVE SMOOTH"
);
}
);
width = 744;
},
{
layerId = "D42B5605-DB46-4B3B-8EA0-4CE7066523CE";
paths = (
{
closed = 1;
nodes = (
"566 457 OFFCURVE",
"690 558 OFFCURVE",
"690 722 CURVE SMOOTH",
"690 868 OFFCURVE",
"605 937 OFFCURVE",
"488 961 CURVE",
"599 1002 OFFCURVE",
"653 1049 OFFCURVE",
"653 1190 CURVE SMOOTH",
"653 1343 OFFCURVE",
"503 1431 OFFCURVE",
"321 1431 CURVE SMOOTH",
"244 1431 OFFCURVE",
"148 1418 OFFCURVE",
"40 1380 CURVE",
"88 1168 LINE",
"185 1198 OFFCURVE",
"269 1201 OFFCURVE",
"299 1201 CURVE SMOOTH",
"358 1201 OFFCURVE",
"397 1179 OFFCURVE",
"397 1136 CURVE SMOOTH",
"397 1082 OFFCURVE",
"361 1056 OFFCURVE",
"272 1056 CURVE SMOOTH",
"162 1056 LINE",
"164 852 LINE",
"274 852 LINE SMOOTH",
"394 852 OFFCURVE",
"435 821 OFFCURVE",
"435 768 CURVE SMOOTH",
"435 707 OFFCURVE",
"403 674 OFFCURVE",
"308 674 CURVE SMOOTH",
"233 674 OFFCURVE",
"146 696 OFFCURVE",
"83 719 CURVE",
"40 512 LINE",
"132 479 OFFCURVE",
"228 457 OFFCURVE",
"332 457 CURVE SMOOTH"
);
}
);
width = 719;
}
);
unicode = 00B3;
},
{
glyphname = foursuperior;
layers = (
{
layerId = "1D628CB9-BBF5-410A-9D74-9E6094BFE839";
paths = (
{
closed = 1;
nodes = (
"553 490 LINE",
"553 672 LINE",
"668 672 LINE",
"668 767 LINE",
"553 767 LINE",
"553 1059 LINE",
"449 1059 LINE",
"449 767 LINE",
"174 765 LINE",
"341 978 OFFCURVE",
"413 1191 OFFCURVE",
"413 1404 CURVE",
"307 1404 LINE",
"307 1190 OFFCURVE",
"229 976 OFFCURVE",
"59 762 CURVE",
"59 670 LINE",
"449 672 LINE",
"449 490 LINE"
);
}
);
width = 722;
},
{
layerId = "D42B5605-DB46-4B3B-8EA0-4CE7066523CE";
paths = (
{
closed = 1;
nodes = (
"742 470 LINE",
"742 602 LINE",
"831 602 LINE",
"831 835 LINE",
"742 835 LINE",
"742 1021 LINE",
"501 1021 LINE",
"501 835 LINE",
"323 835 LINE",
"455 996 OFFCURVE",
"524 1202 OFFCURVE",
"531 1405 CURVE",
"261 1405 LINE",
"261 1202 OFFCURVE",
"191 983 OFFCURVE",
"50 822 CURVE",
"50 602 LINE",
"501 602 LINE",
"501 470 LINE"
);
}
);
width = 881;
}
);
unicode = 2074;
},
{
glyphname = fraction;
layers = (
{
layerId = "1D628CB9-BBF5-410A-9D74-9E6094BFE839";
paths = (
{
closed = 1;
nodes = (
"187 -52 LINE",
"704 1304 LINE",
"609 1336 LINE",
"93 -20 LINE"
);
}
);
width = 822;
},
{
layerId = "D42B5605-DB46-4B3B-8EA0-4CE7066523CE";
paths = (
{
closed = 1;
nodes = (
"351 -127 LINE",
"895 1304 LINE",
"628 1387 LINE",
"94 -20 LINE"
);
}
);
width = 1014;
}
);
unicode = 2044;
},
{
glyphname = asterisk;
layers = (
{
layerId = "1D628CB9-BBF5-410A-9D74-9E6094BFE839";
paths = (
{
closed = 1;
nodes = (
"464 989 LINE",
"639 753 LINE",
"712 807 LINE",
"538 1043 LINE",
"816 1138 LINE",
"790 1223 LINE",
"510 1130 LINE",
"510 1425 LINE",
"419 1425 LINE",
"419 1130 LINE",
"138 1223 LINE",
"112 1137 LINE",
"390 1043 LINE",
"217 807 LINE",
"290 753 LINE"
);
}
);
width = 931;
},
{
guideLines = (
{
angle = 216.4913;
position = "{676, 780}";
},
{
angle = 143.5087;
position = "{254, 780}";
},
{
angle = 73.1786;
position = "{125, 1180}";
},
{
angle = -72.9921;
position = "{803, 1181}";
},
{
angle = 270;
position = "{350, 1545}";
},
{
angle = -18.3125;
position = "{288, 1233}";
},
{
angle = 198.3125;
position = "{643, 1234}";
},
{
angle = 161.3181;
position = "{205, 1017}";
},
{
angle = 198.8667;
position = "{720, 1016}";
},
{
angle = 126.5579;
position = "{491, 826}";
},
{
angle = -53.5991;
position = "{684, 953}";
},
{
angle = 233.5991;
position = "{412, 793}";
},
{
angle = 233.7567;
position = "{209, 906}";
},
{
angle = 180;
position = "{464, 694}";
},
{
position = "{382, 1434}";
},
{
angle = 270;
position = "{580, 1544}";
}
);
layerId = "D42B5605-DB46-4B3B-8EA0-4CE7066523CE";
paths = (
{
closed = 1;
nodes = (
"786 1281 LINE",
"568 1195 LINE",
"580 1435 LINE",
"350 1435 LINE",
"362 1195 LINE",
"141 1281 LINE",
"75 1061 LINE",
"292 1000 LINE",
"154 830 LINE",
"339 694 LINE",
"464 884 LINE",
"589 694 LINE",
"774 831 LINE",
"636 1000 LINE",
"853 1061 LINE"
);
}
);
width = 928;
}
);
unicode = 002A;
},
{
glyphname = backslash;
layers = (
{
guideLines = (
{
angle = 201.7852;
position = "{257, 1509}";
},
{
angle = 201.7852;
position = "{1080, 5}";
}
);
layerId = "1D628CB9-BBF5-410A-9D74-9E6094BFE839";
paths = (
{
closed = 1;
nodes = (
"717 -126 LINE",
"827 -81 LINE",
"192 1498 LINE",
"83 1453 LINE"
);
}
);
width = 945;
},
{
guideLines = (
{
angle = 201.7852;
position = "{156, 1421}";
},
{
angle = 201.7852;
position = "{482, -201}";
}
);
layerId = "D42B5605-DB46-4B3B-8EA0-4CE7066523CE";
paths = (
{
closed = 1;
nodes = (
"652 -159 LINE",
"924 -42 LINE",
"297 1538 LINE",
"26 1421 LINE"
);
}
);
width = 950;
}
);
unicode = 005C;
},
{
glyphname = periodcentered;
layers = (
{
guideLines = (
{
position = "{-979, 546}";
}
);
layerId = "1D628CB9-BBF5-410A-9D74-9E6094BFE839";
paths = (
{
closed = 1;
nodes = (
"379 546 LINE",
"379 738 LINE",
"219 738 LINE",
"219 546 LINE"
);
}
);
width = 460;
},
{
components = (
{
name = period;
transform = "{1, 0, 0, 1, -5, 442}";
}
);
layerId = "D42B5605-DB46-4B3B-8EA0-4CE7066523CE";
width = 508;
}
);
unicode = 00B7;
},
{
glyphname = bullet;
layers = (
{
layerId = "1D628CB9-BBF5-410A-9D74-9E6094BFE839";
paths = (
{
closed = 1;
nodes = (
"472 374 OFFCURVE",
"565 467 OFFCURVE",
"565 582 CURVE SMOOTH",
"565 697 OFFCURVE",
"472 790 OFFCURVE",
"357 790 CURVE SMOOTH",
"242 790 OFFCURVE",
"149 697 OFFCURVE",
"149 582 CURVE SMOOTH",
"149 467 OFFCURVE",
"242 374 OFFCURVE",
"357 374 CURVE SMOOTH"
);
}
);
width = 715;
},
{
layerId = "D42B5605-DB46-4B3B-8EA0-4CE7066523CE";
paths = (
{
closed = 1;
nodes = (
"646 224 OFFCURVE",
"806 384 OFFCURVE",
"806 582 CURVE SMOOTH",
"806 780 OFFCURVE",
"646 940 OFFCURVE",
"448 940 CURVE SMOOTH",
"250 940 OFFCURVE",
"90 780 OFFCURVE",
"90 582 CURVE SMOOTH",
"90 384 OFFCURVE",
"250 224 OFFCURVE",
"448 224 CURVE SMOOTH"
);
}
);
width = 896;
}
);
unicode = 2022;
},
{
glyphname = colon;
layers = (
{
guideLines = (
{
position = "{-979, 546}";
}
);
layerId = "1D628CB9-BBF5-410A-9D74-9E6094BFE839";
paths = (
{
closed = 1;
nodes = (
"312 546 LINE",
"312 748 LINE",
"149 748 LINE",
"149 546 LINE"
);
},
{
closed = 1;
nodes = (
"312 0 LINE",
"312 196 LINE",
"149 196 LINE",
"149 0 LINE"
);
}
);
width = 489;
},
{
guideLines = (
{
angle = 270;
position = "{110, 491}";
},
{
angle = 270;
position = "{470, 512}";
},
{
position = "{151, 551}";
},
{
position = "{151, 425}";
}
);
layerId = "D42B5605-DB46-4B3B-8EA0-4CE7066523CE";
paths = (
{
closed = 1;
nodes = (
"438 593 LINE",
"438 985 LINE",
"110 985 LINE",
"110 593 LINE"
);
},
{
closed = 1;
nodes = (
"438 0 LINE",
"438 392 LINE",
"110 392 LINE",
"110 0 LINE"
);
}
);
width = 548;
}
);
unicode = 003A;
},
{
glyphname = comma;
layers = (
{
guideLines = (
{
angle = -43.2797;
position = "{119, -182}";
}
);
layerId = "1D628CB9-BBF5-410A-9D74-9E6094BFE839";
paths = (
{
closed = 1;
nodes = (
"277 -176 OFFCURVE",
"321 -88 OFFCURVE",
"321 43 CURVE SMOOTH",
"321 216 LINE",
"158 216 LINE",
"158 0 LINE",
"236 0 LINE",
"236 -66 OFFCURVE",
"205 -153 OFFCURVE",
"153 -235 CURVE",
"192 -272 LINE"
);
}
);
width = 482;
},
{
guideLines = (
{
angle = -43.2797;
position = "{83, -243}";
}
);
layerId = "D42B5605-DB46-4B3B-8EA0-4CE7066523CE";
paths = (
{
closed = 1;
nodes = (
"340 -253 OFFCURVE",
"418 -126 OFFCURVE",
"418 62 CURVE SMOOTH",
"418 393 LINE",
"90 393 LINE",
"90 0 LINE",
"244 0 LINE",
"244 -121 OFFCURVE",
"209 -185 OFFCURVE",
"130 -315 CURVE",
"202 -383 LINE"
);
}
);
width = 508;
}
);
unicode = 002C;
},
{
glyphname = exclam;
layers = (
{
layerId = "1D628CB9-BBF5-410A-9D74-9E6094BFE839";
paths = (
{
closed = 1;
nodes = (
"265 341 LINE",
"294 1284 LINE",
"153 1284 LINE",
"184 341 LINE"
);
},
{
closed = 1;
nodes = (
"293 0 LINE",
"293 155 LINE",
"168 155 LINE",
"168 0 LINE"
);
}
);
width = 454;
},
{
layerId = "D42B5605-DB46-4B3B-8EA0-4CE7066523CE";
paths = (
{
closed = 1;
nodes = (
"422 442 LINE",
"451 1331 LINE",
"110 1331 LINE",
"141 442 LINE"
);
},
{
closed = 1;
nodes = (
"447 0 LINE",
"447 322 LINE",
"122 322 LINE",
"122 0 LINE"
);
}
);
width = 561;
}
);
unicode = 0021;
},
{
glyphname = exclamdown;
layers = (
{
components = (
{
name = exclam;
transform = "{-1, 0, 0, -1, 454, 1284}";
}
);
layerId = "1D628CB9-BBF5-410A-9D74-9E6094BFE839";
width = 454;
},
{
layerId = "D42B5605-DB46-4B3B-8EA0-4CE7066523CE";
paths = (
{
closed = 1;
nodes = (
"110 -23 LINE",
"451 -23 LINE",
"422 866 LINE",
"141 866 LINE"
);
},
{
closed = 1;
nodes = (
"122 986 LINE",
"447 986 LINE",
"447 1308 LINE",
"122 1308 LINE"
);
}
);
width = 561;
}
);
unicode = 00A1;
},
